<svg width="449" height="335" viewBox="0 0 449 335" fill="none" xmlns="http://www.w3.org/2000/svg">
<path d="M449 294.005H0V294.23H449V294.005Z" fill="#EBEBEB"/>
<path d="M404.01 308.454H356.353V308.679H404.01V308.454Z" fill="#EBEBEB"/>
<path d="M297.436 305.643H244.759V305.868H297.436V305.643Z" fill="#EBEBEB"/>
<path d="M358.652 304.35H341.42V304.575H358.652V304.35Z" fill="#EBEBEB"/>
<path d="M129.007 301.629H90.222V301.854H129.007V301.629Z" fill="#EBEBEB"/>
<path d="M85.2201 301.629H71.355V301.854H85.2201V301.629Z" fill="#EBEBEB"/>
<path d="M166.732 305.419H118.06V305.643H166.732V305.419Z" fill="#EBEBEB"/>
<path d="M212.826 253.954H39.4311C38.0727 253.952 36.7708 253.411 35.8112 252.449C34.8515 251.488 34.3125 250.185 34.3125 248.827V5.08268C34.3243 3.73211 34.8685 2.44074 35.8269 1.48908C36.7853 0.537415 38.0805 0.0023136 39.4311 0H212.826C214.186 0 215.49 0.540226 216.452 1.50183C217.413 2.46344 217.954 3.76766 217.954 5.12758V248.827C217.954 250.187 217.413 251.491 216.452 252.453C215.49 253.414 214.186 253.954 212.826 253.954ZM39.4311 0.179601C38.1323 0.181979 36.8875 0.699601 35.9699 1.61885C35.0523 2.5381 34.537 3.78386 34.537 5.08268V248.827C34.537 250.126 35.0523 251.371 35.9699 252.291C36.8875 253.21 38.1323 253.728 39.4311 253.73H212.826C214.126 253.728 215.371 253.21 216.29 252.291C217.209 251.372 217.727 250.126 217.729 248.827V5.08268C217.727 3.78303 217.209 2.53729 216.29 1.6183C215.371 0.699309 214.126 0.181974 212.826 0.179601H39.4311Z" fill="#EBEBEB"/>
<path d="M407.072 253.954H233.669C232.309 253.952 231.007 253.411 230.045 252.45C229.084 251.489 228.543 250.186 228.541 248.827V5.08268C228.555 3.73129 229.101 2.43993 230.061 1.48852C231.021 0.537102 232.317 0.00228836 233.669 0H407.072C408.421 0.00467364 409.714 0.54082 410.671 1.49223C411.627 2.44364 412.17 3.73366 412.182 5.08268V248.827C412.182 250.184 411.644 251.485 410.687 252.446C409.729 253.407 408.429 253.95 407.072 253.954ZM233.669 0.179601C232.369 0.181974 231.123 0.699309 230.204 1.6183C229.285 2.53729 228.768 3.78303 228.766 5.08268V248.827C228.768 250.126 229.285 251.372 230.204 252.291C231.123 253.21 232.369 253.728 233.669 253.73H407.072C408.372 253.728 409.618 253.21 410.537 252.291C411.456 251.372 411.973 250.126 411.975 248.827V5.08268C411.973 3.78303 411.456 2.53729 410.537 1.6183C409.618 0.699309 408.372 0.181974 407.072 0.179601H233.669Z" fill="#EBEBEB"/>
<path d="M84.861 138.472H172.12V26.6976L84.861 26.6976L84.861 138.472Z" fill="#E6E6E6"/>
<path d="M80.1644 138.472H171.231V26.6976L80.1644 26.6976L80.1644 138.472Z" fill="#F0F0F0"/>
<path d="M167.019 134.278V30.9092L84.3581 30.9092V134.278H167.019Z" fill="white"/>
<path d="M126.869 134.269L110.256 30.9001H96.4362L113.04 134.269H126.869Z" fill="#F5F5F5"/>
<path d="M138.445 134.269L121.841 30.9001H115.788L132.401 134.269H138.445Z" fill="#F5F5F5"/>
<path d="M84.8789 134.278V30.9092H84.367V134.278H84.8789Z" fill="#E6E6E6"/>
<path d="M251.709 145.162L391.456 145.162V26.2128L251.709 26.2128L251.709 145.162Z" fill="#E6E6E6"/>
<path d="M247.148 145.162L389.328 145.162V26.2128L247.148 26.2128L247.148 145.162Z" fill="#F0F0F0"/>
<path d="M251.709 153.63L391.456 153.63V145.153L251.709 145.153V153.63Z" fill="#E6E6E6"/>
<path d="M239.542 153.63L381.722 153.63V145.153L239.542 145.153V153.63Z" fill="#F0F0F0"/>
<path d="M382.934 138.777V32.5974L253.523 32.5974V138.777H382.934Z" fill="#FAFAFA"/>
<path d="M300.552 138.768L290.323 32.5974H272.633L282.861 138.768H300.552Z" fill="white"/>
<path d="M379.98 102.776C380.108 102.776 380.232 102.725 380.323 102.634C380.414 102.543 380.465 102.42 380.465 102.291V36.7374C380.465 36.6088 380.414 36.4854 380.323 36.3945C380.232 36.3035 380.108 36.2524 379.98 36.2524C379.851 36.2524 379.728 36.3035 379.637 36.3945C379.546 36.4854 379.495 36.6088 379.495 36.7374V102.291C379.495 102.42 379.546 102.543 379.637 102.634C379.728 102.725 379.851 102.776 379.98 102.776Z" fill="#F0F0F0"/>
<path d="M279.062 138.768L268.834 32.5974H261.938L272.166 138.768H279.062Z" fill="white"/>
<path d="M254.341 138.777V32.5974H253.532V138.777H254.341Z" fill="#E6E6E6"/>
<path opacity="0.5" d="M245.63 44.1724H385.377L385.969 35.0757H246.223L245.63 44.1724Z" fill="#E0E0E0"/>
<path opacity="0.5" d="M245.63 59.1243H385.377L385.969 50.0276H246.223L245.63 59.1243Z" fill="#E0E0E0"/>
<path opacity="0.5" d="M245.63 74.076H385.377L385.969 64.9792H246.223L245.63 74.076Z" fill="#E0E0E0"/>
<path opacity="0.5" d="M245.63 89.0279H385.377L385.969 79.9312H246.223L245.63 89.0279Z" fill="#E0E0E0"/>
<path opacity="0.5" d="M245.63 103.979H385.377L385.969 94.8826H246.223L245.63 103.979Z" fill="#E0E0E0"/>
<path opacity="0.5" d="M245.63 118.931H385.377L385.969 109.834H246.223L245.63 118.931Z" fill="#E0E0E0"/>
<path d="M304.027 236.219C303.987 236.027 303.882 235.855 303.73 235.732C303.578 235.61 303.387 235.543 303.192 235.545H270.864C270.668 235.543 270.478 235.61 270.325 235.732C270.173 235.855 270.068 236.027 270.029 236.219L258.552 294.005H260.294L271.555 237.243H302.5L313.761 294.005H315.494L304.027 236.219Z" fill="#F0F0F0"/>
<path d="M366.644 236.219C366.605 236.027 366.5 235.855 366.348 235.732C366.195 235.61 366.005 235.543 365.809 235.545H333.481C333.285 235.543 333.095 235.61 332.943 235.732C332.791 235.855 332.686 236.027 332.646 236.219L321.161 294.005H322.903L334.164 237.243H365.109L376.37 294.005H378.112L366.644 236.219Z" fill="#F0F0F0"/>
<path d="M367.56 229.08H265.853C260.995 229.08 257.053 231.415 257.053 234.306V234.486C257.053 235.536 258.489 236.39 260.267 236.39H373.155C374.951 236.39 376.361 235.536 376.361 234.486V234.306C376.361 231.415 372.419 229.08 367.56 229.08Z" fill="#E0E0E0"/>
<path d="M373.792 187.17H306.541L296.789 226.88H364.04L373.792 187.17Z" fill="#E6E6E6"/>
<path d="M364.04 226.88L363.771 229.08H296.52L296.789 226.88H364.04Z" fill="#E6E6E6"/>
<path d="M371.718 187.17H304.467L294.724 226.88H361.975L371.718 187.17Z" fill="#F0F0F0"/>
<path d="M360.547 225.066L369.41 188.984H305.895L297.031 225.066H360.547Z" fill="white"/>
<path d="M344.446 226.88L344.176 229.08H270.118L270.388 226.88H344.446Z" fill="#F0F0F0"/>
<path d="M204.717 235.078H181.63V240.197H204.717V235.078Z" fill="#E6E6E6"/>
<path d="M68.0145 294.005H72.28L72.28 176.304H68.0145L68.0145 294.005Z" fill="#E6E6E6"/>
<path d="M53.2514 240.197L181.63 240.197V235.078L53.2514 235.078V240.197Z" fill="#F5F5F5"/>
<path d="M204.717 263.069H181.63V268.188H204.717V263.069Z" fill="#E6E6E6"/>
<path d="M53.2514 268.179H181.63V263.06H53.2514V268.179Z" fill="#F5F5F5"/>
<path d="M204.717 179.106H181.63V184.225H204.717V179.106Z" fill="#E6E6E6"/>
<path d="M53.2514 184.216L181.63 184.216V179.097L53.2514 179.097V184.216Z" fill="#F5F5F5"/>
<path d="M204.717 207.088H181.63V212.206H204.717V207.088Z" fill="#E6E6E6"/>
<path d="M53.2514 212.206L181.63 212.206V207.088L53.2514 207.088V212.206Z" fill="#F5F5F5"/>
<path d="M196.393 294.005H200.658L200.658 176.304H196.393V294.005Z" fill="#E6E6E6"/>
<path d="M177.364 294.005H181.63L181.63 176.304H177.364V294.005Z" fill="#F5F5F5"/>
<path d="M53.2424 294.005H57.5079L57.5079 176.304H53.2424L53.2424 294.005Z" fill="#F5F5F5"/>
<path d="M224.5 334.559C320.66 334.559 398.613 330.008 398.613 324.393C398.613 318.779 320.66 314.228 224.5 314.228C128.34 314.228 50.3867 318.779 50.3867 324.393C50.3867 330.008 128.34 334.559 224.5 334.559Z" fill="#F5F5F5"/>
<path d="M125.266 109.369L123.459 124.365L124.351 124.472L126.157 109.476L125.266 109.369Z" fill="#407BFF"/>
<path d="M122.795 129.877L122.121 135.467L123.012 135.575L123.687 129.985L122.795 129.877Z" fill="#407BFF"/>
<path d="M291.688 262.117L123.34 241.805C120.494 241.452 117.904 239.988 116.134 237.731C114.364 235.475 113.558 232.61 113.893 229.762L135.364 51.8597C135.717 49.0139 137.182 46.4232 139.438 44.6532C141.694 42.8833 144.559 42.0778 147.407 42.4127L315.755 62.7344C318.602 63.0849 321.194 64.5487 322.964 66.8054C324.734 69.0622 325.539 71.9282 325.202 74.7766L303.73 252.67C303.38 255.517 301.916 258.109 299.66 259.88C297.403 261.65 294.537 262.455 291.688 262.117Z" fill="#407BFF"/>
<path opacity="0.3" d="M171.831 67.5902C175.989 62.5786 175.296 55.1453 170.285 50.9875C165.273 46.8296 157.84 47.5218 153.682 52.5335C149.524 57.5452 150.216 64.9785 155.228 69.1363C160.24 73.2941 167.673 72.6019 171.831 67.5902Z" fill="black"/>
<path opacity="0.3" d="M296.654 88.0129C303.166 88.0129 308.445 82.734 308.445 76.2221C308.445 69.7103 303.166 64.4314 296.654 64.4314C290.142 64.4314 284.864 69.7103 284.864 76.2221C284.864 82.734 290.142 88.0129 296.654 88.0129Z" fill="black"/>
<path d="M317.547 106.23L299.933 252.219C299.711 254.058 298.767 255.734 297.309 256.878C295.852 258.022 293.999 258.54 292.16 258.318L123.811 238.005C121.972 237.783 120.296 236.839 119.152 235.382C118.008 233.924 117.49 232.072 117.712 230.232L135.327 84.2434L317.547 106.23Z" fill="white"/>
<path d="M162.448 62.6266C160.402 62.3749 158.538 61.3227 157.266 59.7003C155.994 58.0778 155.416 56.0173 155.659 53.9698L157.779 36.396C158.039 34.3554 159.095 32.5002 160.716 31.2339C162.337 29.9676 164.392 29.3926 166.435 29.634C168.481 29.8879 170.343 30.9407 171.615 32.5626C172.887 34.1845 173.465 36.2437 173.224 38.2908L171.105 55.8556C170.844 57.8968 169.789 59.7528 168.168 61.0206C166.548 62.2883 164.492 62.8654 162.448 62.6266Z" fill="#263238"/>
<path d="M296.34 78.7816C294.295 78.5277 292.433 77.4749 291.161 75.853C289.889 74.2311 289.31 72.1719 289.551 70.1248L291.67 52.56C291.924 50.5145 292.977 48.6526 294.599 47.3806C296.221 46.1087 298.28 45.5301 300.327 45.7711C302.374 46.0227 304.237 47.0749 305.509 48.6974C306.782 50.3199 307.359 52.3804 307.116 54.4278L304.997 71.9927C304.743 74.0382 303.69 75.9001 302.068 77.172C300.446 78.444 298.387 79.0226 296.34 78.7816Z" fill="#263238"/>
<path d="M205.561 229.241C197.923 229.252 190.319 228.206 182.967 226.134C173.466 223.44 166.561 219.48 161.873 214.002C150.145 200.29 152.094 174.796 158.865 156.898C165.851 138.427 179.6 124.283 196.662 118.096C209.44 113.453 224.06 112.358 240.116 114.836C257.429 117.53 271.384 123.699 281.595 133.245C281.791 133.429 281.949 133.65 282.06 133.895C282.171 134.14 282.233 134.405 282.242 134.674C282.25 134.942 282.206 135.211 282.111 135.462C282.016 135.714 281.873 135.945 281.689 136.141C281.505 136.337 281.284 136.496 281.039 136.607C280.794 136.718 280.529 136.779 280.26 136.788C279.992 136.797 279.724 136.753 279.472 136.658C279.22 136.563 278.989 136.419 278.793 136.235C269.202 127.255 255.975 121.427 239.487 118.886C224.123 116.515 210.186 117.539 198.063 121.939C182.15 127.722 169.264 140.986 162.69 158.353C157.383 172.371 153.612 198.054 164.98 211.335C169.129 216.184 175.379 219.731 184.081 222.192C198.792 226.261 214.351 226.111 228.981 221.761C243.681 217.469 257.564 209.189 266.104 199.589C272.39 192.576 275.865 184.18 275.982 175.963C276.099 168.321 272.229 159.736 265.898 153.567C260.51 148.314 254.224 145.557 248.216 145.808C247.947 145.819 247.679 145.777 247.426 145.685C247.173 145.592 246.941 145.451 246.743 145.269C246.343 144.901 246.106 144.389 246.083 143.846C246.061 143.303 246.255 142.773 246.623 142.373C246.991 141.973 247.502 141.736 248.045 141.713C255.229 141.426 262.548 144.587 268.753 150.63C275.937 157.671 280.203 167.163 280.077 176.017C279.942 185.221 276.063 194.561 269.157 202.31C260.123 212.458 245.54 221.168 230.13 225.658C222.151 228.01 213.879 229.216 205.561 229.241Z" fill="#407BFF"/>
<mask id="mask0_186_661" style="mask-type:luminance" maskUnits="userSpaceOnUse" x="113" y="42" width="213" height="221">
<path d="M291.688 262.117L123.34 241.805C120.494 241.452 117.904 239.988 116.134 237.731C114.364 235.475 113.558 232.61 113.893 229.762L135.364 51.8597C135.717 49.0139 137.182 46.4232 139.438 44.6532C141.694 42.8833 144.559 42.0778 147.407 42.4127L315.755 62.7344C318.602 63.0849 321.194 64.5487 322.964 66.8054C324.734 69.0622 325.539 71.9282 325.202 74.7766L303.73 252.67C303.38 255.517 301.916 258.109 299.66 259.88C297.403 261.65 294.537 262.455 291.688 262.117Z" fill="white"/>
</mask>
<g mask="url(#mask0_186_661)">
<path opacity="0.1" d="M289.336 94.5506L284.765 90.5635L281.254 95.4037L281.514 102.516L277.329 105.964C275.659 107.365 273.998 108.757 272.318 110.131C270.639 111.505 268.987 112.888 267.317 114.217C266.481 114.899 265.646 115.546 264.811 116.183C263.976 116.821 263.132 117.423 262.396 117.899L261.857 118.222L261.192 118.563C260.743 118.779 260.294 119.03 259.845 119.228C258.947 119.65 257.986 120.072 257.025 120.458C255.113 121.221 253.155 121.94 251.162 122.586C249.482 123.143 247.785 123.637 246.07 124.113L245.809 119.506C242.566 120.254 239.413 121.353 236.407 122.784C235.68 122.64 234.917 122.505 234.126 122.38C233.958 122.193 233.729 122.072 233.48 122.038C233.094 121.984 232.735 121.949 232.483 121.931C232.286 121.918 232.09 121.961 231.917 122.056L230.912 121.94C230.129 120.986 229.631 119.831 229.475 118.608C231.599 119.55 233.927 119.938 236.241 119.737C238.556 119.536 240.782 118.752 242.711 117.459C244.258 117.173 245.697 116.473 246.876 115.432C248.054 114.391 248.927 113.049 249.401 111.55C249.941 110.006 250.153 108.367 250.023 106.738C249.893 105.108 249.425 103.523 248.647 102.085C249.728 100.216 250.291 98.0923 250.278 95.9332C250.264 93.7741 249.674 91.6578 248.57 89.8026C247.465 87.9475 245.885 86.4207 243.994 85.38C242.102 84.3393 239.967 83.8223 237.808 83.8824C237.3 83.8933 236.792 83.9413 236.291 84.026C234.851 82.2498 232.806 81.0683 230.549 80.7086C228.291 80.3489 225.98 80.8364 224.06 82.0774C224.159 81.9606 224.24 81.8529 224.338 81.7451C226.134 79.7695 228.981 78.8625 232.277 79.2038C232.305 79.2062 232.333 79.2031 232.361 79.1945C232.388 79.1858 232.413 79.172 232.434 79.1536C232.456 79.1352 232.474 79.1127 232.487 79.0875C232.5 79.0622 232.508 79.0345 232.51 79.0062C232.513 78.9779 232.509 78.9494 232.501 78.9223C232.492 78.8952 232.478 78.8701 232.46 78.8484C232.442 78.8267 232.419 78.8088 232.394 78.7958C232.368 78.7828 232.341 78.775 232.313 78.7727C228.882 78.4225 225.937 79.3744 224.015 81.4667C223.675 81.8584 223.374 82.2825 223.117 82.7329C222.893 82.7329 222.668 82.7329 222.435 82.7329C219.065 82.8246 215.87 84.2505 213.551 86.6972C211.232 89.1439 209.98 92.4112 210.069 95.7809C210.109 97.3241 210.435 98.8465 211.03 100.271C209.906 102.035 209.34 104.098 209.405 106.189C209.441 107.576 209.75 108.942 210.314 110.209C210.878 111.477 211.687 112.621 212.693 113.576C213.7 114.531 214.885 115.278 216.18 115.774C217.476 116.271 218.856 116.508 220.243 116.471C220.957 116.45 221.667 116.36 222.363 116.201C222.318 118.509 221.339 120.512 217.936 121.14L218.025 120.826L216.229 120.027C216.138 120.09 216.051 120.159 215.969 120.233C213.689 117.417 211.092 114.874 208.228 112.654L207.384 114.226C205.668 110.463 204.187 106.597 202.948 102.651C202.795 102.157 202.607 101.528 202.58 101.375C202.553 101.223 202.58 101.061 202.508 100.899V100.334C202.525 99.4261 202.639 98.5228 202.849 97.6397C203.337 95.6115 203.988 93.6264 204.798 91.7039C205.597 89.7014 206.504 87.6989 207.492 85.7322C208.48 83.7656 209.431 81.9247 210.437 80.0838C210.819 79.9512 211.184 79.7733 211.524 79.554L216.418 76.2763L218.869 71.5798L213.481 68.8049L209.557 73.9684C209.557 73.9684 207.043 76.2763 206.863 78.7638C204.208 82.0807 201.844 85.6199 199.796 89.3422C198.627 91.4769 197.662 93.7168 196.913 96.0323C196.498 97.3188 196.224 98.6467 196.096 99.9925C196.096 100.37 196.096 100.738 196.096 101.124C196.102 101.526 196.129 101.928 196.177 102.327C196.278 103.005 196.416 103.676 196.59 104.339C197.676 108.887 199.142 113.336 200.972 117.638C201.619 119.183 202.292 120.691 202.993 122.191L200.119 127.579C200.119 127.579 202.113 134.619 204.439 138.104C204.618 144.03 205.139 152.166 206.235 163.346H206.145C205.857 163.346 205.624 163.463 205.633 163.643L205.732 166.238C205.732 166.409 205.947 166.543 206.208 166.561C205.139 173.664 200.011 208.588 199.212 228.011C198.431 247.184 215.322 276.279 220.423 284.585L219.274 285.115L221.429 288.114L223.476 287.261L227.418 294.176L226.7 294.751C226.591 294.839 226.494 294.942 226.413 295.056C225.865 294.541 225.172 294.206 224.428 294.095C224.262 294.089 224.096 294.118 223.941 294.18C223.786 294.242 223.646 294.335 223.53 294.454C223.189 294.778 223.234 295.047 223.333 295.218C223.557 295.622 224.392 295.837 225.236 295.918C224.266 296.205 223.189 296.636 222.973 297.148C222.933 297.233 222.916 297.327 222.926 297.421C222.935 297.514 222.97 297.603 223.027 297.678C223.106 297.807 223.215 297.916 223.345 297.994C223.475 298.072 223.621 298.118 223.773 298.127C224.382 298.073 224.956 297.814 225.398 297.391L225.667 297.157C224.267 300.533 222.33 303.66 219.929 306.416C219.121 307.404 221.141 309.568 223.422 307.745C225.703 305.922 230.472 301.818 232.16 300.462C234.908 298.271 236.057 297.552 238.266 295.855C238.392 295.755 238.495 295.629 238.569 295.485C238.643 295.342 238.686 295.185 238.696 295.024C238.705 294.863 238.68 294.702 238.623 294.551C238.566 294.401 238.478 294.264 238.365 294.149L233.695 289.776C233.608 289.696 233.497 289.645 233.379 289.632C233.262 289.619 233.143 289.645 233.04 289.704L230.705 285.645L230.05 284.513L231.846 283.759L230.768 279.826L229.619 280.356C226.925 272.103 214.981 235.986 216.822 226.117C216.912 225.632 217.011 225.138 217.1 224.644C217.819 220.782 218.582 216.634 219.354 212.404C220.24 216.783 221.441 221.093 222.946 225.299C225.811 233.022 259.468 247.417 268.403 251.126L267.55 252.626L271.295 253.416L272.193 251.898L278.479 254.592L278.209 255.284C278.159 255.41 278.125 255.543 278.111 255.679C277.326 255.593 276.534 255.727 275.821 256.065C275.514 256.238 275.288 256.525 275.192 256.864C275.066 257.313 275.246 257.493 275.426 257.573C276.163 257.639 276.899 257.445 277.509 257.026C276.79 257.798 276.045 258.75 276.126 259.271C276.139 259.359 276.177 259.442 276.236 259.509C276.295 259.576 276.372 259.624 276.458 259.648C276.605 259.699 276.761 259.719 276.916 259.705C277.071 259.691 277.221 259.644 277.356 259.567C277.863 259.197 278.237 258.675 278.425 258.076C278.47 257.969 278.506 257.852 278.542 257.744C279.053 260.043 279.053 263.617 278.317 268.179C278.12 269.409 281.083 269.93 282.161 267.218C283.238 264.506 285.339 258.606 286.139 256.595C287.432 253.326 288.087 252.105 289.165 249.536C289.225 249.393 289.25 249.238 289.239 249.083C289.228 248.928 289.181 248.778 289.101 248.644C289.022 248.511 288.912 248.398 288.782 248.314C288.651 248.23 288.502 248.179 288.348 248.162L281.828 247.435C281.684 247.422 281.539 247.454 281.415 247.529C281.291 247.603 281.193 247.715 281.137 247.848L281.056 248.055L277.096 246.348L275.892 245.828L277.15 243.798L273.989 241.185L273.477 242.083C266.374 236.695 248.791 223.907 242.613 219.588C240.817 218.358 239.344 216.84 239.092 214.712C236.74 194.678 235.725 173.691 235.5 168.357H235.806C236.138 168.357 236.389 168.187 236.3 167.98L235.725 165.349C235.677 165.271 235.609 165.208 235.529 165.165C235.448 165.123 235.358 165.102 235.267 165.106C235.359 157.69 236.265 150.306 237.97 143.087C241.105 141.767 244.111 140.158 246.95 138.283L246.573 131.611L247.139 131.458C249.294 130.839 251.431 130.129 253.568 129.375C255.705 128.621 257.798 127.75 259.854 126.78L261.417 126.034L262.952 125.217C263.473 124.957 263.976 124.625 264.479 124.319L265.242 123.87L266.077 123.296C267.041 122.593 267.967 121.841 268.852 121.042C269.696 120.287 270.531 119.533 271.331 118.77C272.956 117.243 274.51 115.681 276.045 114.1C277.581 112.52 279.071 110.921 280.535 109.314C281.999 107.706 283.481 106.063 284.899 104.375C285.967 103.082 286.682 101.536 286.974 99.8847L289.336 94.5506ZM223.602 295.056C223.602 295.056 223.521 294.912 223.746 294.688L223.817 294.625C223.986 294.494 224.196 294.427 224.41 294.436C225.086 294.547 225.712 294.86 226.206 295.334C226.162 295.425 226.123 295.518 226.089 295.613C225.129 295.649 223.835 295.442 223.602 295.056ZM223.782 297.795C223.68 297.789 223.582 297.758 223.496 297.705C223.41 297.651 223.338 297.577 223.288 297.49C223.27 297.458 223.261 297.422 223.261 297.386C223.261 297.35 223.27 297.315 223.288 297.283C223.339 297.186 223.409 297.101 223.494 297.032C224.271 296.571 225.117 296.241 226 296.053C226 296.196 225.928 296.349 225.883 296.502C225.021 297.346 224.275 297.822 223.799 297.795H223.782ZM275.686 257.313C275.686 257.313 275.542 257.241 275.623 256.954V256.855C275.71 256.651 275.861 256.48 276.054 256.37C276.714 256.068 277.444 255.953 278.164 256.038C278.155 256.13 278.155 256.224 278.164 256.316C277.329 256.918 276.054 257.484 275.686 257.313ZM277.302 259.334C277.208 259.378 277.106 259.401 277.002 259.401C276.897 259.401 276.795 259.378 276.701 259.334C276.665 259.326 276.632 259.307 276.608 259.28C276.584 259.252 276.569 259.217 276.566 259.181C276.561 259.076 276.579 258.972 276.62 258.876C277.083 258.062 277.667 257.323 278.353 256.684L278.488 257.107C278.357 257.968 277.928 258.756 277.275 259.334H277.302ZM249.015 111.406C248.615 112.67 247.917 113.82 246.979 114.758C246.041 115.695 244.892 116.394 243.627 116.794C245.324 115.46 246.685 113.748 247.602 111.794C248.519 109.841 248.966 107.699 248.908 105.542C248.883 104.669 248.775 103.8 248.584 102.947C249.801 105.61 249.945 108.639 248.988 111.406H249.015Z" fill="black"/>
</g>
<path d="M193.492 121.796C191.204 117.564 189.194 113.187 187.475 108.694C185.693 104.188 184.29 99.5413 183.282 94.8018C183.118 94.1123 182.995 93.4136 182.914 92.7094C182.873 92.2946 182.855 91.8779 182.86 91.4612C182.86 91.0661 182.905 90.6889 182.932 90.3028C183.083 88.9184 183.384 87.5544 183.83 86.2348C184.671 83.8632 185.732 81.5753 187 79.4011C189.427 75.2576 192.234 71.3494 195.387 67.7271L198.377 69.9451C197.246 71.8938 196.105 73.9143 195.055 75.9258C194.004 77.9373 193.07 79.9219 192.172 81.9783C191.287 83.9395 190.563 85.9697 190.008 88.0488C189.764 88.9587 189.616 89.8918 189.568 90.8326V91.4163C189.568 91.5779 189.568 91.7665 189.631 91.9102C189.694 92.0539 189.828 92.7184 189.972 93.2392C191.174 97.5688 192.647 101.819 194.381 105.964C195.279 108.047 196.177 110.113 197.138 112.178C198.099 114.243 199.114 116.3 200.092 118.231L193.492 121.796Z" fill="#FFB573"/>
<path d="M205.777 119.245C206.307 112.645 195.001 103.665 195.001 103.665L186.29 118.886C186.29 118.886 188.526 127.696 191.13 130.821C193.735 133.946 205.409 123.789 205.777 119.245Z" fill="#407BFF"/>
<g opacity="0.4">
<path d="M205.777 119.245C206.307 112.645 195.001 103.665 195.001 103.665L186.29 118.886C186.29 118.886 188.526 127.696 191.13 130.821C193.735 133.946 205.409 123.789 205.777 119.245Z" fill="white"/>
</g>
<path d="M199.437 69.613L204.582 66.3712L197.56 63.7581C197.56 63.7581 193.968 66.8562 194.677 69.8375L195.369 70.071C196.038 70.3028 196.751 70.3819 197.455 70.3027C198.158 70.2234 198.836 69.9878 199.437 69.613Z" fill="#FFB573"/>
<path d="M207.24 61.5936L201.745 58.5674L197.56 63.7937L204.582 66.371L207.24 61.5936Z" fill="#FFB573"/>
<path d="M217.495 290.225L210.599 292.892L203.199 279.035L209.387 275.21L217.495 290.225Z" fill="#FFB573"/>
<path d="M209.234 292.236L215.816 287.252C215.928 287.164 216.069 287.12 216.211 287.128C216.353 287.136 216.487 287.196 216.588 287.297L221.285 291.94C221.399 292.06 221.486 292.204 221.541 292.361C221.595 292.517 221.616 292.684 221.602 292.849C221.587 293.015 221.538 293.175 221.457 293.32C221.376 293.465 221.265 293.592 221.132 293.691C218.807 295.388 217.603 296.097 214.712 298.288C212.916 299.635 207.95 303.676 205.489 305.562C203.029 307.448 201.053 305.095 201.897 304.099C205.741 299.609 207.95 295.81 208.506 293.323C208.62 292.889 208.876 292.506 209.234 292.236Z" fill="#263238"/>
<g opacity="0.2">
<path d="M203.199 279.035L206.809 285.797L213.571 282.951L209.396 275.21L203.199 279.035Z" fill="black"/>
</g>
<path d="M237.139 99.777C238.408 91.959 233.099 84.5925 225.281 83.3234C217.463 82.0544 210.097 87.3634 208.828 95.1814C207.559 102.999 212.868 110.366 220.686 111.635C228.504 112.904 235.87 107.595 237.139 99.777Z" fill="#263238"/>
<path d="M230.409 109.646C230.349 109.646 230.292 109.622 230.25 109.58C230.208 109.538 230.184 109.481 230.184 109.421C230.184 109.362 230.208 109.305 230.25 109.263C230.292 109.22 230.349 109.197 230.409 109.197C231.962 108.98 233.426 108.337 234.635 107.338C235.845 106.339 236.754 105.024 237.26 103.539C238.625 99.9474 238.158 95.5652 236.066 93.0687C236.025 93.0268 236.002 92.9704 236.002 92.9116C236.002 92.8528 236.025 92.7964 236.066 92.7544C236.11 92.7127 236.168 92.6895 236.228 92.6895C236.288 92.6895 236.346 92.7127 236.389 92.7544C238.545 95.3676 239.083 99.9384 237.656 103.674C237.117 105.228 236.162 106.604 234.896 107.652C233.629 108.7 232.099 109.381 230.472 109.619L230.409 109.646Z" fill="#263238"/>
<path d="M192.226 113.48C192.226 113.48 188.634 114.378 191.786 157.994L221.528 160.643C222.102 148.493 222.668 141.013 230.669 116.686C226.612 115.459 222.47 114.532 218.277 113.911C213.821 113.193 209.32 112.791 204.807 112.708C198.925 112.726 192.226 113.48 192.226 113.48Z" fill="#407BFF"/>
<g opacity="0.4">
<path d="M192.226 113.48C192.226 113.48 188.634 114.378 191.786 157.994L221.528 160.643C222.102 148.493 222.668 141.013 230.669 116.686C226.612 115.459 222.47 114.532 218.277 113.911C213.821 113.193 209.32 112.791 204.807 112.708C198.925 112.726 192.226 113.48 192.226 113.48Z" fill="white"/>
</g>
<path d="M226.44 99.9026C233.368 99.9026 238.985 94.286 238.985 87.3576C238.985 80.4291 233.368 74.8125 226.44 74.8125C219.511 74.8125 213.895 80.4291 213.895 87.3576C213.895 94.286 219.511 99.9026 226.44 99.9026Z" fill="#263238"/>
<path d="M217.262 90.4107C222.574 90.4107 226.88 86.1048 226.88 80.7931C226.88 75.4815 222.574 71.1755 217.262 71.1755C211.95 71.1755 207.644 75.4815 207.644 80.7931C207.644 86.1048 211.95 90.4107 217.262 90.4107Z" fill="#263238"/>
<path d="M210.302 79.2124C210.247 79.2128 210.194 79.1929 210.153 79.1564C210.111 79.12 210.085 79.0696 210.078 79.0148C209.862 77.7441 209.948 76.4405 210.327 75.2086C210.705 73.9766 211.368 72.8506 212.26 71.9206C214.299 69.8283 217.37 68.9213 220.908 69.3793C220.937 69.3826 220.966 69.3918 220.992 69.4063C221.018 69.4208 221.041 69.4403 221.059 69.4637C221.078 69.4871 221.091 69.5139 221.099 69.5426C221.107 69.5713 221.109 69.6012 221.105 69.6307C221.097 69.6895 221.066 69.7426 221.019 69.7793C220.972 69.816 220.913 69.8335 220.854 69.8283C217.46 69.3883 214.523 70.2414 212.583 72.2349C211.74 73.1163 211.113 74.1825 210.755 75.3488C210.396 76.515 210.315 77.7489 210.518 78.952C210.526 79.0102 210.51 79.0692 210.475 79.1162C210.44 79.1632 210.388 79.1945 210.329 79.2034L210.302 79.2124Z" fill="#263238"/>
<path d="M207.366 107.94C213.392 107.94 218.277 103.055 218.277 97.0289C218.277 91.0031 213.392 86.1182 207.366 86.1182C201.34 86.1182 196.455 91.0031 196.455 97.0289C196.455 103.055 201.34 107.94 207.366 107.94Z" fill="#263238"/>
<path d="M210.563 99.4177C217.814 99.4177 223.692 93.5397 223.692 86.2889C223.692 79.0381 217.814 73.1602 210.563 73.1602C203.312 73.1602 197.434 79.0381 197.434 86.2889C197.434 93.5397 203.312 99.4177 210.563 99.4177Z" fill="#263238"/>
<path d="M218.295 98.5913C217.056 102.857 215.493 110.741 218.295 113.911C218.295 113.911 216.714 118.213 208.641 117.503C199.76 116.713 204.789 112.717 204.789 112.717C209.737 111.989 209.934 108.388 209.387 104.94L218.295 98.5913Z" fill="#FFB573"/>
<path opacity="0.2" d="M214.622 101.178L209.342 104.922C209.481 105.726 209.55 106.54 209.548 107.356C211.416 107.257 214.146 105.452 214.514 103.53C214.69 102.759 214.726 101.962 214.622 101.178Z" fill="black"/>
<path d="M225.003 94.4066C221.285 100.693 219.839 103.387 214.864 105.066C207.375 107.544 200.496 101.6 202.247 94.3437C203.846 87.8063 209.665 78.6377 217.325 79.3112C219.016 79.4507 220.644 80.0206 222.053 80.9667C223.463 81.9128 224.606 83.2037 225.376 84.7166C226.145 86.2295 226.515 87.914 226.45 89.6101C226.384 91.3062 225.886 92.9573 225.003 94.4066Z" fill="#FFB573"/>
<path d="M225.919 100.046C229.921 100.046 233.166 95.3983 233.166 89.6651C233.166 83.9319 229.921 79.2842 225.919 79.2842C221.916 79.2842 218.672 83.9319 218.672 89.6651C218.672 95.3983 221.916 100.046 225.919 100.046Z" fill="#263238"/>
<path d="M218.286 73.7076C223.44 74.7133 227.167 77.8833 226.601 80.7928C226.036 83.7023 221.402 85.2828 216.238 84.2591C211.075 83.2354 207.357 80.0834 207.923 77.1739C208.489 74.2643 213.122 72.7377 218.286 73.7076Z" fill="#263238"/>
<path d="M191.786 157.994C191.786 157.994 184.153 200.2 182.644 222.57C181.073 245.846 204.412 283.975 204.412 283.975L213.113 279.215C213.293 279.35 198.413 232.591 200.882 221.097C206.127 196.671 213.562 159.934 213.562 159.934L191.786 157.994Z" fill="#263238"/>
<path d="M214.802 281.029L203.927 285.25L201.781 282.089L213.805 276.943L214.802 281.029Z" fill="#407BFF"/>
<path opacity="0.2" d="M204.564 174.463C207.698 170.117 209.647 170.485 210.796 173.521C208.237 186.021 204.367 204.816 201.206 219.606C198.844 208.264 194.866 187.835 204.564 174.463Z" fill="black"/>
<path d="M270.199 247.184L266.113 253.299L250.461 246.07L254.556 239.955L270.199 247.184Z" fill="#FFB573"/>
<path d="M263.518 252.94L266.769 245.343C266.827 245.205 266.929 245.091 267.059 245.018C267.189 244.945 267.34 244.917 267.487 244.939L274.195 245.837C274.356 245.856 274.509 245.912 274.644 246.002C274.778 246.092 274.889 246.213 274.968 246.354C275.047 246.495 275.091 246.652 275.097 246.814C275.103 246.975 275.071 247.136 275.004 247.282C273.818 249.913 273.109 251.144 271.681 254.466C270.783 256.523 268.502 262.485 267.29 265.323C266.077 268.161 263.051 267.478 263.285 266.221C264.353 260.582 264.29 256.343 263.473 254.143C263.338 253.75 263.354 253.321 263.518 252.94Z" fill="#263238"/>
<g opacity="0.2">
<path d="M250.47 246.07L258.534 249.797L262.629 243.682L254.565 239.955L250.47 246.07Z" fill="black"/>
</g>
<path d="M200.011 158.73C200.011 158.73 199.877 198.979 207.195 220.441C210.356 229.726 255.642 249.33 255.642 249.33L262.054 241.733C262.692 241.858 235.77 221.034 227.751 215.107C225.955 213.787 224.455 212.17 224.248 209.97C222.075 185.958 221.779 160.67 221.779 160.67L200.011 158.73Z" fill="#263238"/>
<path d="M262.755 241.05L256.352 250.802L252.509 249.877L259.567 238.257L262.755 241.05Z" fill="#407BFF"/>
<path d="M263.68 255.822C263.472 256.437 263.072 256.969 262.539 257.34C262.395 257.419 262.234 257.465 262.069 257.475C261.905 257.484 261.74 257.456 261.587 257.394C261.5 257.366 261.423 257.314 261.364 257.244C261.306 257.174 261.268 257.089 261.255 256.998C261.129 256.038 263.743 253.748 264.039 253.496C264.069 253.475 264.105 253.464 264.142 253.464C264.179 253.464 264.215 253.475 264.245 253.496C264.276 253.51 264.301 253.533 264.318 253.562C264.334 253.591 264.34 253.625 264.335 253.658C264.183 254.398 263.964 255.122 263.68 255.822ZM261.686 256.612C261.635 256.709 261.613 256.818 261.623 256.927C261.626 256.964 261.64 257 261.665 257.029C261.689 257.058 261.721 257.079 261.758 257.088C261.855 257.135 261.96 257.16 262.068 257.16C262.175 257.16 262.281 257.135 262.378 257.088C262.943 256.792 263.482 255.696 263.868 254.125C263.017 254.837 262.281 255.676 261.686 256.612Z" fill="#407BFF"/>
<path d="M264.326 253.658L264.281 253.721C263.554 254.412 261.327 255.58 260.573 255.221C260.393 255.14 260.213 254.942 260.357 254.484C260.472 254.142 260.713 253.856 261.031 253.685C262.135 253.047 264.129 253.434 264.21 253.443C264.239 253.449 264.266 253.464 264.288 253.484C264.31 253.505 264.326 253.531 264.335 253.559C264.341 253.592 264.338 253.627 264.326 253.658ZM260.734 254.448C260.732 254.481 260.732 254.514 260.734 254.547C260.636 254.852 260.734 254.906 260.788 254.924C261.246 255.131 262.916 254.395 263.796 253.721C262.935 253.557 262.044 253.641 261.228 253.963C261.014 254.062 260.842 254.234 260.743 254.448H260.734Z" fill="#407BFF"/>
<path d="M214.236 91.533C213.966 92.0628 213.472 92.3502 213.122 92.1706C212.772 91.991 212.718 91.4253 212.988 90.8955C213.257 90.3656 213.76 90.0783 214.101 90.2579C214.442 90.4375 214.514 91.0032 214.236 91.533Z" fill="#263238"/>
<path d="M208.273 88.48C208.004 89.0009 207.501 89.2882 207.159 89.1086C206.818 88.929 206.755 88.3633 207.025 87.8335C207.294 87.3037 207.797 87.0253 208.138 87.2049C208.48 87.3845 208.542 87.9502 208.273 88.48Z" fill="#263238"/>
<path d="M208.273 87.3123L207.195 86.2886C207.195 86.2886 207.339 87.6176 208.273 87.3123Z" fill="#263238"/>
<path d="M209.171 89.6653C208.09 90.6269 206.882 91.4338 205.579 92.0629C205.747 92.3944 205.987 92.6846 206.28 92.9128C206.573 93.141 206.914 93.3016 207.276 93.383L209.171 89.6653Z" fill="#ED893E"/>
<path d="M209.081 96.9301C208.805 96.8323 208.536 96.7183 208.273 96.5888C208.234 96.5662 208.205 96.5295 208.191 96.4862C208.178 96.4429 208.182 96.3962 208.201 96.3554C208.222 96.3146 208.259 96.2835 208.302 96.2684C208.345 96.2534 208.393 96.2556 208.435 96.2745C209.083 96.6279 209.806 96.8226 210.545 96.8429C211.283 96.8632 212.015 96.7084 212.682 96.3913C212.722 96.3687 212.768 96.3626 212.812 96.3744C212.856 96.3861 212.893 96.4148 212.916 96.4541C212.938 96.4934 212.945 96.5401 212.933 96.5839C212.921 96.6277 212.892 96.665 212.853 96.6876C212.272 96.977 211.639 97.1475 210.992 97.1891C210.344 97.2307 209.695 97.1427 209.081 96.9301Z" fill="#263238"/>
<path d="M223.71 101.25C222.664 102.193 221.291 102.689 219.884 102.632C218.016 102.534 217.675 100.711 218.699 99.2649C219.597 97.9628 221.689 96.4452 223.323 97.2534C223.676 97.4383 223.978 97.7082 224.2 98.0388C224.423 98.3694 224.56 98.7503 224.598 99.147C224.636 99.5437 224.575 99.9436 224.42 100.311C224.265 100.678 224.021 101 223.71 101.25Z" fill="#FFB573"/>
<path d="M216.804 90.8416C216.734 90.8189 216.672 90.7745 216.629 90.7148C216.585 90.6551 216.562 90.5832 216.562 90.5093C216.562 88.8929 214.891 87.6806 214.882 87.6627C214.844 87.6367 214.812 87.6034 214.788 87.5647C214.763 87.526 214.746 87.4827 214.739 87.4374C214.731 87.3921 214.733 87.3458 214.744 87.3012C214.754 87.2566 214.774 87.2146 214.801 87.1778C214.855 87.1033 214.937 87.0531 215.027 87.038C215.118 87.0228 215.211 87.044 215.286 87.0969C215.367 87.1598 217.271 88.5427 217.262 90.5093C217.262 90.6022 217.225 90.6913 217.159 90.757C217.094 90.8227 217.005 90.8596 216.912 90.8596L216.804 90.8416Z" fill="#263238"/>
<path d="M207.438 84.0977C207.365 84.0768 207.3 84.0326 207.254 83.9718C207.209 83.9111 207.184 83.837 207.184 83.7609C207.184 83.6848 207.209 83.6108 207.254 83.55C207.3 83.4893 207.365 83.4451 207.438 83.4242C207.975 83.2905 208.537 83.2893 209.075 83.4207C209.613 83.552 210.112 83.8121 210.527 84.1785C210.56 84.2096 210.587 84.2471 210.605 84.2888C210.623 84.3305 210.632 84.3755 210.632 84.421C210.632 84.4664 210.623 84.5114 210.605 84.5531C210.587 84.5948 210.56 84.6323 210.527 84.6634C210.495 84.6968 210.457 84.7234 210.414 84.7416C210.372 84.7598 210.326 84.7692 210.28 84.7692C210.234 84.7692 210.188 84.7598 210.146 84.7416C210.103 84.7234 210.065 84.6968 210.033 84.6634C209.699 84.3807 209.302 84.1819 208.876 84.0835C208.449 83.9851 208.006 83.99 207.582 84.0977C207.534 84.1065 207.485 84.1065 207.438 84.0977Z" fill="#263238"/>
<path d="M226.511 118.275C228.559 117.844 230.75 117.377 232.851 116.839C234.953 116.3 237.081 115.77 239.137 115.141C241.194 114.513 243.259 113.839 245.253 113.103C246.258 112.726 247.228 112.322 248.189 111.909C248.683 111.711 249.087 111.469 249.608 111.253L250.308 110.921L250.865 110.607C251.646 110.14 252.544 109.511 253.415 108.9C254.286 108.29 255.211 107.625 256.047 106.943C257.843 105.614 259.567 104.249 261.327 102.857C263.087 101.465 264.856 100.1 266.607 98.6901L271.932 94.5503L274.465 97.2443C272.956 98.9505 271.384 100.576 269.822 102.219C268.259 103.863 266.643 105.452 265.018 107.041C263.392 108.631 261.74 110.193 260.025 111.729C259.172 112.501 258.292 113.256 257.394 114.01C256.462 114.814 255.488 115.566 254.475 116.264L253.577 116.83L252.778 117.279C252.248 117.566 251.718 117.898 251.179 118.177L249.563 118.985L247.938 119.712C245.755 120.655 243.564 121.508 241.337 122.218C239.11 122.927 236.892 123.61 234.647 124.184C232.402 124.759 230.157 125.271 227.795 125.675L226.511 118.275Z" fill="#FFB573"/>
<path d="M222.417 136.954C230.499 133.82 234.315 131.234 234.315 131.234L233.722 111.81C233.722 111.81 224.5 113.525 219.112 117.8C215.771 120.431 219.112 138.238 222.417 136.954Z" fill="#407BFF"/>
<g opacity="0.4">
<path d="M222.417 136.954C230.499 133.82 234.315 131.234 234.315 131.234L233.722 111.81C233.722 111.81 224.5 113.525 219.112 117.8C215.771 120.431 219.112 138.238 222.417 136.954Z" fill="white"/>
</g>
<path d="M205.795 121.796C205.795 121.796 209.315 122.02 209.387 126.546C214.083 124.75 220.908 119.506 221.842 115.447C221.877 115.298 221.882 115.143 221.855 114.993C221.829 114.842 221.772 114.698 221.687 114.571C221.603 114.443 221.494 114.333 221.366 114.249C221.238 114.165 221.095 114.108 220.944 114.082C220.549 114.019 220.181 113.974 219.92 113.947C219.678 113.923 219.435 113.98 219.229 114.109L213.58 117.557L205.795 121.796Z" fill="white"/>
<path d="M203.568 116.74L204.96 112.376L203.092 111.478C200.721 112.789 197.704 122.254 201.17 125.657C203.074 121.167 205.795 121.769 205.795 121.769L203.568 116.74Z" fill="white"/>
<path d="M218.277 113.92C213.822 113.193 209.32 112.791 204.807 112.717H203.909C202.652 114.666 201.996 118.105 204.861 122.424C204.861 122.424 216.535 118.913 220.073 114.19C219.462 114.091 218.87 114.046 218.277 113.92Z" fill="#FFB573"/>
<path d="M207.77 294.93C207.303 295.356 206.704 295.609 206.073 295.649C205.916 295.637 205.763 295.587 205.63 295.503C205.497 295.418 205.387 295.301 205.31 295.164C205.264 295.08 205.24 294.985 205.24 294.89C205.24 294.794 205.264 294.7 205.31 294.616C205.732 293.673 208.974 293.098 209.333 293.035C209.37 293.03 209.407 293.036 209.441 293.052C209.474 293.068 209.502 293.093 209.521 293.125C209.543 293.153 209.555 293.188 209.555 293.224C209.555 293.26 209.543 293.294 209.521 293.323C208.989 293.912 208.403 294.451 207.77 294.93ZM205.804 294.508C205.708 294.57 205.63 294.657 205.579 294.76C205.559 294.792 205.549 294.829 205.549 294.867C205.549 294.905 205.559 294.943 205.579 294.975C205.629 295.065 205.7 295.142 205.786 295.198C205.872 295.255 205.97 295.289 206.073 295.298C206.675 295.352 207.68 294.679 208.812 293.502C207.758 293.677 206.74 294.029 205.804 294.544V294.508Z" fill="#407BFF"/>
<path d="M209.422 293.35C209.402 293.355 209.38 293.355 209.36 293.35C208.462 293.565 206.082 293.35 205.687 292.604C205.597 292.425 205.561 292.146 205.911 291.814C206.038 291.695 206.188 291.603 206.352 291.544C206.515 291.486 206.69 291.461 206.863 291.473C208.066 291.527 209.396 292.999 209.449 293.062C209.464 293.088 209.472 293.118 209.472 293.148C209.472 293.178 209.464 293.207 209.449 293.233C209.453 293.253 209.452 293.274 209.448 293.294C209.443 293.314 209.435 293.333 209.422 293.35ZM206.235 292.03L206.154 292.101C205.92 292.317 205.974 292.425 205.992 292.47C206.235 292.91 207.923 293.197 208.964 293.089C208.402 292.468 207.662 292.035 206.845 291.85C206.627 291.833 206.409 291.897 206.235 292.03Z" fill="#407BFF"/>
<path d="M214.245 90.3656L213.158 89.3508C213.158 89.3508 213.302 90.6978 214.245 90.3656Z" fill="#263238"/>
<path d="M222.129 158.946L222.65 161.64C222.74 161.855 222.47 162.044 222.129 162.017L191.516 159.323C191.247 159.323 191.04 159.144 191.04 158.982V156.288C191.04 156.108 191.283 155.974 191.579 156.001L221.698 158.695C221.785 158.699 221.869 158.724 221.945 158.767C222.02 158.811 222.083 158.872 222.129 158.946Z" fill="#FAFAFA"/>
<path d="M217.783 161.945L218.591 162.017C218.753 162.017 218.879 161.963 218.879 161.856L218.807 158.362C218.807 158.264 218.672 158.165 218.51 158.156L217.702 158.084C217.541 158.084 217.415 158.138 217.415 158.246L217.487 161.739C217.487 161.838 217.621 161.936 217.783 161.945Z" fill="#263238"/>
<path d="M193.761 159.844L194.57 159.916C194.731 159.916 194.857 159.853 194.857 159.754L194.785 156.261C194.785 156.153 194.651 156.063 194.489 156.045L193.681 155.974C193.519 155.974 193.393 156.036 193.393 156.135L193.465 159.628C193.465 159.691 193.6 159.79 193.761 159.844Z" fill="#263238"/>
<path d="M205.768 160.877L206.576 160.948C206.738 160.948 206.872 160.886 206.863 160.787L206.791 157.294C206.791 157.195 206.657 157.096 206.504 157.087L205.696 157.015C205.534 157.015 205.4 157.069 205.409 157.168L205.471 160.661C205.48 160.742 205.642 160.859 205.768 160.877Z" fill="#263238"/>
<path d="M271.061 95.8436L270.98 87.9053L276.746 92.6647C276.746 92.6647 275.848 97.2984 272.956 98.2233L271.061 95.8436Z" fill="#FFB573"/>
<path d="M274.743 82.9929L279.35 87.2405L276.746 92.6644L270.98 87.905L274.743 82.9929Z" fill="#FFB573"/>
</svg>
