<svg width="420" height="331" viewBox="0 0 420 331" fill="none" xmlns="http://www.w3.org/2000/svg">
<path d="M420 292.194H0V292.404H420V292.194Z" fill="#EBEBEB"/>
<path d="M199.08 254.73H36.8844C35.6138 254.728 34.396 254.222 33.4983 253.322C32.6006 252.423 32.0964 251.204 32.0964 249.934V21.9326C32.1075 20.6693 32.6166 19.4613 33.513 18.5711C34.4095 17.6809 35.6211 17.1804 36.8844 17.1782H199.08C200.352 17.1782 201.572 17.6836 202.472 18.5831C203.371 19.4826 203.876 20.7025 203.876 21.9746V249.934C203.876 251.206 203.371 252.426 202.472 253.325C201.572 254.225 200.352 254.73 199.08 254.73ZM36.8844 17.3462C35.6695 17.3484 34.5051 17.8326 33.6468 18.6925C32.7885 19.5524 32.3064 20.7177 32.3064 21.9326V249.934C32.3064 251.149 32.7885 252.314 33.6468 253.174C34.5051 254.034 35.6695 254.518 36.8844 254.52H199.08C200.296 254.518 201.461 254.034 202.321 253.174C203.18 252.315 203.664 251.15 203.666 249.934V21.9326C203.664 20.7169 203.18 19.5516 202.321 18.692C201.461 17.8324 200.296 17.3484 199.08 17.3462H36.8844Z" fill="#EBEBEB"/>
<path d="M380.78 254.73H218.576C217.305 254.728 216.086 254.222 215.187 253.323C214.288 252.424 213.782 251.205 213.78 249.934V21.9326C213.793 20.6685 214.304 19.4606 215.202 18.5706C216.1 17.6806 217.312 17.1804 218.576 17.1782H380.78C382.042 17.1826 383.252 17.6841 384.146 18.5741C385.041 19.464 385.549 20.6707 385.56 21.9326V249.934C385.56 251.203 385.057 252.42 384.161 253.319C383.265 254.218 382.05 254.726 380.78 254.73ZM218.576 17.3462C217.361 17.3484 216.195 17.8324 215.336 18.692C214.476 19.5516 213.992 20.7169 213.99 21.9326V249.934C213.992 251.15 214.476 252.315 215.336 253.174C216.195 254.034 217.361 254.518 218.576 254.52H380.78C381.996 254.518 383.161 254.034 384.021 253.174C384.881 252.315 385.365 251.15 385.367 249.934V21.9326C385.365 20.7169 384.881 19.5516 384.021 18.692C383.161 17.8324 381.996 17.3484 380.78 17.3462H218.576Z" fill="#EBEBEB"/>
<path d="M377.916 300.191H356.076V300.401H377.916V300.191Z" fill="#EBEBEB"/>
<path d="M299.065 297.914H253.621V298.124H299.065V297.914Z" fill="#EBEBEB"/>
<path d="M362.88 307.995H333.136V308.205H362.88V307.995Z" fill="#EBEBEB"/>
<path d="M63.966 306.583H44.0664V306.793H63.966V306.583Z" fill="#EBEBEB"/>
<path d="M93.1477 306.583H71.4421V306.793H93.1477V306.583Z" fill="#EBEBEB"/>
<path d="M222.718 303.039H176.887V303.249H222.718V303.039Z" fill="#EBEBEB"/>
<path d="M30.2316 292.194L358.201 292.194L358.201 34.3564L30.2316 34.3564L30.2316 292.194Z" fill="#FAFAFA"/>
<path d="M382.284 34.3477H366.694V292.186H382.284V34.3477Z" fill="#F5F5F5"/>
<path d="M366.694 39.5891H358.201V292.186H366.694V39.5891Z" fill="#F0F0F0"/>
<path d="M166.127 274.781H352.254V76.1714L166.127 76.1714L166.127 274.781Z" fill="#F5F5F5"/>
<path d="M346.374 268.893V82.043L172.007 82.043V268.893H346.374Z" fill="white"/>
<path d="M56.8679 274.781H151.931L151.931 76.1714H56.8679L56.8679 274.781Z" fill="#F5F5F5"/>
<path d="M146.059 268.893V82.043H62.7565L62.7565 268.893H146.059Z" fill="white"/>
<path d="M59.5392 178.416H149.276V172.536H59.5392V178.416Z" fill="#F5F5F5"/>
<path d="M45.7379 283.483H151.931V274.772H45.7379V283.483Z" fill="#E0E0E0"/>
<path d="M45.7379 292.194H151.931V283.484H45.7379V292.194Z" fill="#E0E0E0"/>
<path d="M33.8436 283.483H140.036V274.772H33.8436V283.483Z" fill="#F0F0F0"/>
<path d="M21.9324 292.194H128.125V283.484H21.9324V292.194Z" fill="#F0F0F0"/>
<path d="M59.5392 47.7876L256.847 47.7876V3.8147e-06L59.5392 3.8147e-06V47.7876Z" fill="#EBEBEB"/>
<path d="M186.228 0.00830078H215.166L242.164 47.7875H213.226L186.228 0.00830078Z" fill="#F5F5F5"/>
<path d="M166.614 0.00830078H181.079L208.076 47.7875H193.612L166.614 0.00830078Z" fill="#F5F5F5"/>
<path d="M78.1031 0.00830078H92.5763L119.574 47.7875H105.109L78.1031 0.00830078Z" fill="#F5F5F5"/>
<path d="M261.316 0.00830078H256.838V47.7959H261.316V0.00830078Z" fill="#E6E6E6"/>
<path d="M61.1688 169.781H71.3412C71.7708 169.768 72.1792 169.591 72.4823 169.287C72.7854 168.982 72.9603 168.573 72.9708 168.143C72.9708 167.711 72.7991 167.296 72.4935 166.991C72.1879 166.685 71.7734 166.513 71.3412 166.513H61.1688C60.7392 166.524 60.3299 166.699 60.0252 167.002C59.7205 167.305 59.5436 167.713 59.5308 168.143C59.5415 168.574 59.7175 168.985 60.0224 169.289C60.3273 169.594 60.7377 169.77 61.1688 169.781Z" fill="#F0F0F0"/>
<path d="M210 330.129C299.949 330.129 372.868 325.871 372.868 320.62C372.868 315.368 299.949 311.111 210 311.111C120.051 311.111 47.1324 315.368 47.1324 320.62C47.1324 325.871 120.051 330.129 210 330.129Z" fill="#F5F5F5"/>
<path d="M169.201 92.9629C182.356 93.5089 209.723 107.453 227.455 144.514C245.188 181.574 284.525 174.056 317.613 177.736C350.02 181.331 371.238 198.534 372.868 234.368C325.08 219.786 313.883 257.594 282.425 277.368C238.669 304.878 173.485 280.199 173.485 280.199C173.485 280.199 207.522 260.677 160.003 215.208C122.514 179.298 163.75 141.355 149.991 120.498C136.231 99.6409 169.201 92.9629 169.201 92.9629Z" fill="#407BFF"/>
<path opacity="0.2" d="M169.201 92.9629C182.356 93.5089 209.723 107.453 227.455 144.514C245.188 181.574 284.525 174.056 317.613 177.736C350.02 181.331 371.238 198.534 372.868 234.368C325.08 219.786 313.883 257.594 282.425 277.368C238.669 304.878 173.485 280.199 173.485 280.199C173.485 280.199 207.522 260.677 160.003 215.208C122.514 179.298 163.75 141.355 149.991 120.498C136.231 99.6409 169.201 92.9629 169.201 92.9629Z" fill="black"/>
<path d="M317.839 175.644C311.119 174.897 304.038 174.603 297.201 174.325V173.485C304.055 173.763 311.136 174.057 317.907 174.813L317.839 175.644ZM291.354 174.065C289.758 173.998 288.171 173.914 286.6 173.821L286.65 172.981C288.221 173.074 289.8 173.158 291.396 173.233L291.354 174.065Z" fill="#407BFF"/>
<path opacity="0.5" d="M169.201 92.9629C169.201 92.9629 200.096 110.326 211.159 139.348C229.488 187.429 247.85 216.09 293.807 208.303C339.763 200.517 361.847 199.693 372.868 234.343C371.238 198.509 350.02 181.306 317.612 177.711C284.525 174.031 245.179 181.541 227.455 144.489C209.731 107.436 182.356 93.4837 169.201 92.9377" fill="#407BFF"/>
<path d="M183.96 45.1333C184.8 43.9069 184.43 40.0177 181.675 37.2625C178.92 34.5073 174.56 36.1537 172.763 37.8673C172.032 35.6413 165.824 33.5833 161.003 36.6493C156.181 39.7153 159.6 43.7389 159.6 43.7389C159.6 43.7389 158.172 40.5889 154.753 42.7729C151.334 44.9569 150.965 54.3817 154.384 53.8609C161.944 52.7017 169.873 67.0573 169.873 67.0573C166.362 75.7261 174.485 71.6941 174.485 71.6941C174.485 71.6941 179.113 75.0541 182.515 71.6941C186.455 67.7293 183.91 63.8905 183.91 63.8905C183.91 63.8905 187.748 63.8905 190.184 58.2625C193.334 50.8705 189 42.3781 183.96 45.1333Z" fill="#263238"/>
<path d="M145.009 100.851C144.833 101.279 144.715 101.556 144.564 101.875C144.413 102.195 144.278 102.489 144.136 102.791C143.842 103.387 143.522 103.959 143.203 104.53C142.565 105.672 141.893 106.781 141.17 107.89C139.724 110.031 138.132 112.072 136.408 113.997C134.672 115.908 132.803 117.694 130.813 119.339C129.797 120.129 128.789 120.969 127.722 121.657L126.151 122.733L125.748 123.001L125.252 123.312C124.908 123.514 124.547 123.724 124.093 123.942C123.495 124.226 122.858 124.421 122.203 124.522C121.56 124.618 120.904 124.575 120.28 124.396C119.371 124.132 118.578 123.57 118.028 122.8C117.65 122.266 117.395 121.655 117.281 121.011C117.214 120.633 117.183 120.251 117.188 119.868C117.202 119.356 117.267 118.847 117.382 118.348C117.722 116.948 118.209 115.588 118.835 114.291C119.923 111.998 121.17 109.783 122.564 107.663C123.927 105.565 125.396 103.538 126.966 101.59C127.806 100.615 128.646 99.6745 129.57 98.7505C130.051 98.2717 130.555 97.8175 131.082 97.3897C131.719 96.8663 132.429 96.439 133.19 96.1213L134.795 99.7585C134.491 100.014 134.21 100.295 133.955 100.599C133.601 100.987 133.267 101.394 132.955 101.817C132.3 102.657 131.678 103.639 131.074 104.614C129.852 106.569 128.731 108.585 127.714 110.653C126.678 112.674 125.758 114.752 124.958 116.878C124.602 117.775 124.337 118.707 124.169 119.658C124.15 119.747 124.15 119.838 124.169 119.927C124.187 119.847 124.187 119.763 124.169 119.683C124.105 119.337 123.964 119.01 123.757 118.726C123.379 118.202 122.839 117.818 122.22 117.634C121.889 117.531 121.539 117.5 121.195 117.541C120.876 117.592 120.935 117.592 121.002 117.541C121.372 117.348 122.489 116.441 123.329 115.794C123.791 115.45 124.211 115.089 124.622 114.719L125.882 113.627C127.504 112.109 129.044 110.505 130.494 108.822C131.926 107.125 133.247 105.338 134.45 103.471C135.072 102.556 135.643 101.607 136.181 100.649C136.45 100.179 136.71 99.6913 136.954 99.2209C137.08 98.9773 137.206 98.7421 137.315 98.5153L137.609 97.9021L145.009 100.851Z" fill="#7F3E3B"/>
<path d="M131.998 107.31L139.558 114.349C139.558 114.349 149.024 108.847 151.318 105.395C153.611 101.943 155.24 99.8341 152.771 95.8861C150.301 91.9381 144.682 91.5013 139.574 95.0461C134.467 98.5909 135.568 99.5654 131.998 107.31Z" fill="#407BFF"/>
<path d="M134.938 105.025C133.694 104.353 132.544 104.706 131.435 105.697C130.326 106.689 129.461 107.545 130.931 108.663C133.302 110.779 135.522 113.058 137.575 115.483C138.054 116.214 141.28 114.534 141.775 113.417C142.271 112.3 136.584 105.907 134.938 105.025Z" fill="#407BFF"/>
<path opacity="0.3" d="M134.938 105.025C133.694 104.353 132.544 104.706 131.435 105.697C130.326 106.689 129.461 107.545 130.931 108.663C133.302 110.779 135.522 113.058 137.575 115.483C138.054 116.214 141.28 114.534 141.775 113.417C142.271 112.3 136.584 105.907 134.938 105.025Z" fill="white"/>
<path d="M134.996 103.748C135.29 110.527 136.458 121.96 139.591 141.246H171.452C170.974 129.738 170.419 122.052 174.636 101.858C174.868 100.754 174.865 99.6125 174.626 98.5091C174.388 97.4058 173.92 96.365 173.253 95.4545C172.586 94.5441 171.734 93.7843 170.754 93.2247C169.774 92.6651 168.687 92.3183 167.563 92.2067C166.295 92.0723 164.951 91.9715 163.565 91.9043C158.752 91.5596 153.921 91.5596 149.108 91.9043C147.546 92.0471 145.925 92.2403 144.388 92.4587C141.699 92.8363 139.247 94.2019 137.511 96.2892C135.775 98.3765 134.878 101.036 134.996 103.748Z" fill="#407BFF"/>
<path opacity="0.2" d="M146.16 104.42L141.019 108.923C141.288 114.038 150.511 115.013 155.492 114.803C160.474 114.593 166.169 113.123 169.092 110.317C172.015 107.512 172.015 104.908 171.083 100.464C170.15 96.0204 165.749 94.6512 162.128 97.4736C158.508 100.296 151.528 102.791 146.16 104.42Z" fill="black"/>
<path d="M162.12 75.6169C161.204 80.2705 160.297 88.7965 163.548 91.9045C159.632 93.0576 155.789 94.4461 152.04 96.0625C151.215 95.7042 150.504 95.1276 149.983 94.3949C149.462 93.6622 149.151 92.8011 149.083 91.9045C154.266 90.6613 154.123 86.8141 153.233 83.1937L162.12 75.6169Z" fill="#7F3E3B"/>
<path d="M152.04 96.0625C152.739 95.7686 153.369 95.3322 153.89 94.7811C154.41 94.2301 154.81 93.5765 155.064 92.8621L155.946 95.2225L152.04 96.0625Z" fill="#263238"/>
<path d="M155.089 92.862C155.329 94.2711 155.199 95.7184 154.711 97.062C157.769 97.0032 165.757 94.9704 166.127 91.8036C165.091 91.2443 164.109 90.5891 163.195 89.8464C160.675 91.2858 157.937 92.3044 155.089 92.862Z" fill="white"/>
<path d="M152.04 96.0624C151.724 95.5655 151.54 94.9963 151.504 94.4085C151.469 93.8206 151.584 93.2335 151.838 92.7024L148.646 94.5756L152.04 96.0624Z" fill="#263238"/>
<path d="M151.864 92.6855C151.864 92.6855 149.125 94.6847 149.94 97.0451C146.882 96.9863 144.9 94.5251 145.454 92.0975C146.194 91.3499 149.344 91.3751 149.344 91.3751C149.344 91.3751 149.108 91.9379 151.864 92.6855Z" fill="white"/>
<path opacity="0.2" d="M158.516 78.7083L153.258 83.1938C153.48 84.0192 153.629 84.8625 153.703 85.7138C155.686 85.4282 158.416 83.2527 158.626 81.1779C158.735 80.3546 158.698 79.5187 158.516 78.7083Z" fill="black"/>
<path d="M147.479 57.2546C145.202 59.9846 147.269 67.5026 150.746 62.9918C154.224 58.481 149.461 54.8774 147.479 57.2546Z" fill="#263238"/>
<path d="M167.042 67.0827C165.228 74.6427 164.615 77.8851 160.138 81.1443C153.418 86.0415 144.673 82.1775 144.236 74.2227C143.842 67.0659 146.874 55.8939 154.762 54.1467C162.523 52.4583 168.84 59.5059 167.042 67.0827Z" fill="#7F3E3B"/>
<path d="M150.721 54.3986C147 55.583 148.344 58.5062 152.216 58.1114C152.216 58.1114 155.576 61.001 162.464 59.7326C159.852 61.2362 160.558 64.5794 162.893 64.8818C160.994 67.1246 163.884 68.0402 162.498 69.9218C161.112 71.8034 165.018 70.829 165.908 69.9218C167.84 69.443 164.052 74.6258 163.733 77.3726C168.428 75.9362 168.008 73.3742 170.26 71.165C172.511 68.9558 173.888 63.4454 172.066 59.2202C171.182 57.3276 169.908 55.6434 168.327 54.2783C166.746 52.9131 164.894 51.8977 162.893 51.299C159.776 50.4842 149.965 49.3334 150.721 54.3986Z" fill="#263238"/>
<path d="M211.117 308.885C211.252 312.615 211.016 318.503 211.016 318.503H210.034C209.839 315.419 209.474 312.349 208.942 309.305L211.117 308.885Z" fill="#263238"/>
<path d="M139.591 141.246C139.591 141.246 142.288 200.298 142.8 224.221C143.338 249.102 143.573 307.196 143.573 307.196H149.856C149.856 307.196 159.869 258.913 156.904 224.221C161.389 197.585 164.413 141.246 164.413 141.246H139.591Z" fill="#7F3E3B"/>
<path opacity="0.8" d="M139.591 141.246C139.591 141.246 142.288 200.298 142.8 224.221C143.338 249.102 143.573 307.196 143.573 307.196H149.856C149.856 307.196 159.869 258.913 156.904 224.221C161.389 197.585 164.413 141.246 164.413 141.246H139.591Z" fill="#263238"/>
<path d="M137.315 138.5L138.222 141.246C138.222 141.246 135.66 160.121 139.591 178.047C145.328 181.205 163.044 181.625 163.044 181.625L158.668 141.725L159.457 138.5H137.315Z" fill="#263238"/>
<path d="M147.924 141.246C147.924 141.246 170.604 203.095 179.626 226.22C189.092 250.513 204.632 305.399 204.91 307.196H210.336C210.336 307.196 204.12 243.793 192.822 222.222C189.403 195.208 171.452 141.246 171.452 141.246H147.924Z" fill="#7F3E3B"/>
<path opacity="0.8" d="M147.924 141.246C147.924 141.246 170.604 203.095 179.626 226.22C189.092 250.513 204.632 305.399 204.91 307.196H210.336C210.336 307.196 204.12 243.793 192.822 222.222C189.403 195.208 171.452 141.246 171.452 141.246H147.924Z" fill="#263238"/>
<path d="M172.922 138.5L172.847 141.246C172.847 141.246 181.809 148.311 185.136 176.98C181.188 177.82 162.515 184.263 162.515 184.263C151.452 170.075 146.555 155.904 145.799 141.725V138.5H172.922Z" fill="#263238"/>
<path d="M210.051 302.324C211.075 303.5 211.806 311.169 210.261 313.891C208.715 316.613 210.261 320.611 205.036 320.611C199.811 320.611 199.299 319.469 200.617 317.041C201.936 314.613 203.784 306.474 202.869 302.181C202.44 300.182 206.153 300.182 210.051 302.324Z" fill="#263238"/>
<path d="M156.954 67.1579C156.845 67.7879 156.425 68.2331 156.013 68.1575C155.602 68.0819 155.366 67.5191 155.476 66.8975C155.585 66.2759 156.005 65.8307 156.416 65.9063C156.828 65.9819 157.08 66.5363 156.954 67.1579Z" fill="#263238"/>
<path d="M149.268 65.8979C149.159 66.5195 148.739 66.9647 148.336 66.8975C147.932 66.8303 147.689 66.2591 147.798 65.6375C147.907 65.0159 148.327 64.5623 148.73 64.6379C149.134 64.7135 149.386 65.2931 149.268 65.8979Z" fill="#263238"/>
<path d="M148.907 64.7223L147.487 64.0251C147.487 64.0251 148.05 65.3271 148.907 64.7223Z" fill="#263238"/>
<path d="M151.2 67.3176C150.396 68.6399 149.412 69.8442 148.277 70.896C148.551 71.1856 148.886 71.411 149.258 71.5561C149.63 71.7013 150.029 71.7628 150.427 71.736L151.2 67.3176Z" fill="#630F0F"/>
<path d="M153.619 74.6426C153.264 74.6431 152.91 74.6122 152.561 74.5502C152.537 74.5458 152.513 74.5366 152.493 74.5233C152.472 74.5099 152.454 74.4926 152.44 74.4723C152.426 74.452 152.416 74.4292 152.411 74.4051C152.406 74.381 152.405 74.3561 152.41 74.3318C152.414 74.3075 152.423 74.2844 152.437 74.2636C152.45 74.2429 152.467 74.225 152.488 74.211C152.508 74.1969 152.531 74.187 152.555 74.1818C152.579 74.1766 152.604 74.1762 152.628 74.1806C153.401 74.3329 154.198 74.3021 154.957 74.0906C155.715 73.8791 156.414 73.4927 156.996 72.9626C157.031 72.9282 157.077 72.9089 157.126 72.9089C157.175 72.9089 157.222 72.9282 157.256 72.9626C157.291 72.9986 157.311 73.0468 157.311 73.097C157.311 73.1472 157.291 73.1954 157.256 73.2314C156.271 74.1523 154.968 74.6577 153.619 74.6426Z" fill="#263238"/>
<path d="M167.639 71.8873C167.37 72.4851 166.977 73.0188 166.486 73.4532C165.995 73.8877 165.417 74.2129 164.791 74.4073C163.187 74.8525 162.397 73.0969 162.851 71.3161C163.262 69.7117 164.581 67.5445 166.211 67.8973C167.84 68.2501 168.378 70.3165 167.639 71.8873Z" fill="#7F3E3B"/>
<path d="M159.255 62.5381C159.207 62.5504 159.157 62.5523 159.107 62.5436C159.058 62.5349 159.011 62.5158 158.97 62.4877C158.583 62.2274 158.141 62.0615 157.678 62.0032C157.216 61.9448 156.746 61.9957 156.307 62.1517C156.263 62.1721 156.215 62.1836 156.167 62.1855C156.118 62.1875 156.07 62.1799 156.024 62.1631C155.978 62.1464 155.936 62.1208 155.901 62.0878C155.865 62.0549 155.836 62.0152 155.816 61.9711C155.795 61.9269 155.784 61.8792 155.782 61.8306C155.78 61.7821 155.787 61.7336 155.804 61.688C155.821 61.6423 155.847 61.6004 155.88 61.5647C155.912 61.529 155.952 61.5001 155.996 61.4797C156.546 61.2692 157.139 61.1945 157.724 61.2618C158.308 61.329 158.869 61.5363 159.356 61.8661C159.398 61.8918 159.434 61.9255 159.462 61.9653C159.491 62.005 159.511 62.05 159.522 62.0977C159.533 62.1454 159.534 62.1947 159.526 62.2429C159.518 62.2911 159.5 62.3372 159.474 62.3785C159.422 62.4557 159.345 62.5122 159.255 62.5381Z" fill="#263238"/>
<path d="M146.412 61.0262C146.38 60.9913 146.355 60.9502 146.339 60.9055C146.323 60.8607 146.317 60.8132 146.32 60.7658C146.321 60.7173 146.331 60.6694 146.351 60.625C146.371 60.5806 146.399 60.5405 146.434 60.5069C146.469 60.4734 146.51 60.4471 146.556 60.4295C146.601 60.412 146.649 60.4035 146.698 60.4046C147.288 60.4036 147.869 60.5451 148.393 60.8171C148.916 61.0891 149.367 61.4836 149.705 61.967C149.731 62.0084 149.749 62.0547 149.758 62.1031C149.766 62.1515 149.765 62.2011 149.754 62.249C149.743 62.2969 149.722 62.3422 149.694 62.3821C149.665 62.422 149.629 62.4558 149.587 62.4815C149.545 62.5072 149.498 62.5243 149.45 62.5317C149.401 62.5392 149.352 62.5369 149.304 62.525C149.256 62.5131 149.211 62.4918 149.172 62.4623C149.133 62.4328 149.1 62.3958 149.075 62.3534C148.799 61.9779 148.439 61.6732 148.023 61.4644C147.606 61.2555 147.146 61.1486 146.681 61.1522C146.63 61.15 146.58 61.1377 146.534 61.1161C146.488 61.0945 146.446 61.0639 146.412 61.0262Z" fill="#263238"/>
<path d="M156.584 65.9652L155.165 65.2764C155.165 65.2764 155.728 66.5784 156.584 65.9652Z" fill="#263238"/>
<path d="M158.819 107.982C157.324 108.041 156.005 108.041 154.619 107.982C153.233 107.923 151.872 107.907 150.494 107.831C147.748 107.671 145.001 107.377 142.254 106.991C139.487 106.61 136.744 106.071 134.039 105.378C131.258 104.683 128.541 103.756 125.916 102.606C125.588 102.463 125.252 102.295 124.925 102.144L124.429 101.909C124.27 101.825 124.018 101.691 123.833 101.573C123.64 101.45 123.455 101.316 123.278 101.17C122.688 100.676 122.192 100.078 121.817 99.4058C121.54 98.9022 121.313 98.3734 121.136 97.8266C120.685 96.2034 120.484 94.5209 120.54 92.837C120.612 89.9966 120.921 87.1672 121.464 84.3782C122.49 79.0411 123.894 73.7834 125.664 68.645L129.503 69.653C129.1 72.2234 128.663 74.8442 128.36 77.4398C128.058 80.0354 127.688 82.631 127.52 85.2014C127.278 87.68 127.214 90.1728 127.327 92.6606C127.359 93.6406 127.532 94.611 127.84 95.5418C127.871 95.6281 127.913 95.71 127.966 95.7854C127.966 95.7854 127.966 95.693 127.781 95.5418C127.687 95.4586 127.582 95.388 127.47 95.3318L127.89 95.5082C128.167 95.6174 128.436 95.735 128.73 95.8358C133.438 97.4926 138.324 98.5921 143.287 99.1118C145.807 99.431 148.378 99.599 150.94 99.7502C152.216 99.8258 153.46 99.8762 154.787 99.9014C156.114 99.9266 157.382 99.9518 158.55 99.9014L158.819 107.982Z" fill="#7F3E3B"/>
<path d="M140.322 99.1955L141.296 109.276C141.296 109.276 160.054 115.374 169.789 110.258C173.451 108.335 173.426 106.571 173.846 101.934C174.266 97.2971 171.805 93.9539 165.782 95.4995C159.759 97.0451 155.778 97.2719 140.322 99.1955Z" fill="#407BFF"/>
<path d="M142.136 99.2375C141.557 97.9523 140.456 97.5575 138.936 97.6583C137.416 97.7591 136.248 97.9355 136.744 99.7079C137.347 102.828 137.737 105.985 137.911 109.158C137.844 109.998 141.431 110.645 142.506 110.057C143.581 109.469 142.909 100.934 142.136 99.2375Z" fill="#407BFF"/>
<path opacity="0.3" d="M142.136 99.2375C141.557 97.9523 140.456 97.5575 138.936 97.6583C137.416 97.7591 136.248 97.9355 136.744 99.7079C137.347 102.828 137.737 105.985 137.911 109.158C137.844 109.998 141.431 110.645 142.506 110.057C143.581 109.469 142.909 100.934 142.136 99.2375Z" fill="white"/>
<path d="M136.584 95.1637L132.174 95.8105C131.752 95.8711 131.369 96.0895 131.103 96.4217C130.836 96.7539 130.706 97.1749 130.738 97.5997V97.9945C130.767 98.4108 130.95 98.8014 131.251 99.0902C131.552 99.379 131.95 99.5454 132.367 99.5569L137.214 99.6997C137.494 99.709 137.771 99.6482 138.022 99.523C138.272 99.3977 138.487 99.2119 138.647 98.9824C138.807 98.7529 138.908 98.487 138.939 98.2088C138.97 97.9307 138.932 97.6491 138.827 97.3897L138.356 96.2053C138.218 95.8599 137.969 95.5703 137.648 95.3817C137.327 95.1932 136.953 95.1165 136.584 95.1637Z" fill="#7F3E3B"/>
<path d="M125.941 66.9314L128.083 61.6226L134.215 68.6282C134.215 68.6282 130.544 72.215 126.773 72.7526L126.26 71.8286C125.845 71.0877 125.601 70.2634 125.546 69.4161C125.491 68.5688 125.626 67.7198 125.941 66.9314Z" fill="#7F3E3B"/>
<path d="M134.282 61.8998L135.962 64.4198C136.306 64.9487 136.439 65.5872 136.335 66.2093C136.231 66.8314 135.897 67.3918 135.4 67.7798L134.249 68.6702L128.117 61.6646L131.695 60.875C132.179 60.7729 132.683 60.8157 133.143 60.9979C133.603 61.1802 133.999 61.4938 134.282 61.8998Z" fill="#7F3E3B"/>
<path d="M150.948 306.247C151.331 307.045 151.512 307.925 151.477 308.809C151.418 312.035 151.066 320.569 151.066 320.569H150.31C150.31 320.569 150.142 316.369 149.772 314.244C149.402 312.119 148.932 313.9 147.63 316.109C146.328 318.318 142.968 320.452 138.062 320.569C132.308 320.704 129.982 320.452 131.653 319.057C133.325 317.663 137.138 316.764 137.138 316.764C137.138 316.764 142.657 309.078 142.733 303.652C142.808 297.839 149.554 303.736 150.99 303.013C151.469 303.114 150.704 305.76 150.948 306.247Z" fill="#263238"/>
<path d="M169.722 71.7108C168.983 69.0228 164.17 58.9848 159.541 55.104C154.913 51.2232 153.661 51.5256 153.031 51.0972C153.059 50.8572 153.14 50.6266 153.27 50.4225C153.399 50.2184 153.572 50.0462 153.778 49.9186C153.983 49.791 154.214 49.7113 154.454 49.6856C154.694 49.6599 154.937 49.6887 155.165 49.77C156.425 48.7116 158.424 49.2576 159.323 49.686C163.497 51.6576 167.101 54.658 169.798 58.4052C172.906 62.6976 173.846 65.3268 173.477 67.4604C173.107 69.594 172.267 69.6192 172.267 69.6192C172.267 69.6192 172.796 71.8788 169.722 71.7108Z" fill="#407BFF"/>
<path d="M169.68 70.098C169.511 69.9346 169.292 69.8313 169.058 69.804C169.315 70.399 169.539 71.0075 169.73 71.6268C169.916 71.4124 170.014 71.1359 170.005 70.8525C169.995 70.569 169.879 70.2996 169.68 70.098Z" fill="white"/>
<path d="M153.72 49.9381C153.738 50.195 153.848 50.4366 154.031 50.6185C154.136 50.7239 154.261 50.8075 154.399 50.8646C154.536 50.9216 154.684 50.951 154.833 50.951C154.982 50.951 155.13 50.9216 155.267 50.8646C155.405 50.8075 155.53 50.7239 155.635 50.6185C155.798 50.4554 155.906 50.246 155.945 50.0189C155.984 49.7918 155.952 49.5582 155.854 49.3501C155.613 49.4476 155.387 49.5776 155.182 49.7365C154.939 49.6567 154.681 49.6333 154.427 49.6683C154.174 49.7032 153.932 49.7955 153.72 49.9381Z" fill="white"/>
<path d="M159.121 52.559C159.016 52.4536 158.891 52.37 158.753 52.313C158.616 52.2559 158.468 52.2266 158.319 52.2266C158.17 52.2266 158.023 52.2559 157.885 52.313C157.747 52.37 157.622 52.4536 157.517 52.559C157.327 52.7559 157.216 53.0162 157.206 53.2898C157.651 53.609 158.147 53.9786 158.701 54.4238C158.859 54.37 159.003 54.281 159.121 54.1634C159.227 54.0581 159.31 53.9331 159.367 53.7954C159.424 53.6578 159.454 53.5102 159.454 53.3612C159.454 53.2122 159.424 53.0647 159.367 52.9271C159.31 52.7894 159.227 52.6644 159.121 52.559Z" fill="white"/>
<path d="M162.632 56.0703C162.527 55.9649 162.402 55.8813 162.264 55.8242C162.127 55.7672 161.979 55.7378 161.83 55.7378C161.681 55.7378 161.534 55.7672 161.396 55.8242C161.258 55.8813 161.133 55.9649 161.028 56.0703C160.949 56.1544 160.883 56.2508 160.835 56.3559C161.288 56.8431 161.75 57.3639 162.196 57.9351C162.359 57.8814 162.508 57.7925 162.632 57.6747C162.738 57.5694 162.821 57.4443 162.879 57.3067C162.936 57.169 162.965 57.0215 162.965 56.8725C162.965 56.7235 162.936 56.5759 162.879 56.4383C162.821 56.3006 162.738 56.1756 162.632 56.0703Z" fill="white"/>
<path d="M165.337 61.5134C165.963 61.5134 166.471 61.0057 166.471 60.3794C166.471 59.7531 165.963 59.2454 165.337 59.2454C164.711 59.2454 164.203 59.7531 164.203 60.3794C164.203 61.0057 164.711 61.5134 165.337 61.5134Z" fill="white"/>
<path d="M168.848 65.016C169.475 65.016 169.982 64.5083 169.982 63.882C169.982 63.2558 169.475 62.748 168.848 62.748C168.222 62.748 167.714 63.2558 167.714 63.882C167.714 64.5083 168.222 65.016 168.848 65.016Z" fill="white"/>
<path d="M171.553 66.5868C171.448 66.6922 171.364 66.8173 171.307 66.9549C171.25 67.0925 171.221 67.2401 171.221 67.389C171.221 67.538 171.25 67.6855 171.307 67.8232C171.364 67.9608 171.448 68.0859 171.553 68.1912C171.659 68.2966 171.784 68.3802 171.921 68.4372C172.059 68.4942 172.206 68.5235 172.355 68.5235C172.504 68.5235 172.652 68.4942 172.79 68.4372C172.927 68.3802 173.052 68.2966 173.158 68.1912C173.257 68.0839 173.339 67.9621 173.401 67.83V67.704C173.472 67.4643 173.461 67.2078 173.37 66.9749C173.279 66.7421 173.113 66.5462 172.898 66.4182C172.684 66.2901 172.432 66.2372 172.184 66.2677C171.936 66.2983 171.705 66.4105 171.528 66.5868H171.553Z" fill="white"/>
<path d="M161.028 50.6522C161.214 50.8394 161.462 50.9528 161.725 50.9714L160.927 50.501C160.956 50.5545 160.99 50.6051 161.028 50.6522Z" fill="white"/>
<path d="M164.531 54.1382C164.732 54.3377 165.002 54.4537 165.285 54.463C165.569 54.4724 165.845 54.3744 166.06 54.1886C165.48 53.6678 164.917 53.1974 164.38 52.769C164.248 52.9813 164.192 53.2315 164.219 53.4797C164.247 53.7279 164.356 53.9597 164.531 54.1382Z" fill="white"/>
<path d="M168.042 57.6745C168.215 57.8452 168.439 57.9548 168.68 57.9867C168.921 58.0185 169.166 57.9708 169.378 57.8509C168.916 57.2461 168.454 56.6833 167.983 56.1709C167.806 56.3846 167.714 56.6564 167.724 56.934C167.735 57.2115 167.848 57.4753 168.042 57.6745Z" fill="white"/>
<path d="M171.553 61.1774C171.598 61.2185 171.649 61.2525 171.704 61.2782C171.57 61.0514 171.402 60.7994 171.251 60.5642C171.287 60.7947 171.392 61.0087 171.553 61.1774Z" fill="white"/>
<path d="M166.135 63.0842C165.953 62.9067 165.716 62.797 165.463 62.7734C165.774 63.3026 166.076 63.8234 166.362 64.3526C166.459 64.1434 166.489 63.9096 166.448 63.6828C166.407 63.4559 166.298 63.247 166.135 63.0842Z" fill="white"/>
<path d="M169.68 68.1913C169.785 68.0859 169.869 67.9609 169.926 67.8232C169.983 67.6856 170.012 67.5381 170.012 67.3891C170.012 67.2401 169.983 67.0925 169.926 66.9549C169.869 66.8172 169.785 66.6922 169.68 66.5869C169.466 66.376 169.178 66.2578 168.878 66.2578C168.578 66.2578 168.289 66.376 168.076 66.5869C167.948 66.719 167.856 66.8806 167.807 67.0573C168.042 67.5445 168.269 68.0065 168.47 68.4433C168.675 68.5238 168.898 68.5428 169.113 68.4981C169.328 68.4533 169.525 68.3466 169.68 68.1913Z" fill="white"/>
<path d="M171.36 71.4674C171.668 71.318 171.921 71.0751 172.082 70.7733C172.244 70.4715 172.305 70.1264 172.259 69.7874C172.066 69.7937 171.878 69.8507 171.714 69.9526C171.55 70.0546 171.416 70.1978 171.325 70.3681C171.234 70.5383 171.189 70.7295 171.195 70.9224C171.201 71.1154 171.258 71.3033 171.36 71.4674Z" fill="white"/>
<path d="M157.433 49.1821C157.266 49.3957 157.183 49.6625 157.198 49.9329C157.214 50.2033 157.327 50.4589 157.517 50.6521C157.622 50.7575 157.747 50.8411 157.885 50.8982C158.023 50.9552 158.17 50.9846 158.319 50.9846C158.468 50.9846 158.616 50.9552 158.753 50.8982C158.891 50.8411 159.016 50.7575 159.121 50.6521C159.239 50.5329 159.328 50.3886 159.382 50.23C159.436 50.0714 159.453 49.9027 159.432 49.7365L159.323 49.6861C158.727 49.4091 158.087 49.2385 157.433 49.1821Z" fill="white"/>
<path d="M162.632 54.1379C162.791 53.9793 162.899 53.7772 162.942 53.5573C162.986 53.3373 162.964 53.1094 162.878 52.9022C162.792 52.6951 162.647 52.518 162.46 52.3934C162.274 52.2689 162.054 52.2024 161.83 52.2024C161.606 52.2024 161.387 52.2689 161.2 52.3934C161.014 52.518 160.868 52.6951 160.783 52.9022C160.697 53.1094 160.674 53.3373 160.718 53.5573C160.762 53.7772 160.869 53.9793 161.028 54.1379C161.133 54.2433 161.258 54.3269 161.396 54.384C161.534 54.441 161.681 54.4704 161.83 54.4704C161.979 54.4704 162.127 54.441 162.264 54.384C162.402 54.3269 162.527 54.2433 162.632 54.1379Z" fill="white"/>
<path d="M165.337 58.0021C165.963 58.0021 166.471 57.4944 166.471 56.8681C166.471 56.2418 165.963 55.7341 165.337 55.7341C164.711 55.7341 164.203 56.2418 164.203 56.8681C164.203 57.4944 164.711 58.0021 165.337 58.0021Z" fill="white"/>
<path d="M168.848 61.5134C169.475 61.5134 169.982 61.0057 169.982 60.3794C169.982 59.7531 169.475 59.2454 168.848 59.2454C168.222 59.2454 167.714 59.7531 167.714 60.3794C167.714 61.0057 168.222 61.5134 168.848 61.5134Z" fill="white"/>
<path d="M171.553 63.0841C171.448 63.1895 171.364 63.3145 171.307 63.4521C171.25 63.5898 171.221 63.7373 171.221 63.8863C171.221 64.0353 171.25 64.1829 171.307 64.3205C171.364 64.4582 171.448 64.5832 171.553 64.6885C171.767 64.8994 172.055 65.0176 172.356 65.0176C172.656 65.0176 172.944 64.8994 173.158 64.6885L173.225 64.5793C173.033 63.9627 172.795 63.3618 172.511 62.7817C172.339 62.7532 172.162 62.7658 171.996 62.8183C171.83 62.8709 171.678 62.9619 171.553 63.0841Z" fill="white"/>
<path opacity="0.4" d="M159.323 49.6946C158.775 49.4107 158.177 49.2398 157.562 49.1922C156.947 49.1446 156.329 49.2212 155.744 49.4174C156.442 50.9798 158.609 52.1558 160.264 52.3994C160.683 51.8908 161.028 51.3251 161.288 50.7194C160.314 50.1482 159.6 49.8206 159.323 49.6946Z" fill="black"/>
<path opacity="0.4" d="M169.798 58.4056C168.099 56.0519 166.037 53.9822 163.691 52.2736C162.787 52.2479 161.882 52.2957 160.986 52.4164C160.986 54.6003 163.313 58.3972 167.177 59.2288C168.242 59.4689 169.346 59.4889 170.419 59.2875C170.226 59.002 170.016 58.708 169.798 58.4056Z" fill="black"/>
<path d="M160.264 52.3909C158.264 51.6769 155.711 49.1065 156.467 46.6705C157.223 44.2345 160.104 43.6465 160.104 43.6465C160.104 43.6465 159.667 45.3853 160.289 46.2505C160.91 47.1157 161.969 49.8289 161.65 50.5681C161.281 51.2412 160.814 51.8556 160.264 52.3909Z" fill="#407BFF"/>
<path d="M159.331 54.5582C158.894 53.2898 159.483 50.2658 162.045 50.0978C164.607 49.9298 163.8 51.2066 163.8 51.2066L159.331 54.5582Z" fill="#407BFF"/>
<path d="M161.171 53.4241C161.826 55.5073 165.22 58.4053 169.159 58.0189C170.257 57.9489 171.324 57.6278 172.278 57.0802C173.232 56.5326 174.047 55.7732 174.661 54.8605C174.661 54.8605 171.881 55.0369 170.68 54.2977C169.478 53.5585 165.514 52.1389 164.304 52.3153C163.222 52.5671 162.171 52.939 161.171 53.4241Z" fill="#407BFF"/>
<path d="M159.331 54.5578C159.558 53.239 162.002 50.2319 164.329 51.3239C166.656 52.4159 165.547 53.1047 164.329 53.6423C162.713 54.1761 161.031 54.4842 159.331 54.5578Z" fill="#407BFF"/>
<path d="M161.448 54.3396C161.498 54.0649 161.472 53.7819 161.373 53.5209C161.274 53.2599 161.106 53.0307 160.886 52.858C160.667 52.6853 160.405 52.5756 160.128 52.5407C159.851 52.5057 159.57 52.5468 159.314 52.6596C159.152 53.2706 159.152 53.9133 159.314 54.5244C159.314 54.5244 160.289 54.5076 161.448 54.3396Z" fill="white"/>
<path d="M166.522 56.1457C166.347 56.0434 166.153 55.9768 165.952 55.9498C165.751 55.9227 165.546 55.9357 165.35 55.988C165.154 56.0404 164.971 56.1309 164.81 56.2546C164.649 56.3782 164.514 56.5325 164.413 56.7085C164.38 56.7677 164.352 56.8295 164.329 56.8933C165.219 57.4151 166.195 57.7736 167.211 57.9517C167.318 57.6172 167.308 57.256 167.183 56.9277C167.058 56.5994 166.825 56.3236 166.522 56.1457Z" fill="white"/>
<path d="M156.652 46.1916L156.719 46.242C157.013 46.409 157.355 46.4742 157.69 46.4274C158.025 46.3806 158.335 46.2245 158.573 45.9832C158.81 45.7419 158.961 45.4291 159.003 45.0931C159.044 44.7572 158.974 44.417 158.802 44.1252C157.871 44.5492 157.112 45.2781 156.652 46.1916Z" fill="white"/>
<path d="M173.729 55.9862C174.087 55.6528 174.4 55.2745 174.661 54.8606C174.661 54.8606 174.115 54.8606 173.41 54.8606C173.368 55.2628 173.482 55.6657 173.729 55.9862Z" fill="white"/>
<path d="M160.037 50.2743C160.17 50.0459 160.242 49.787 160.246 49.5227C160.25 49.2583 160.185 48.9974 160.059 48.7652C159.933 48.533 159.749 48.3373 159.525 48.197C159.3 48.0567 159.044 47.9765 158.78 47.9643C158.516 47.9521 158.253 48.0082 158.017 48.1272C157.781 48.2462 157.579 48.424 157.432 48.6436C157.285 48.8632 157.197 49.117 157.176 49.3806C157.156 49.6442 157.204 49.9086 157.315 50.1483C157.483 50.3679 157.662 50.5782 157.853 50.7783L157.937 50.8371C158.111 50.9392 158.304 51.0056 158.505 51.0325C158.705 51.0595 158.909 51.0464 159.104 50.9941C159.299 50.9417 159.482 50.8511 159.643 50.7276C159.803 50.604 159.937 50.45 160.037 50.2743Z" fill="white"/>
<path d="M164.38 51.3494C164.117 51.3749 163.866 51.4673 163.65 51.6178C163.434 51.7683 163.26 51.9718 163.145 52.2088C163.03 52.4458 162.978 52.7083 162.994 52.9712C163.01 53.2341 163.093 53.4885 163.235 53.7101C163.377 53.9317 163.574 54.113 163.807 54.2366C164.039 54.3603 164.3 54.4221 164.563 54.4161C164.826 54.4102 165.084 54.3367 165.31 54.2027C165.537 54.0687 165.726 53.8787 165.858 53.651C166.049 53.3149 166.107 52.9186 166.018 52.5422L165.673 52.4582C165.631 52.139 165.262 51.7778 164.38 51.3494Z" fill="white"/>
<path d="M171.671 57.0277C171.824 56.765 171.896 56.4628 171.877 56.1592C171.859 55.8556 171.751 55.5644 171.567 55.3223C171.382 55.0802 171.131 54.8982 170.843 54.7993C170.555 54.7005 170.245 54.6891 169.951 54.7667C169.657 54.8444 169.392 55.0075 169.191 55.2355C168.99 55.4635 168.86 55.746 168.82 56.0474C168.779 56.3489 168.829 56.6556 168.962 56.9288C169.096 57.2019 169.308 57.4293 169.571 57.5821C169.826 57.729 170.117 57.8018 170.411 57.7921C170.629 57.7333 170.839 57.6661 171.032 57.5989C171.298 57.4775 171.521 57.2783 171.671 57.0277Z" fill="white"/>
</svg>
