<svg width="64" height="52" viewBox="0 0 64 52" fill="none" xmlns="http://www.w3.org/2000/svg" xmlns:xlink="http://www.w3.org/1999/xlink">
<path d="M12.05,22.503C17.174,30.642 25.429,37.285 35.499,41.455L43.327,35.128C44.288,34.352 45.711,34.093 46.956,34.438C50.942,35.502 55.247,36.077 59.659,36.077C61.616,36.077 63.218,37.371 63.218,38.953L63.218,48.99C63.218,50.572 61.616,51.866 59.659,51.866C26.247,51.866 -0.831,29.98 -0.831,2.976C-0.831,1.394 0.77,0.1 2.727,0.1L15.181,0.1C17.138,0.1 18.739,1.394 18.739,2.976C18.739,6.571 19.451,10.022 20.768,13.243C21.159,14.249 20.874,15.371 19.878,16.176L12.05,22.503Z" transform="rotate(45.545 31.193 25.983)" fill="#FFFFFF"/>
</svg>
