<svg xmlns="http://www.w3.org/2000/svg" xmlns:xlink="http://www.w3.org/1999/xlink" width="816" zoomAndPan="magnify" viewBox="0 0 612 791.999994" height="1056" preserveAspectRatio="xMidYMid meet" version="1.0"><defs><clipPath id="383dafb4d0"><path d="M 115.25 488 L 157 488 L 157 530 L 115.25 530 Z M 115.25 488 " clip-rule="nonzero"/></clipPath><clipPath id="28f0387227"><path d="M 115.25 603 L 157 603 L 157 644 L 115.25 644 Z M 115.25 603 " clip-rule="nonzero"/></clipPath><clipPath id="730bc583da"><path d="M 115.816406 716.078125 L 157 716.078125 L 157 756.746094 L 115.816406 756.746094 Z M 115.816406 716.078125 " clip-rule="nonzero"/></clipPath><clipPath id="c107bce574"><path d="M 115.25 375 L 157 375 L 157 416 L 115.25 416 Z M 115.25 375 " clip-rule="nonzero"/></clipPath><clipPath id="0e095c1fa4"><path d="M 115.25 261 L 157 261 L 157 303 L 115.25 303 Z M 115.25 261 " clip-rule="nonzero"/></clipPath><clipPath id="a050c58c5b"><path d="M 229 716.078125 L 270 716.078125 L 270 756.746094 L 229 756.746094 Z M 229 716.078125 " clip-rule="nonzero"/></clipPath><clipPath id="59c129ddcf"><path d="M 342 716.078125 L 383 716.078125 L 383 756.746094 L 342 756.746094 Z M 342 716.078125 " clip-rule="nonzero"/></clipPath><clipPath id="67f146b0b3"><path d="M 455.324219 488 L 496.246094 488 L 496.246094 529.078125 L 455.324219 529.078125 Z M 455.324219 488 " clip-rule="nonzero"/></clipPath><clipPath id="de7575f78f"><path d="M 455.324219 603 L 496.246094 603 L 496.246094 644 L 455.324219 644 Z M 455.324219 603 " clip-rule="nonzero"/></clipPath><clipPath id="61c5311b75"><path d="M 455.324219 716.078125 L 496.246094 716.078125 L 496.246094 756.746094 L 455.324219 756.746094 Z M 455.324219 716.078125 " clip-rule="nonzero"/></clipPath><clipPath id="2d71920913"><path d="M 455.324219 375 L 496.246094 375 L 496.246094 416 L 455.324219 416 Z M 455.324219 375 " clip-rule="nonzero"/></clipPath><clipPath id="c0e1b7a52a"><path d="M 455.324219 261 L 496.246094 261 L 496.246094 303 L 455.324219 303 Z M 455.324219 261 " clip-rule="nonzero"/></clipPath><clipPath id="99d08648c8"><path d="M 115.25 148 L 157 148 L 157 189 L 115.25 189 Z M 115.25 148 " clip-rule="nonzero"/></clipPath><clipPath id="c8d68dc223"><path d="M 115.25 35.246094 L 157 35.246094 L 157 76 L 115.25 76 Z M 115.25 35.246094 " clip-rule="nonzero"/></clipPath><clipPath id="9b271b9c30"><path d="M 229 35.246094 L 270 35.246094 L 270 76 L 229 76 Z M 229 35.246094 " clip-rule="nonzero"/></clipPath><clipPath id="a8b5f39109"><path d="M 342 35.246094 L 383 35.246094 L 383 76 L 342 76 Z M 342 35.246094 " clip-rule="nonzero"/></clipPath><clipPath id="9f57499d28"><path d="M 455.324219 148 L 496.246094 148 L 496.246094 189 L 455.324219 189 Z M 455.324219 148 " clip-rule="nonzero"/></clipPath><clipPath id="8515cc0ea1"><path d="M 455.324219 35.246094 L 496.246094 35.246094 L 496.246094 76 L 455.324219 76 Z M 455.324219 35.246094 " clip-rule="nonzero"/></clipPath></defs><rect x="-61.2" width="734.4" fill="transparent" y="-79.199999" height="950.399992" fill-opacity="1"/><rect x="-61.2" width="734.4" fill="transparent" y="-79.199999" height="950.399992" fill-opacity="1"/><g clip-path="url(#383dafb4d0)"><path fill="#004aad" d="M 136.027344 529.011719 C 124.886719 529.011719 115.816406 519.949219 115.816406 508.800781 C 115.816406 497.660156 124.886719 488.589844 136.027344 488.589844 C 147.167969 488.589844 156.242188 497.660156 156.242188 508.800781 C 156.242188 519.949219 147.167969 529.011719 136.027344 529.011719 " fill-opacity="1" fill-rule="nonzero"/></g><g clip-path="url(#28f0387227)"><path fill="#004aad" d="M 136.027344 643.46875 C 124.886719 643.46875 115.816406 634.40625 115.816406 623.257812 C 115.816406 612.117188 124.886719 603.054688 136.027344 603.054688 C 147.167969 603.054688 156.242188 612.117188 156.242188 623.257812 C 156.242188 634.40625 147.167969 643.46875 136.027344 643.46875 " fill-opacity="1" fill-rule="nonzero"/></g><g clip-path="url(#730bc583da)"><path fill="#004aad" d="M 136.027344 756.808594 C 124.886719 756.808594 115.816406 747.738281 115.816406 736.59375 C 115.816406 725.453125 124.886719 716.390625 136.027344 716.390625 C 147.167969 716.390625 156.242188 725.453125 156.242188 736.59375 C 156.242188 747.738281 147.167969 756.808594 136.027344 756.808594 " fill-opacity="1" fill-rule="nonzero"/></g><g clip-path="url(#c107bce574)"><path fill="#004aad" d="M 115.816406 395.464844 C 115.816406 384.320312 124.886719 375.257812 136.027344 375.257812 C 147.167969 375.257812 156.242188 384.320312 156.242188 395.464844 C 156.242188 406.613281 147.167969 415.675781 136.027344 415.675781 C 124.886719 415.675781 115.816406 406.613281 115.816406 395.464844 " fill-opacity="1" fill-rule="nonzero"/></g><g clip-path="url(#0e095c1fa4)"><path fill="#004aad" d="M 115.816406 282.125 C 115.816406 270.984375 124.886719 261.921875 136.027344 261.921875 C 147.167969 261.921875 156.242188 270.984375 156.242188 282.125 C 156.242188 293.273438 147.167969 302.339844 136.027344 302.339844 C 124.886719 302.339844 115.816406 293.273438 115.816406 282.125 " fill-opacity="1" fill-rule="nonzero"/></g><path fill="#004aad" d="M 249.367188 529.011719 C 238.222656 529.011719 229.152344 519.949219 229.152344 508.800781 C 229.152344 497.660156 238.222656 488.589844 249.367188 488.589844 C 260.507812 488.589844 269.578125 497.660156 269.578125 508.800781 C 269.578125 519.949219 260.507812 529.011719 249.367188 529.011719 " fill-opacity="1" fill-rule="nonzero"/><path fill="#004aad" d="M 249.367188 643.46875 C 238.222656 643.46875 229.152344 634.40625 229.152344 623.257812 C 229.152344 612.117188 238.222656 603.054688 249.367188 603.054688 C 260.507812 603.054688 269.578125 612.117188 269.578125 623.257812 C 269.578125 634.40625 260.507812 643.46875 249.367188 643.46875 " fill-opacity="1" fill-rule="nonzero"/><g clip-path="url(#a050c58c5b)"><path fill="#004aad" d="M 249.367188 756.808594 C 238.222656 756.808594 229.152344 747.738281 229.152344 736.59375 C 229.152344 725.453125 238.222656 716.390625 249.367188 716.390625 C 260.507812 716.390625 269.578125 725.453125 269.578125 736.59375 C 269.578125 747.738281 260.507812 756.808594 249.367188 756.808594 " fill-opacity="1" fill-rule="nonzero"/></g><path fill="#004aad" d="M 229.152344 395.464844 C 229.152344 384.320312 238.222656 375.257812 249.367188 375.257812 C 260.507812 375.257812 269.578125 384.320312 269.578125 395.464844 C 269.578125 406.613281 260.507812 415.675781 249.367188 415.675781 C 238.222656 415.675781 229.152344 406.613281 229.152344 395.464844 " fill-opacity="1" fill-rule="nonzero"/><path fill="#004aad" d="M 229.152344 282.125 C 229.152344 270.984375 238.222656 261.921875 249.367188 261.921875 C 260.507812 261.921875 269.578125 270.984375 269.578125 282.125 C 269.578125 293.273438 260.507812 302.339844 249.367188 302.339844 C 238.222656 302.339844 229.152344 293.273438 229.152344 282.125 " fill-opacity="1" fill-rule="nonzero"/><path fill="#004aad" d="M 362.703125 529.011719 C 351.554688 529.011719 342.492188 519.949219 342.492188 508.800781 C 342.492188 497.660156 351.554688 488.589844 362.703125 488.589844 C 373.84375 488.589844 382.90625 497.660156 382.90625 508.800781 C 382.90625 519.949219 373.84375 529.011719 362.703125 529.011719 " fill-opacity="1" fill-rule="nonzero"/><path fill="#004aad" d="M 362.703125 643.46875 C 351.554688 643.46875 342.492188 634.40625 342.492188 623.257812 C 342.492188 612.117188 351.554688 603.054688 362.703125 603.054688 C 373.84375 603.054688 382.90625 612.117188 382.90625 623.257812 C 382.90625 634.40625 373.84375 643.46875 362.703125 643.46875 " fill-opacity="1" fill-rule="nonzero"/><g clip-path="url(#59c129ddcf)"><path fill="#004aad" d="M 362.703125 756.808594 C 351.554688 756.808594 342.492188 747.738281 342.492188 736.59375 C 342.492188 725.453125 351.554688 716.390625 362.703125 716.390625 C 373.84375 716.390625 382.90625 725.453125 382.90625 736.59375 C 382.90625 747.738281 373.84375 756.808594 362.703125 756.808594 " fill-opacity="1" fill-rule="nonzero"/></g><path fill="#004aad" d="M 342.492188 395.464844 C 342.492188 384.320312 351.554688 375.257812 362.703125 375.257812 C 373.84375 375.257812 382.90625 384.320312 382.90625 395.464844 C 382.90625 406.613281 373.84375 415.675781 362.703125 415.675781 C 351.554688 415.675781 342.492188 406.613281 342.492188 395.464844 " fill-opacity="1" fill-rule="nonzero"/><path fill="#004aad" d="M 342.492188 282.125 C 342.492188 270.984375 351.554688 261.921875 362.703125 261.921875 C 373.84375 261.921875 382.90625 270.984375 382.90625 282.125 C 382.90625 293.273438 373.84375 302.339844 362.703125 302.339844 C 351.554688 302.339844 342.492188 293.273438 342.492188 282.125 " fill-opacity="1" fill-rule="nonzero"/><g clip-path="url(#67f146b0b3)"><path fill="#004aad" d="M 476.03125 529.011719 C 464.890625 529.011719 455.828125 519.949219 455.828125 508.800781 C 455.828125 497.660156 464.890625 488.589844 476.03125 488.589844 C 487.179688 488.589844 496.246094 497.660156 496.246094 508.800781 C 496.246094 519.949219 487.179688 529.011719 476.03125 529.011719 " fill-opacity="1" fill-rule="nonzero"/></g><g clip-path="url(#de7575f78f)"><path fill="#004aad" d="M 476.03125 643.46875 C 464.890625 643.46875 455.828125 634.40625 455.828125 623.257812 C 455.828125 612.117188 464.890625 603.054688 476.03125 603.054688 C 487.179688 603.054688 496.246094 612.117188 496.246094 623.257812 C 496.246094 634.40625 487.179688 643.46875 476.03125 643.46875 " fill-opacity="1" fill-rule="nonzero"/></g><g clip-path="url(#61c5311b75)"><path fill="#004aad" d="M 476.03125 756.808594 C 464.890625 756.808594 455.828125 747.738281 455.828125 736.59375 C 455.828125 725.453125 464.890625 716.390625 476.03125 716.390625 C 487.179688 716.390625 496.246094 725.453125 496.246094 736.59375 C 496.246094 747.738281 487.179688 756.808594 476.03125 756.808594 " fill-opacity="1" fill-rule="nonzero"/></g><g clip-path="url(#2d71920913)"><path fill="#004aad" d="M 455.828125 395.464844 C 455.828125 384.320312 464.890625 375.257812 476.03125 375.257812 C 487.179688 375.257812 496.246094 384.320312 496.246094 395.464844 C 496.246094 406.613281 487.179688 415.675781 476.03125 415.675781 C 464.890625 415.675781 455.828125 406.613281 455.828125 395.464844 " fill-opacity="1" fill-rule="nonzero"/></g><g clip-path="url(#c0e1b7a52a)"><path fill="#004aad" d="M 455.828125 282.125 C 455.828125 270.984375 464.890625 261.921875 476.03125 261.921875 C 487.179688 261.921875 496.246094 270.984375 496.246094 282.125 C 496.246094 293.273438 487.179688 302.339844 476.03125 302.339844 C 464.890625 302.339844 455.828125 293.273438 455.828125 282.125 " fill-opacity="1" fill-rule="nonzero"/></g><g clip-path="url(#99d08648c8)"><path fill="#004aad" d="M 136.027344 189 C 124.886719 189 115.816406 179.9375 115.816406 168.796875 C 115.816406 157.648438 124.886719 148.585938 136.027344 148.585938 C 147.167969 148.585938 156.242188 157.648438 156.242188 168.796875 C 156.242188 179.9375 147.167969 189 136.027344 189 " fill-opacity="1" fill-rule="nonzero"/></g><g clip-path="url(#c8d68dc223)"><path fill="#004aad" d="M 115.816406 55.460938 C 115.816406 44.308594 124.886719 35.246094 136.027344 35.246094 C 147.167969 35.246094 156.242188 44.308594 156.242188 55.460938 C 156.242188 66.601562 147.167969 75.664062 136.027344 75.664062 C 124.886719 75.664062 115.816406 66.601562 115.816406 55.460938 " fill-opacity="1" fill-rule="nonzero"/></g><path fill="#004aad" d="M 249.367188 189 C 238.222656 189 229.152344 179.9375 229.152344 168.796875 C 229.152344 157.648438 238.222656 148.585938 249.367188 148.585938 C 260.507812 148.585938 269.578125 157.648438 269.578125 168.796875 C 269.578125 179.9375 260.507812 189 249.367188 189 " fill-opacity="1" fill-rule="nonzero"/><g clip-path="url(#9b271b9c30)"><path fill="#004aad" d="M 229.152344 55.460938 C 229.152344 44.308594 238.222656 35.246094 249.367188 35.246094 C 260.507812 35.246094 269.578125 44.308594 269.578125 55.460938 C 269.578125 66.601562 260.507812 75.664062 249.367188 75.664062 C 238.222656 75.664062 229.152344 66.601562 229.152344 55.460938 " fill-opacity="1" fill-rule="nonzero"/></g><path fill="#004aad" d="M 362.703125 189 C 351.554688 189 342.492188 179.9375 342.492188 168.796875 C 342.492188 157.648438 351.554688 148.585938 362.703125 148.585938 C 373.84375 148.585938 382.90625 157.648438 382.90625 168.796875 C 382.90625 179.9375 373.84375 189 362.703125 189 " fill-opacity="1" fill-rule="nonzero"/><g clip-path="url(#a8b5f39109)"><path fill="#004aad" d="M 342.492188 55.460938 C 342.492188 44.308594 351.554688 35.246094 362.703125 35.246094 C 373.84375 35.246094 382.90625 44.308594 382.90625 55.460938 C 382.90625 66.601562 373.84375 75.664062 362.703125 75.664062 C 351.554688 75.664062 342.492188 66.601562 342.492188 55.460938 " fill-opacity="1" fill-rule="nonzero"/></g><g clip-path="url(#9f57499d28)"><path fill="#004aad" d="M 476.03125 189 C 464.890625 189 455.828125 179.9375 455.828125 168.796875 C 455.828125 157.648438 464.890625 148.585938 476.03125 148.585938 C 487.179688 148.585938 496.246094 157.648438 496.246094 168.796875 C 496.246094 179.9375 487.179688 189 476.03125 189 " fill-opacity="1" fill-rule="nonzero"/></g><g clip-path="url(#8515cc0ea1)"><path fill="#004aad" d="M 455.828125 55.460938 C 455.828125 44.308594 464.890625 35.246094 476.03125 35.246094 C 487.179688 35.246094 496.246094 44.308594 496.246094 55.460938 C 496.246094 66.601562 487.179688 75.664062 476.03125 75.664062 C 464.890625 75.664062 455.828125 66.601562 455.828125 55.460938 " fill-opacity="1" fill-rule="nonzero"/></g></svg>