<svg width="451" height="333" viewBox="0 0 451 333" fill="none" xmlns="http://www.w3.org/2000/svg">
<path d="M405.81 309.828H375.935V310.053H405.81V309.828Z" fill="#EBEBEB"/>
<path d="M298.76 312.281H290.922V312.507H298.76V312.281Z" fill="#EBEBEB"/>
<path d="M375.034 301.457H357.724V301.683H375.034V301.457Z" fill="#EBEBEB"/>
<path d="M86.2764 302.973H47.319V303.198H86.2764V302.973Z" fill="#EBEBEB"/>
<path d="M100.023 302.973H94.3131V303.198H100.023V302.973Z" fill="#EBEBEB"/>
<path d="M203.085 306.779H118.586V307.005H203.085V306.779Z" fill="#EBEBEB"/>
<path d="M215.037 255.086H40.8606C39.4946 255.086 38.1846 254.543 37.2187 253.577C36.2528 252.611 35.7102 251.301 35.7102 249.935V5.10532C35.7221 3.74717 36.27 2.4487 37.2346 1.49254C38.1992 0.536386 39.5024 -5.20688e-05 40.8606 3.7907e-09H215.037C215.713 3.7907e-09 216.383 0.133218 217.008 0.392051C217.633 0.650884 218.2 1.03026 218.679 1.50852C219.157 1.98678 219.536 2.55456 219.795 3.17944C220.054 3.80432 220.187 4.47406 220.187 5.15042V249.935C220.187 250.612 220.054 251.281 219.795 251.906C219.536 252.531 219.157 253.099 218.679 253.577C218.2 254.055 217.633 254.435 217.008 254.694C216.383 254.952 215.713 255.086 215.037 255.086ZM40.8606 0.180401C39.5552 0.182785 38.3039 0.702424 37.3808 1.62551C36.4577 2.54859 35.9381 3.79988 35.9357 5.10532V249.935C35.9381 251.241 36.4577 252.492 37.3808 253.415C38.3039 254.338 39.5552 254.858 40.8606 254.86H215.037C216.342 254.858 217.594 254.338 218.517 253.415C219.44 252.492 219.959 251.241 219.962 249.935V5.10532C219.959 3.79988 219.44 2.54859 218.517 1.62551C217.594 0.702424 216.342 0.182785 215.037 0.180401H40.8606Z" fill="#EBEBEB"/>
<path d="M410.139 255.086H235.963C234.597 255.086 233.287 254.543 232.321 253.577C231.355 252.611 230.813 251.301 230.813 249.935V5.10532C230.825 3.74717 231.373 2.4487 232.337 1.49254C233.302 0.536386 234.605 -5.20688e-05 235.963 3.7907e-09H410.139C411.505 3.79071e-09 412.815 0.542632 413.781 1.50852C414.747 2.47441 415.29 3.78444 415.29 5.15042V249.935C415.29 251.301 414.747 252.611 413.781 253.577C412.815 254.543 411.505 255.086 410.139 255.086ZM235.963 0.180401C234.658 0.182785 233.407 0.702424 232.483 1.62551C231.56 2.54859 231.041 3.79988 231.038 5.10532V249.935C231.041 251.241 231.56 252.492 232.483 253.415C233.407 254.338 234.658 254.858 235.963 254.86H410.139C411.445 254.858 412.696 254.338 413.619 253.415C414.542 252.492 415.062 251.241 415.064 249.935V5.10532C415.062 3.79988 414.542 2.54859 413.619 1.62551C412.696 0.702424 411.445 0.182785 410.139 0.180401H235.963Z" fill="#EBEBEB"/>
<path d="M451 295.315H0V295.54H451V295.315Z" fill="#EBEBEB"/>
<path d="M357.463 248.537H380.238C381.211 248.538 382.175 248.348 383.075 247.976C383.974 247.604 384.792 247.059 385.48 246.371C386.169 245.683 386.715 244.867 387.088 243.968C387.461 243.069 387.653 242.105 387.653 241.132V207.839C387.653 207.48 387.51 207.136 387.256 206.882C387.003 206.628 386.658 206.486 386.3 206.486C385.941 206.486 385.597 206.628 385.343 206.882C385.089 207.136 384.947 207.48 384.947 207.839V241.132C384.944 242.379 384.447 243.574 383.564 244.455C382.682 245.336 381.485 245.831 380.238 245.831H357.463V248.537Z" fill="#E0E0E0"/>
<path d="M350.95 280.459V249.448L349.146 248.871C348.147 248.558 347.274 247.934 346.655 247.09C346.035 246.247 345.701 245.227 345.7 244.18H362.874C362.874 245.227 362.54 246.247 361.92 247.09C361.301 247.934 360.428 248.558 359.429 248.871L357.625 249.448V280.459L371.894 286.836V289.542L354.278 283.39L336.671 289.542V286.836L350.95 280.459Z" fill="#E0E0E0"/>
<path d="M331.819 245.831H376.747C378.04 245.831 379.28 245.318 380.195 244.405C381.11 243.492 381.625 242.253 381.627 240.96C381.627 239.666 381.113 238.425 380.198 237.51C379.283 236.595 378.042 236.081 376.747 236.081H331.819C330.525 236.081 329.283 236.595 328.368 237.51C327.453 238.425 326.939 239.666 326.939 240.96C326.941 242.253 327.457 243.492 328.371 244.405C329.286 245.318 330.526 245.831 331.819 245.831Z" fill="#F0F0F0"/>
<path d="M384.676 219.556L387.102 184.91C387.192 183.622 386.767 182.352 385.922 181.376C385.077 180.401 383.879 179.8 382.592 179.705C381.306 179.616 380.036 180.041 379.062 180.886C378.088 181.732 377.489 182.929 377.397 184.215L374.97 218.888C374.879 220.176 375.302 221.448 376.148 222.424C376.994 223.4 378.192 224 379.48 224.093C380.771 224.179 382.043 223.75 383.017 222.899C383.991 222.049 384.588 220.846 384.676 219.556Z" fill="#EBEBEB"/>
<path d="M368.819 291.481C368.819 292.092 369 292.688 369.339 293.196C369.679 293.703 370.161 294.099 370.725 294.332C371.289 294.565 371.91 294.626 372.509 294.506C373.107 294.386 373.657 294.092 374.088 293.659C374.519 293.227 374.812 292.676 374.93 292.077C375.048 291.478 374.986 290.858 374.751 290.294C374.516 289.731 374.119 289.25 373.611 288.912C373.102 288.574 372.505 288.394 371.895 288.396C371.078 288.399 370.296 288.725 369.719 289.303C369.142 289.881 368.819 290.664 368.819 291.481Z" fill="#E0E0E0"/>
<path d="M333.587 291.481C333.587 292.091 333.768 292.688 334.107 293.195C334.446 293.702 334.927 294.098 335.491 294.331C336.055 294.565 336.675 294.626 337.273 294.507C337.872 294.388 338.421 294.094 338.853 293.662C339.284 293.231 339.578 292.681 339.697 292.083C339.816 291.484 339.755 290.864 339.522 290.301C339.288 289.737 338.893 289.255 338.385 288.916C337.878 288.577 337.282 288.396 336.672 288.396C335.853 288.396 335.069 288.721 334.49 289.3C333.912 289.878 333.587 290.663 333.587 291.481Z" fill="#E0E0E0"/>
<path d="M90.4344 248.537H67.6499C66.6767 248.538 65.7127 248.348 64.8132 247.976C63.9137 247.604 63.0963 247.059 62.4077 246.371C61.719 245.683 61.1728 244.867 60.8 243.968C60.4273 243.069 60.2355 242.105 60.2355 241.132V207.839C60.2355 207.48 60.378 207.136 60.6318 206.882C60.8855 206.628 61.2296 206.486 61.5885 206.486C61.9473 206.486 62.2915 206.628 62.5452 206.882C62.7989 207.136 62.9415 207.48 62.9415 207.839V241.132C62.9439 242.379 63.441 243.574 64.3237 244.455C65.2065 245.336 66.4027 245.831 67.6499 245.831H90.4254L90.4344 248.537Z" fill="#E0E0E0"/>
<path d="M96.947 280.459V249.448L98.751 248.871C99.7499 248.558 100.623 247.934 101.243 247.09C101.862 246.247 102.197 245.227 102.197 244.18H85.0586C85.0587 245.227 85.393 246.247 86.0128 247.09C86.6325 247.934 87.5054 248.558 88.5043 248.871L90.3083 249.448V280.459L76.0026 286.836V289.542L93.6186 283.39L111.235 289.542V286.836L96.947 280.459Z" fill="#E0E0E0"/>
<path d="M116.078 245.831H71.1497C69.8571 245.831 68.6172 245.318 67.7023 244.405C66.7875 243.492 66.2723 242.253 66.2699 240.96C66.2699 239.666 66.784 238.425 67.6992 237.51C68.6143 236.595 69.8555 236.081 71.1497 236.081H116.078C117.373 236.081 118.614 236.595 119.529 237.51C120.444 238.425 120.958 239.666 120.958 240.96C120.956 242.253 120.441 243.492 119.526 244.405C118.611 245.318 117.371 245.831 116.078 245.831Z" fill="#F0F0F0"/>
<path d="M63.2213 219.556L60.7949 184.91C60.7056 183.622 61.1299 182.352 61.9752 181.376C62.8204 180.401 64.0177 179.8 65.3049 179.705C66.5916 179.616 67.8611 180.041 68.8351 180.886C69.8091 181.732 70.408 182.929 70.5004 184.215L72.9268 218.888C73.0186 220.176 72.5951 221.448 71.7494 222.424C70.9036 223.4 69.7049 224 68.4168 224.093C67.1264 224.179 65.8543 223.75 64.8801 222.899C63.9059 222.049 63.3092 220.846 63.2213 219.556Z" fill="#EBEBEB"/>
<path d="M79.0782 291.481C79.0782 292.092 78.8971 292.688 78.5577 293.196C78.2184 293.703 77.736 294.099 77.1718 294.332C76.6076 294.565 75.9869 294.626 75.3883 294.506C74.7896 294.386 74.24 294.092 73.8089 293.659C73.3778 293.227 73.0848 292.676 72.9668 292.077C72.8487 291.478 72.9111 290.858 73.146 290.294C73.3809 289.731 73.7776 289.25 74.2861 288.912C74.7946 288.574 75.3919 288.394 76.0024 288.396C76.819 288.399 77.6013 288.725 78.1779 289.303C78.7545 289.881 79.0783 290.664 79.0782 291.481Z" fill="#E0E0E0"/>
<path d="M114.31 291.481C114.31 292.092 114.129 292.688 113.79 293.196C113.451 293.703 112.968 294.099 112.404 294.332C111.84 294.565 111.219 294.626 110.62 294.506C110.022 294.386 109.472 294.092 109.041 293.659C108.61 293.227 108.317 292.676 108.199 292.077C108.081 291.478 108.143 290.858 108.378 290.294C108.613 289.731 109.01 289.25 109.518 288.912C110.027 288.574 110.624 288.394 111.235 288.396C112.051 288.399 112.834 288.725 113.41 289.303C113.987 289.881 114.31 290.664 114.31 291.481Z" fill="#E0E0E0"/>
<path d="M187.228 295.576H169.63L167.826 262.22H189.032L187.228 295.576Z" fill="#EBEBEB"/>
<path d="M173.689 295.576H166.473V294.097L173.689 293.195V295.576Z" fill="#E0E0E0"/>
<path d="M170.478 259.514H186.317C187.035 259.514 187.723 259.799 188.23 260.307C188.738 260.814 189.023 261.502 189.023 262.22H167.826C167.826 261.502 168.111 260.814 168.619 260.307C169.126 259.799 169.814 259.514 170.532 259.514H170.478Z" fill="#E0E0E0"/>
<path d="M151.139 209.074H122.988V205.701L151.139 203.897V209.074Z" fill="#E0E0E0"/>
<path d="M192.784 212.511H109.503V224.039H192.784V212.511Z" fill="#F0F0F0"/>
<path d="M210.049 209.075H92.5363V215.948H210.049V209.075Z" fill="#FAFAFA"/>
<path d="M199.135 295.576H204.438L195.256 215.948H189.032L199.135 295.576Z" fill="#E6E6E6"/>
<path d="M113.553 215.948H107.329L98.1376 295.576H103.45L113.553 215.948Z" fill="#E6E6E6"/>
<path d="M179.66 207.361C177.255 195.412 174.85 183.464 172.444 171.515C172.092 169.801 169.486 170.532 169.828 172.228L176.702 206.368H161.819C161.46 206.368 161.116 206.511 160.862 206.765C160.608 207.018 160.466 207.362 160.466 207.721C160.466 208.08 160.608 208.424 160.862 208.678C161.116 208.932 161.46 209.074 161.819 209.074H178.352C178.559 209.07 178.763 209.018 178.947 208.925C179.132 208.831 179.293 208.696 179.418 208.532C179.544 208.367 179.631 208.177 179.673 207.974C179.715 207.771 179.71 207.561 179.66 207.361Z" fill="#E0E0E0"/>
<path d="M162.811 197.746L167.447 131.458C169.158 132.683 170.527 134.326 171.422 136.23C172.318 138.134 172.71 140.237 172.562 142.336L169.396 187.688C169.247 189.787 168.565 191.813 167.412 193.574C166.259 195.334 164.676 196.77 162.811 197.746Z" fill="#FAFAFA"/>
<path d="M198.936 189.808H191.395C189.951 189.808 188.78 190.979 188.78 192.423V206.459C188.78 207.903 189.951 209.074 191.395 209.074H198.936C200.381 209.074 201.552 207.903 201.552 206.459V192.423C201.552 190.979 200.381 189.808 198.936 189.808Z" fill="#F5F5F5"/>
<path d="M193.831 182.628C191.837 182.628 190.223 183.124 190.223 183.737C190.223 184.351 191.846 183.521 193.831 183.521C194.092 183.521 194.345 183.521 194.597 183.521V187.895H195.734V183.692C196.762 183.89 197.439 184.089 197.439 183.692C197.439 183.106 195.824 182.628 193.831 182.628Z" fill="#E0E0E0"/>
<path d="M197.195 186.507H193.127V190.575H197.195V186.507Z" fill="#F0F0F0"/>
<path d="M255.113 224.039H338.394V212.511H255.113V224.039Z" fill="#F0F0F0"/>
<path d="M237.857 215.948L355.37 215.948V209.075H237.857V215.948Z" fill="#FAFAFA"/>
<path d="M248.763 295.576H243.459L252.641 215.948H258.865L248.763 295.576Z" fill="#E6E6E6"/>
<path d="M334.353 215.948H340.568L349.76 295.576H344.447L334.353 215.948Z" fill="#E6E6E6"/>
<path d="M314.365 209.074H342.516V205.701L314.365 203.897V209.074Z" fill="#E0E0E0"/>
<path d="M257.729 148.568V209.075H261.634L262.536 203.663C262.702 202.713 263.197 201.853 263.934 201.232C264.672 200.612 265.604 200.272 266.568 200.271H302.982C303.946 200.272 304.878 200.612 305.616 201.232C306.353 201.853 306.848 202.713 307.014 203.663L307.916 209.075H311.821V148.568H257.729Z" fill="#F5F5F5"/>
<path d="M275.227 207.361C277.633 195.412 280.038 183.464 282.443 171.515C282.795 169.801 285.402 170.532 285.059 172.228L278.186 206.368H293.069C293.428 206.368 293.772 206.511 294.026 206.765C294.279 207.018 294.422 207.362 294.422 207.721C294.422 208.08 294.279 208.424 294.026 208.678C293.772 208.932 293.428 209.074 293.069 209.074H276.535C276.328 209.07 276.125 209.018 275.94 208.925C275.756 208.831 275.595 208.696 275.469 208.532C275.344 208.367 275.257 208.177 275.215 207.974C275.173 207.771 275.177 207.561 275.227 207.361Z" fill="#E0E0E0"/>
<path d="M292.077 197.746L287.44 131.458C285.729 132.683 284.361 134.326 283.465 136.23C282.57 138.134 282.178 140.237 282.326 142.336L285.492 187.688C285.639 189.788 286.321 191.814 287.473 193.575C288.626 195.336 290.211 196.772 292.077 197.746Z" fill="#E0E0E0"/>
<path d="M196.329 83.8318H48.5547V173.878H196.329V83.8318Z" fill="#EBEBEB"/>
<path d="M197.43 83.7957H196.347V173.842H197.43V83.7957Z" fill="#E0E0E0"/>
<path d="M53.9215 87.7375H53.0286V168.764H53.9215V87.7375Z" fill="#E0E0E0"/>
<path d="M191.513 87.7375H52.9384V168.764H191.513V87.7375Z" fill="white"/>
<path d="M102.025 123.43V127.29H111.027V123.43H102.025Z" fill="#F5F5F5"/>
<path d="M103.784 152.483V155.487H112.786V152.483H103.784Z" fill="#F5F5F5"/>
<path d="M105.245 122.167H76.0026V163.262H105.245V122.167Z" fill="#F0F0F0"/>
<path d="M101.764 159.122V162.125H110.766V159.122H101.764Z" fill="#F5F5F5"/>
<path d="M103.261 131.647V134.65H112.263V131.647H103.261Z" fill="#F5F5F5"/>
<path d="M101.286 139.106V142.11H110.288V139.106H101.286Z" fill="#F5F5F5"/>
<path d="M99.3823 127.218H79.4481V130.754H99.3823V127.218Z" fill="#E6E6E6"/>
<path d="M99.698 142.327H79.7638L79.4481 140.721H99.3733L99.698 142.327Z" fill="#E6E6E6"/>
<path d="M86.5198 134.29H79.4481V137.825H86.5198V134.29Z" fill="#E6E6E6"/>
<path d="M146.746 114.743H135.327V131.142H146.746V114.743Z" fill="#F5F5F5"/>
<path d="M71.0325 140.73H59.6132V157.128H71.0325V140.73Z" fill="#F5F5F5"/>
<path d="M72.5839 93.6094H61.1646V105.029H72.5839V93.6094Z" fill="#F5F5F5"/>
<path d="M126.722 145.962H115.303V157.381H126.722V145.962Z" fill="#F5F5F5"/>
<path d="M182.808 116.159H153.566V157.255H182.808V116.159Z" fill="#F5F5F5"/>
<path d="M178.578 122.104H157.57V122.555H178.578V122.104Z" fill="#E0E0E0"/>
<path d="M168.295 122.546H167.844V152.979H168.295V122.546Z" fill="#E0E0E0"/>
<path d="M177.947 122.546H177.496V152.979H177.947V122.546Z" fill="#E0E0E0"/>
<path d="M159.726 122.546H159.275V152.979H159.726V122.546Z" fill="#E0E0E0"/>
<path d="M158.22 122.546H157.769V152.979H158.22V122.546Z" fill="#E0E0E0"/>
<path d="M177.496 124.151H157.994V124.602H177.496V124.151Z" fill="#E0E0E0"/>
<path d="M221.152 332.577C317.741 332.577 396.041 328.005 396.041 322.366C396.041 316.727 317.741 312.155 221.152 312.155C124.564 312.155 46.2635 316.727 46.2635 322.366C46.2635 328.005 124.564 332.577 221.152 332.577Z" fill="#F5F5F5"/>
<path d="M248.23 135.363C248.23 140.676 246.122 145.772 242.367 149.532C238.612 153.292 233.519 155.407 228.206 155.415H220.918V174.519H201.146V182.357C201.035 187.6 198.874 192.591 195.126 196.26C191.379 199.929 186.343 201.983 181.099 201.983C175.855 201.983 170.819 199.929 167.072 196.26C163.324 192.591 161.163 187.6 161.052 182.357V174.519H142.588V155.415H134.2C128.882 155.415 123.781 153.302 120.021 149.542C116.261 145.781 114.148 140.681 114.148 135.363C114.148 130.045 116.261 124.945 120.021 121.185C123.781 117.424 128.882 115.312 134.2 115.312H142.588V96.2073H161.692V104.632C161.636 107.3 162.113 109.953 163.095 112.435C164.077 114.917 165.544 117.177 167.411 119.085C169.278 120.992 171.508 122.507 173.968 123.541C176.428 124.576 179.07 125.109 181.739 125.109C184.408 125.109 187.051 124.576 189.511 123.541C191.971 122.507 194.2 120.992 196.068 119.085C197.935 117.177 199.402 114.917 200.384 112.435C201.366 109.953 201.843 107.3 201.786 104.632V96.2433H220.891V115.348H228.206C233.513 115.355 238.601 117.466 242.354 121.217C246.108 124.969 248.221 130.056 248.23 135.363Z" fill="#407BFF"/>
<g opacity="0.5">
<path d="M248.23 135.363C248.23 140.676 246.122 145.772 242.367 149.532C238.612 153.292 233.519 155.407 228.206 155.415H220.918V174.519H201.146V182.357C201.035 187.6 198.874 192.591 195.126 196.26C191.379 199.929 186.343 201.983 181.099 201.983C175.855 201.983 170.819 199.929 167.072 196.26C163.324 192.591 161.163 187.6 161.052 182.357V174.519H142.588V155.415H134.2C128.882 155.415 123.781 153.302 120.021 149.542C116.261 145.781 114.148 140.681 114.148 135.363C114.148 130.045 116.261 124.945 120.021 121.185C123.781 117.424 128.882 115.312 134.2 115.312H142.588V96.2073H161.692V104.632C161.636 107.3 162.113 109.953 163.095 112.435C164.077 114.917 165.544 117.177 167.411 119.085C169.278 120.992 171.508 122.507 173.968 123.541C176.428 124.576 179.07 125.109 181.739 125.109C184.408 125.109 187.051 124.576 189.511 123.541C191.971 122.507 194.2 120.992 196.068 119.085C197.935 117.177 199.402 114.917 200.384 112.435C201.366 109.953 201.843 107.3 201.786 104.632V96.2433H220.891V115.348H228.206C233.513 115.355 238.601 117.466 242.354 121.217C246.108 124.969 248.221 130.056 248.23 135.363Z" fill="white"/>
</g>
<path d="M228.278 155.315H219.89V174.42H298.201V155.315H305.48C310.798 155.315 315.898 153.203 319.659 149.442C323.419 145.682 325.532 140.582 325.532 135.264C325.532 129.946 323.419 124.846 319.659 121.085C315.898 117.325 310.798 115.212 305.48 115.212H298.201V96.108H279.097V87.7194C279.097 82.4014 276.984 77.3013 273.224 73.5409C269.464 69.7805 264.363 67.668 259.045 67.668C253.727 67.668 248.627 69.7805 244.867 73.5409C241.106 77.3013 238.994 82.4014 238.994 87.7194V96.108H219.89V115.212H228.278C233.596 115.212 238.696 117.325 242.457 121.085C246.217 124.846 248.33 129.946 248.33 135.264C248.33 140.582 246.217 145.682 242.457 149.442C238.696 153.203 233.596 155.315 228.278 155.315Z" fill="#407BFF"/>
<g opacity="0.3">
<path d="M228.278 155.315H219.89V174.42H298.201V155.315H305.48C310.798 155.315 315.898 153.203 319.659 149.442C323.419 145.682 325.532 140.582 325.532 135.264C325.532 129.946 323.419 124.846 319.659 121.085C315.898 117.325 310.798 115.212 305.48 115.212H298.201V96.108H279.097V87.7194C279.097 82.4014 276.984 77.3013 273.224 73.5409C269.464 69.7805 264.363 67.668 259.045 67.668C253.727 67.668 248.627 69.7805 244.867 73.5409C241.106 77.3013 238.994 82.4014 238.994 87.7194V96.108H219.89V115.212H228.278C233.596 115.212 238.696 117.325 242.457 121.085C246.217 124.846 248.33 129.946 248.33 135.264C248.33 140.582 246.217 145.682 242.457 149.442C238.696 153.203 233.596 155.315 228.278 155.315Z" fill="white"/>
</g>
<path d="M233.059 87.2503L231.372 86.8264C229.556 86.4528 227.787 85.8811 226.095 85.1216L225.87 85.0134C224.21 84.2106 222.136 83.2094 221.694 79.7186C221.686 79.4984 221.601 79.2878 221.455 79.1231C221.308 78.9585 221.109 78.8501 220.891 78.8166C205.431 78.068 200.046 69.8868 200.037 60.7766C200.037 51.8468 205.909 43.4131 222.587 43.2147C238.047 43.0253 245.786 52.5414 245.317 62.3461C245.01 68.606 240.103 77.184 230.768 79.1323C229.622 79.5202 227.584 79.5924 226.871 80.6206C226.712 80.8699 226.628 81.1593 226.628 81.455C226.628 81.7506 226.712 82.0401 226.871 82.2893C227.206 82.8018 227.617 83.261 228.089 83.6514C229.748 85.0765 233.059 87.2503 233.059 87.2503Z" fill="white"/>
<path d="M233.059 87.7013H232.951L231.264 87.2864C229.417 86.9022 227.618 86.3185 225.897 85.5456L225.68 85.4373C224.012 84.6345 221.721 83.5341 221.252 79.7908C221.252 79.7096 221.17 79.2677 220.864 79.2496C202.364 78.3476 199.595 67.2981 199.586 60.7947C199.586 55.4639 201.814 43.0343 222.587 42.7547C232.391 42.6555 237.921 46.2545 240.879 49.3213C242.55 51.0409 243.847 53.087 244.69 55.3314C245.533 57.5758 245.903 59.97 245.777 62.3642C245.468 66.4461 243.857 70.3211 241.181 73.4191C238.505 76.5171 234.906 78.6746 230.912 79.5743C230.534 79.6961 230.148 79.7925 229.757 79.863C228.792 80.0614 227.701 80.2869 227.295 80.8822C227.184 81.056 227.125 81.2579 227.125 81.464C227.125 81.6701 227.184 81.872 227.295 82.0458C227.606 82.5201 227.986 82.9457 228.423 83.3086C230.037 84.6977 233.311 86.8444 233.347 86.8715C233.436 86.9289 233.5 87.0159 233.53 87.1167C233.56 87.2175 233.553 87.3257 233.51 87.4217C233.474 87.51 233.411 87.5846 233.33 87.6349C233.249 87.6851 233.154 87.7084 233.059 87.7013ZM223.056 43.6567H222.596C202.625 43.9002 200.479 55.6984 200.488 60.7947C200.488 66.9824 203.148 77.4907 220.909 78.3476C221.242 78.3825 221.55 78.5371 221.778 78.7827C222.005 79.0282 222.135 79.348 222.145 79.6826C222.56 82.9298 224.418 83.8318 226.068 84.6255L226.294 84.7338C227.716 85.3867 229.204 85.8856 230.732 86.2221C229.73 85.5275 228.585 84.6887 227.8 84.0122C227.295 83.5912 226.857 83.0954 226.501 82.5419C226.289 82.2225 226.176 81.8475 226.176 81.464C226.176 81.0805 226.289 80.7056 226.501 80.3861C227.106 79.4841 228.386 79.2316 229.523 78.9971C229.929 78.9068 230.326 78.8257 230.623 78.7264C234.441 77.8862 237.887 75.8399 240.452 72.8901C243.017 69.9403 244.564 66.2434 244.866 62.3461C244.987 60.0745 244.636 57.8025 243.837 55.6728C243.038 53.5431 241.806 51.6018 240.221 49.9707C237.443 47.0663 232.211 43.6567 223.056 43.6567Z" fill="#407BFF"/>
<path d="M214.676 83.4619C215.749 82.2442 216.255 81.0265 215.984 79.908C215.425 77.5538 213.341 77.5899 211.997 77.1389C202.661 75.1815 197.755 68.4165 197.448 62.1566C196.979 52.3519 204.718 42.8268 220.178 43.0162C236.865 43.2237 242.728 51.6574 242.728 60.5781C242.728 69.6613 237.316 77.8424 221.874 78.6181C221.36 78.6181 221.125 79.1142 221.062 79.5201C220.629 83.0109 218.555 84.0301 216.895 84.8149L216.669 84.9231C214.977 85.6787 213.208 86.2502 211.393 86.6279L209.706 87.0428C209.706 87.0428 213.206 85.1035 214.676 83.4619Z" fill="white"/>
<path d="M209.679 87.4938C209.588 87.4952 209.5 87.4692 209.424 87.4194C209.348 87.3695 209.289 87.298 209.255 87.2142C209.215 87.1127 209.213 87.0002 209.249 86.8973C209.286 86.7945 209.358 86.7084 209.454 86.655C209.454 86.655 212.935 84.7157 214.306 83.1552C215.326 81.9826 215.731 80.9273 215.515 80.0072C215.127 78.3746 213.945 78.095 212.701 77.7973C212.394 77.7252 212.087 77.653 211.799 77.5628C201.967 75.5062 197.24 68.3444 196.943 62.1747C196.817 59.7792 197.188 57.3837 198.03 55.1379C198.873 52.8921 200.17 50.8444 201.841 49.1227C204.799 46.065 210.328 42.4299 220.133 42.5562C240.879 42.8178 243.143 55.2383 243.134 60.5962C243.134 67.0996 240.356 78.1581 221.856 79.0511C221.549 79.0511 221.477 79.5021 221.468 79.5923C220.999 83.3266 218.708 84.436 217.039 85.2388L216.823 85.347C215.086 86.119 213.272 86.7026 211.411 87.0879L209.715 87.5028L209.679 87.4938ZM219.682 43.4582C210.518 43.4582 205.25 46.8677 202.544 49.7722C200.959 51.4032 199.727 53.3446 198.928 55.4743C198.128 57.604 197.778 59.876 197.899 62.1476C198.178 67.9745 202.679 74.7756 212.087 76.7059C212.385 76.8051 212.665 76.8683 212.989 76.9404C214.234 77.2381 215.948 77.644 216.462 79.8088C216.751 81.0355 216.282 82.3614 215.055 83.7686C214.264 84.5921 213.38 85.3216 212.421 85.9424C213.83 85.612 215.202 85.1406 216.516 84.5353L216.742 84.427C218.383 83.6333 220.25 82.7313 220.665 79.4841C220.671 79.1484 220.8 78.8264 221.028 78.58C221.256 78.3336 221.567 78.1802 221.901 78.1491C239.652 77.2922 242.313 66.7839 242.322 60.5872C242.322 55.5269 240.185 43.7288 220.205 43.4492L219.682 43.4582Z" fill="#407BFF"/>
<path d="M215.028 61.4713L218.961 65.404L227.845 58.2061" fill="white"/>
<path d="M218.96 66.306C218.842 66.3067 218.724 66.284 218.614 66.2391C218.504 66.1942 218.404 66.1281 218.32 66.0445L214.387 62.1117C214.293 62.0309 214.216 61.9314 214.162 61.8195C214.108 61.7076 214.077 61.5857 214.073 61.4614C214.068 61.3372 214.089 61.2133 214.134 61.0976C214.18 60.9818 214.248 60.8767 214.336 60.7888C214.424 60.7009 214.529 60.6321 214.645 60.5868C214.761 60.5414 214.885 60.5205 215.009 60.5253C215.133 60.5301 215.255 60.5605 215.367 60.6147C215.479 60.6688 215.578 60.7455 215.659 60.8399L219.024 64.1953L227.277 57.5115C227.368 57.4298 227.474 57.3674 227.59 57.3281C227.706 57.2888 227.828 57.2735 227.95 57.283C228.072 57.2925 228.191 57.3267 228.299 57.3835C228.407 57.4403 228.503 57.5185 228.58 57.6133C228.657 57.7082 228.714 57.8177 228.747 57.9352C228.781 58.0528 228.79 58.1759 228.775 58.2972C228.759 58.4184 228.719 58.5352 228.657 58.6405C228.595 58.7458 228.512 58.8373 228.413 58.9096L219.529 66.1256C219.365 66.2484 219.165 66.312 218.96 66.306Z" fill="#407BFF"/>
<path d="M333.848 40.0758C334.082 40.1602 334.337 40.1662 334.575 40.093C334.812 40.0198 335.019 39.8713 335.165 39.6699L342.002 30.1267C342.09 30.0065 342.154 29.8699 342.188 29.7249C342.223 29.5799 342.228 29.4295 342.204 29.2824C342.179 29.1353 342.126 28.9946 342.046 28.8685C341.967 28.7425 341.863 28.6336 341.741 28.5482C341.496 28.3749 341.193 28.3052 340.898 28.3542C340.602 28.4032 340.338 28.5669 340.162 28.8098L333.325 38.3529C333.237 38.4732 333.174 38.6098 333.139 38.7548C333.104 38.8998 333.099 39.0502 333.124 39.1973C333.148 39.3443 333.201 39.485 333.281 39.6111C333.361 39.7372 333.464 39.8461 333.587 39.9314C333.667 39.9916 333.755 40.0402 333.848 40.0758Z" fill="#407BFF"/>
<path d="M341.93 52.6406C342.115 52.7082 342.314 52.7269 342.507 52.6947L353.846 50.8185C354.125 50.7516 354.369 50.5813 354.528 50.3418C354.687 50.1023 354.749 49.8114 354.702 49.5278C354.656 49.2442 354.503 48.9889 354.275 48.8133C354.048 48.6377 353.762 48.5549 353.476 48.5816L342.138 50.4577C341.892 50.5004 341.667 50.6225 341.498 50.8055C341.329 50.9884 341.224 51.2218 341.201 51.47C341.177 51.7181 341.236 51.9671 341.368 52.1786C341.499 52.3901 341.697 52.5524 341.93 52.6406Z" fill="#407BFF"/>
<path d="M307.095 44.748C307.351 44.8384 307.632 44.8339 307.885 44.7351C308.139 44.6363 308.349 44.4499 308.476 44.2098C308.604 43.9696 308.641 43.6916 308.581 43.4262C308.522 43.1608 308.369 42.9257 308.15 42.7636L298.318 35.719C298.079 35.5903 297.8 35.5527 297.535 35.6131C297.27 35.6735 297.035 35.8279 296.875 36.0477C296.714 36.2675 296.639 36.5379 296.662 36.8091C296.685 37.0802 296.806 37.3338 297.002 37.523L306.833 44.5676C306.911 44.6405 306.999 44.7013 307.095 44.748Z" fill="#407BFF"/>
<path d="M347.847 73.964C348.105 74.0595 348.388 74.0587 348.645 73.9616C348.902 73.8645 349.115 73.6777 349.244 73.4357C349.374 73.1937 349.412 72.913 349.351 72.6453C349.29 72.3776 349.134 72.1411 348.912 71.9796L339.666 65.3498C339.545 65.2628 339.407 65.2005 339.262 65.1665C339.116 65.1325 338.966 65.1276 338.818 65.1519C338.671 65.1761 338.53 65.2292 338.403 65.3081C338.276 65.3869 338.166 65.49 338.079 65.6114C337.992 65.7328 337.929 65.8702 337.895 66.0157C337.861 66.1612 337.856 66.3119 337.881 66.4594C337.905 66.6068 337.958 66.748 338.037 66.8749C338.116 67.0018 338.219 67.1119 338.34 67.199L347.586 73.8196C347.667 73.8779 347.755 73.9264 347.847 73.964Z" fill="#407BFF"/>
<path d="M319.443 36.9819C319.629 37.0505 319.83 37.0691 320.025 37.0361C320.221 37.0031 320.404 36.9195 320.558 36.7937C320.711 36.6679 320.828 36.5042 320.899 36.3188C320.969 36.1335 320.99 35.933 320.959 35.7372L319.001 23.9119C318.987 23.7566 318.94 23.6059 318.865 23.4692C318.79 23.3325 318.687 23.2128 318.564 23.1175C318.44 23.0222 318.298 22.9533 318.147 22.9152C317.996 22.8772 317.838 22.8706 317.684 22.8961C317.53 22.9215 317.383 22.9784 317.252 23.0632C317.121 23.1479 317.009 23.2588 316.923 23.3888C316.837 23.5188 316.778 23.6651 316.751 23.8188C316.723 23.9724 316.728 24.13 316.764 24.2818L318.722 36.0799C318.749 36.2814 318.831 36.4716 318.958 36.6303C319.085 36.7891 319.253 36.9106 319.443 36.9819Z" fill="#407BFF"/>
<g opacity="0.5">
<path d="M333.848 40.0758C334.082 40.1602 334.337 40.1662 334.575 40.093C334.812 40.0198 335.019 39.8713 335.165 39.6699L342.002 30.1267C342.09 30.0065 342.154 29.8699 342.188 29.7249C342.223 29.5799 342.228 29.4295 342.204 29.2824C342.179 29.1353 342.126 28.9946 342.046 28.8685C341.967 28.7425 341.863 28.6336 341.741 28.5482C341.496 28.3749 341.193 28.3052 340.898 28.3542C340.602 28.4032 340.338 28.5669 340.162 28.8098L333.325 38.3529C333.237 38.4732 333.174 38.6098 333.139 38.7548C333.104 38.8998 333.099 39.0502 333.124 39.1973C333.148 39.3443 333.201 39.485 333.281 39.6111C333.361 39.7372 333.464 39.8461 333.587 39.9314C333.667 39.9916 333.755 40.0402 333.848 40.0758Z" fill="white"/>
<path d="M341.93 52.6406C342.115 52.7082 342.314 52.7269 342.507 52.6947L353.846 50.8185C354.125 50.7516 354.369 50.5813 354.528 50.3418C354.687 50.1023 354.749 49.8114 354.702 49.5278C354.656 49.2442 354.503 48.9889 354.275 48.8133C354.048 48.6377 353.762 48.5549 353.476 48.5816L342.138 50.4577C341.892 50.5004 341.667 50.6225 341.498 50.8055C341.329 50.9884 341.224 51.2218 341.201 51.47C341.177 51.7181 341.236 51.9671 341.368 52.1786C341.499 52.3901 341.697 52.5524 341.93 52.6406Z" fill="white"/>
<path d="M307.095 44.748C307.351 44.8384 307.632 44.8339 307.885 44.7351C308.139 44.6363 308.349 44.4499 308.476 44.2098C308.604 43.9696 308.641 43.6916 308.581 43.4262C308.522 43.1608 308.369 42.9257 308.15 42.7636L298.318 35.719C298.079 35.5903 297.8 35.5527 297.535 35.6131C297.27 35.6735 297.035 35.8279 296.875 36.0477C296.714 36.2675 296.639 36.5379 296.662 36.8091C296.685 37.0802 296.806 37.3338 297.002 37.523L306.833 44.5676C306.911 44.6405 306.999 44.7013 307.095 44.748Z" fill="white"/>
<path d="M347.847 73.964C348.105 74.0595 348.388 74.0587 348.645 73.9616C348.902 73.8645 349.115 73.6777 349.244 73.4357C349.374 73.1937 349.412 72.913 349.351 72.6453C349.29 72.3776 349.134 72.1411 348.912 71.9796L339.666 65.3498C339.545 65.2628 339.407 65.2005 339.262 65.1665C339.116 65.1325 338.966 65.1276 338.818 65.1519C338.671 65.1761 338.53 65.2292 338.403 65.3081C338.276 65.3869 338.166 65.49 338.079 65.6114C337.992 65.7328 337.929 65.8702 337.895 66.0157C337.861 66.1612 337.856 66.3119 337.881 66.4594C337.905 66.6068 337.958 66.748 338.037 66.8749C338.116 67.0018 338.219 67.1119 338.34 67.199L347.586 73.8196C347.667 73.8779 347.755 73.9264 347.847 73.964Z" fill="white"/>
<path d="M319.443 36.9819C319.629 37.0505 319.83 37.0691 320.025 37.0361C320.221 37.0031 320.404 36.9195 320.558 36.7937C320.711 36.6679 320.828 36.5042 320.899 36.3188C320.969 36.1335 320.99 35.933 320.959 35.7372L319.001 23.9119C318.987 23.7566 318.94 23.6059 318.865 23.4692C318.79 23.3325 318.687 23.2128 318.564 23.1175C318.44 23.0222 318.298 22.9533 318.147 22.9152C317.996 22.8772 317.838 22.8706 317.684 22.8961C317.53 22.9215 317.383 22.9784 317.252 23.0632C317.121 23.1479 317.009 23.2588 316.923 23.3888C316.837 23.5188 316.778 23.6651 316.751 23.8188C316.723 23.9724 316.728 24.13 316.764 24.2818L318.722 36.0799C318.749 36.2814 318.831 36.4716 318.958 36.6303C319.085 36.7891 319.253 36.9106 319.443 36.9819Z" fill="white"/>
</g>
<path d="M309.594 47.9774C312.062 44.9272 315.607 42.9396 319.497 42.4237C323.387 41.9078 327.326 42.9029 330.505 45.2041C333.683 47.5054 335.859 50.9376 336.583 54.7943C337.307 58.6509 336.526 62.6385 334.399 65.9362C330.791 70.9062 324.413 71.4023 319.065 73.531C317.405 74.1895 314.194 78.8077 314.194 78.8077L303.676 71.1858C303.676 71.1858 307.059 66.6758 307.167 64.9169C307.519 59.1712 305.995 52.9474 309.594 47.9774Z" fill="#407BFF"/>
<path opacity="0.4" d="M309.594 47.9774C312.062 44.9272 315.607 42.9396 319.497 42.4237C323.387 41.9078 327.326 42.9029 330.505 45.2041C333.683 47.5054 335.859 50.9376 336.583 54.7943C337.307 58.6509 336.526 62.6385 334.399 65.9362C330.791 70.9062 324.413 71.4023 319.065 73.531C317.405 74.1895 314.194 78.8077 314.194 78.8077L303.676 71.1858C303.676 71.1858 307.059 66.6758 307.167 64.9169C307.519 59.1712 305.995 52.9474 309.594 47.9774Z" fill="white"/>
<path d="M303.974 77.094L308.484 80.3412C308.88 80.6286 309.329 80.8351 309.805 80.949C310.281 81.0628 310.775 81.0818 311.258 81.0047C311.742 80.9276 312.205 80.7561 312.622 80.4998C313.039 80.2436 313.401 79.9077 313.689 79.5113L303.162 71.8984C302.585 72.6965 302.346 73.6902 302.499 74.6633C302.651 75.6364 303.181 76.51 303.974 77.094Z" fill="#263238"/>
<path d="M303.974 81.8834C304.626 82.3548 305.439 82.5483 306.234 82.4215C307.028 82.2947 307.74 81.8579 308.213 81.2069L303.298 77.644C302.826 78.2963 302.633 79.1089 302.759 79.9036C302.886 80.6983 303.323 81.4103 303.974 81.8834Z" fill="#263238"/>
<path opacity="0.5" d="M303.974 81.8834C304.626 82.3548 305.439 82.5483 306.234 82.4215C307.028 82.2947 307.74 81.8579 308.213 81.2069L303.298 77.644C302.826 78.2963 302.633 79.1089 302.759 79.9036C302.886 80.6983 303.323 81.4103 303.974 81.8834Z" fill="white"/>
<g opacity="0.7">
<path d="M303.974 77.094L308.484 80.3412C308.88 80.6286 309.329 80.8351 309.805 80.949C310.281 81.0628 310.775 81.0818 311.258 81.0047C311.742 80.9276 312.205 80.7561 312.622 80.4998C313.039 80.2436 313.401 79.9077 313.689 79.5113L303.162 71.8984C302.585 72.6965 302.346 73.6902 302.499 74.6633C302.651 75.6364 303.181 76.51 303.974 77.094Z" fill="white"/>
</g>
<path opacity="0.3" d="M312.723 46.7324C307.104 54.5708 305.652 66.9643 311.704 71.2939C317.757 75.6235 329.744 69.2193 334.633 62.4362C337.628 58.26 335.156 51.3507 329.104 47.0211C323.051 42.6915 315.7 42.5562 312.723 46.7324Z" fill="white"/>
<path opacity="0.4" d="M311.109 57.1236C310.106 58.5193 309.54 60.181 309.482 61.8984C309.424 63.6159 309.877 65.3119 310.783 66.772C311.69 68.232 313.009 69.3905 314.573 70.1007C316.138 70.811 317.878 71.0412 319.574 70.7622C321.27 70.4831 322.844 69.7074 324.099 68.5332C325.354 67.359 326.232 65.839 326.623 64.1655C327.013 62.4921 326.899 60.7404 326.293 59.1321C325.688 57.5237 324.62 56.131 323.223 55.1302C321.351 53.7895 319.025 53.2464 316.753 53.6202C314.482 53.994 312.452 55.254 311.109 57.1236Z" fill="white"/>
<path opacity="0.4" d="M311.993 60.4339C310.026 63.1399 311.65 65.5933 314.392 67.5597C317.134 69.5261 319.939 70.2657 321.906 67.5597C323.872 64.8537 322.212 62.4363 319.479 60.47C316.746 58.5036 313.95 57.7279 311.993 60.4339Z" fill="white"/>
<path d="M96.2074 79.6014L99.2832 82.163L117.071 66.9643L139.783 71.5555L157.092 55.2293L158.644 57.358L162.748 48.1035L152.682 49.1769L154.233 51.3056L139.043 68.1279L116.304 63.7081L96.2074 79.6014Z" fill="#407BFF"/>
<g opacity="0.3">
<path d="M96.2074 79.6014L99.2832 82.163L117.071 66.9643L139.783 71.5555L157.092 55.2293L158.644 57.358L162.748 48.1035L152.682 49.1769L154.233 51.3056L139.043 68.1279L116.304 63.7081L96.2074 79.6014Z" fill="white"/>
</g>
<path d="M264.376 212.62C264.899 220.792 262.879 231.309 260.949 239.147C259.352 245.624 258.243 247.41 257.819 250.278C257.359 253.543 258.351 258.396 258.098 262.5C257.133 278.736 250.53 311.569 250.53 311.569L244.992 311.217L245.137 247.653L248.745 186.065L270.6 191.892C272.783 203.852 264.376 212.62 264.376 212.62Z" fill="#DD8C6A"/>
<path d="M292.501 312.697L287.467 312.552L273.495 250.495L259.37 190.449L282.019 189.772C287.431 200.596 281.938 211.42 281.938 211.42C284.761 219.114 285.835 229.767 286.223 237.84C286.547 244.497 285.961 246.535 286.394 249.394C286.899 252.66 288.487 256.998 289.434 261.03C293.15 277.032 292.501 312.697 292.501 312.697Z" fill="#DD8C6A"/>
<path d="M218.735 134.93L221.369 138.394C223.994 139.206 223.94 143.111 223.94 143.111C224.508 143.553 229.848 146.927 231.092 148.018L227.944 151.41C226.582 149.326 221.847 145.799 221.847 145.799C221.847 145.799 215.407 141.858 214.351 140.451C213.296 139.043 215.055 134.858 215.055 134.858L218.735 134.93Z" fill="#DD8C6A"/>
<path d="M226.023 143.463C230.344 146.611 236.721 151.437 236.721 151.437C240.117 147.684 243.699 144.105 247.455 140.712C249.783 138.502 252.447 136.676 255.347 135.3L254.238 148.28C250.819 151.22 240.103 160.114 235.918 159.753C232.463 159.456 226.05 152.05 222.388 147.468L226.023 143.463Z" fill="#263238"/>
<path opacity="0.2" d="M243.675 156.326C245.957 152.474 252.217 142.363 252.217 142.363L253.715 145.763L252.704 149.498C251.117 150.833 245.966 154.657 243.675 156.326Z" fill="black"/>
<path d="M284.77 141.867C283.853 153.753 282.148 165.565 279.665 177.225C279.665 177.225 292.879 188.049 288.595 232.509C288.595 232.509 275.227 238.426 243.675 231.39L249.674 177.027C249.674 177.027 248.285 141.695 252.037 137.754C255.356 134.254 269.833 129.636 280.901 135.12C282.143 135.733 283.175 136.702 283.864 137.903C284.553 139.105 284.869 140.485 284.77 141.867Z" fill="#407BFF"/>
<path opacity="0.4" d="M284.77 141.867C283.853 153.753 282.148 165.565 279.665 177.225C279.665 177.225 292.879 188.049 288.595 232.509C288.595 232.509 275.227 238.426 243.675 231.39L249.674 177.027C249.674 177.027 248.285 141.695 252.037 137.754C255.356 134.254 269.833 129.636 280.901 135.12C282.143 135.733 283.175 136.702 283.864 137.903C284.553 139.105 284.869 140.485 284.77 141.867Z" fill="black"/>
<path opacity="0.3" d="M269.409 176.034C269.409 176.034 259.731 177.712 252.93 176.034V180.184C252.93 180.184 257.99 180.914 269.409 180.184V176.034Z" fill="black"/>
<path d="M275.038 119.966C273.757 123.574 272.088 130.023 273.459 133.731C273.623 134.161 273.634 134.635 273.491 135.073C273.348 135.511 273.06 135.887 272.675 136.139C269.887 138.15 265.35 139.747 261.941 139.413C257.566 138.935 258.703 135.805 259.821 134.136C260.119 133.685 260.588 133.045 261.12 132.946C265.422 132.215 266.243 128.986 265.91 125.73L275.038 119.966Z" fill="#DD8C6A"/>
<path opacity="0.3" d="M271.322 122.32L265.91 125.703C265.982 126.501 265.982 127.304 265.91 128.102C266.994 128.069 268.054 127.772 268.997 127.236C269.941 126.7 270.739 125.941 271.322 125.026C271.953 123.881 271.764 122.528 271.322 122.32Z" fill="black"/>
<path d="M260.831 121.815L258.387 126.208C259.145 126.271 259.83 126.524 260.588 126.587C260.967 125.991 261.418 125.405 261.797 124.783C261.652 125.396 261.156 126.055 261.003 126.659C262.348 126.906 263.712 127.036 265.08 127.047C265.149 126.845 265.175 126.631 265.158 126.419C265.141 126.206 265.081 125.999 264.981 125.811C264.256 124.18 262.978 122.857 261.373 122.077L260.831 121.815Z" fill="#263238"/>
<path d="M276.743 114.04C275.164 119.66 274.524 123.06 271.015 125.333C265.738 128.797 259.289 124.657 259.136 118.686C259.018 113.274 261.625 105.011 267.687 103.956C269.76 103.588 271.895 104.056 273.624 105.258C275.353 106.46 276.536 108.297 276.914 110.369C277.138 111.59 277.08 112.846 276.743 114.04Z" fill="#DD8C6A"/>
<path d="M263.564 114.04C262.886 115.099 262.066 116.061 261.129 116.899C261.351 117.132 261.621 117.314 261.92 117.434C262.218 117.554 262.539 117.608 262.861 117.594L263.564 114.04Z" fill="#FF5652"/>
<path d="M269.743 111.974C269.788 111.983 269.834 111.983 269.878 111.974C269.944 111.941 269.994 111.885 270.019 111.816C270.044 111.748 270.042 111.672 270.014 111.605C269.836 111.199 269.564 110.842 269.22 110.563C268.877 110.284 268.471 110.091 268.038 109.999C267.965 109.989 267.891 110.008 267.832 110.051C267.773 110.095 267.734 110.161 267.723 110.234C267.712 110.307 267.731 110.381 267.775 110.44C267.819 110.499 267.884 110.538 267.957 110.549C268.299 110.628 268.617 110.785 268.887 111.009C269.156 111.233 269.369 111.518 269.509 111.839C269.532 111.88 269.567 111.915 269.608 111.938C269.649 111.962 269.696 111.975 269.743 111.974Z" fill="#263238"/>
<path d="M260.876 109.323C260.917 109.347 260.964 109.36 261.012 109.36C261.059 109.36 261.106 109.347 261.147 109.323C261.443 109.141 261.779 109.032 262.125 109.005C262.472 108.979 262.82 109.035 263.14 109.169C263.206 109.201 263.282 109.205 263.351 109.181C263.42 109.158 263.477 109.108 263.51 109.043C263.527 109.011 263.538 108.976 263.541 108.94C263.545 108.904 263.541 108.868 263.53 108.833C263.519 108.799 263.501 108.767 263.478 108.739C263.454 108.712 263.425 108.689 263.393 108.673C262.987 108.496 262.544 108.418 262.102 108.447C261.659 108.475 261.23 108.608 260.849 108.836C260.818 108.853 260.79 108.876 260.767 108.903C260.745 108.931 260.728 108.963 260.718 108.998C260.708 109.032 260.705 109.068 260.709 109.104C260.713 109.14 260.724 109.174 260.741 109.205C260.775 109.256 260.822 109.297 260.876 109.323Z" fill="#263238"/>
<path d="M273.252 131.891L266.938 136.779C266.669 136.989 266.356 137.133 266.022 137.201C265.688 137.269 265.343 137.259 265.014 137.172C264.685 137.084 264.38 136.922 264.124 136.698C263.868 136.473 263.667 136.192 263.537 135.877L262.103 132.594L260.425 133.027C260.233 133.073 260.058 133.171 259.919 133.312C259.781 133.452 259.684 133.628 259.641 133.821C259.307 135.363 258.08 139.134 258.152 142.516C258.152 142.516 262.022 137.339 264.205 141.064C264.205 141.064 267.055 137.7 269.355 143.517C270.828 141.402 272.131 139.173 273.252 136.852C274.433 134.092 275.227 132.594 275.227 132.594L273.252 131.891Z" fill="white"/>
<path d="M274.01 132.17C271.244 144.115 269.36 156.246 268.372 168.467C267.1 186.759 266.839 192.289 274.073 191.495C281.307 190.701 287.233 189.79 286.178 187.156C285.122 184.522 281.18 178.596 281.424 175.575C281.668 172.553 284.184 149.002 284.473 145.439C284.761 141.876 286.908 134.398 274.01 132.17Z" fill="#263238"/>
<path d="M275.245 181.988C275.155 181.501 276.887 179.742 278.853 178.515C280.164 177.733 281.555 177.095 283.003 176.612C283.003 176.612 287.043 171.858 288.162 170.568L291.283 173.274C289.25 175.146 287.314 177.121 285.483 179.191L283.805 182.736C283.202 183.592 282.392 184.281 281.451 184.739C280.393 185.23 279.291 185.62 278.159 185.902C277.941 185.96 277.711 185.946 277.501 185.863C277.292 185.781 277.115 185.633 276.995 185.442C276.242 184.385 275.652 183.22 275.245 181.988Z" fill="#DD8C6A"/>
<path d="M261.318 132.784C261.318 132.784 255.392 143.932 255.004 162.55C254.617 181.167 255.428 191.035 251.983 191.603C248.537 192.171 247.77 189.799 247.77 189.799C247.77 189.799 248.79 179.697 248.79 177.234C248.79 174.772 247.707 159.862 248.79 149.209C249.872 138.556 248.79 139.206 250.594 138.015C252.398 136.825 256.484 133.767 261.318 132.784Z" fill="#263238"/>
<path opacity="0.2" d="M282.461 165.508L278.907 145.114C278.907 145.114 281.839 148.099 284.013 150.39C283.598 154.558 282.985 160.439 282.461 165.508Z" fill="black"/>
<path d="M280.847 134.507C280.847 134.507 278.438 140.649 278.907 145.114C279.106 147.008 292.564 161.44 292.564 161.44L282.416 174.898L287.648 179.408C287.648 179.408 302.08 165.12 302.197 161.251C302.314 157.381 286.268 136.139 280.847 134.507Z" fill="#263238"/>
<path d="M267.696 113.373C267.605 113.842 267.281 114.166 266.974 114.112C266.667 114.058 266.487 113.625 266.586 113.147C266.685 112.669 267.001 112.353 267.308 112.407C267.614 112.462 267.786 112.894 267.696 113.373Z" fill="#263238"/>
<path d="M262.383 112.326C262.293 112.795 261.968 113.129 261.661 113.066C261.354 113.003 261.183 112.579 261.273 112.11C261.363 111.641 261.688 111.307 261.995 111.37C262.302 111.433 262.482 111.848 262.383 112.326Z" fill="#263238"/>
<path d="M262.121 111.415L261.057 110.874C261.057 110.874 261.472 111.848 262.121 111.415Z" fill="#263238"/>
<path d="M267.434 112.462L266.37 111.92C266.37 111.92 266.785 112.913 267.434 112.462Z" fill="#263238"/>
<path d="M264.403 120.21C264.103 120.234 263.801 120.234 263.501 120.21C263.481 120.21 263.46 120.206 263.442 120.197C263.423 120.189 263.406 120.177 263.392 120.161C263.379 120.146 263.368 120.128 263.362 120.108C263.356 120.088 263.354 120.068 263.357 120.047C263.359 120.008 263.376 119.972 263.405 119.945C263.433 119.918 263.471 119.903 263.51 119.903C264.158 119.959 264.81 119.864 265.414 119.624C266.019 119.385 266.559 119.008 266.992 118.523C267.006 118.508 267.022 118.495 267.041 118.487C267.06 118.478 267.08 118.474 267.1 118.474C267.121 118.474 267.141 118.478 267.16 118.487C267.178 118.495 267.195 118.508 267.208 118.523C267.237 118.552 267.253 118.591 267.253 118.631C267.253 118.672 267.237 118.711 267.208 118.739C266.493 119.567 265.491 120.092 264.403 120.21Z" fill="#263238"/>
<path d="M273.387 103.054C276.155 110.973 275.761 119.655 272.287 127.29C273.071 127.056 273.91 126.876 274.686 126.65C275.065 125.649 275.363 124.621 275.741 123.628C275.615 124.53 275.372 125.649 275.245 126.596L277.365 126.208C277.735 125.243 278.042 124.161 278.411 123.195C278.249 124.052 278.069 125.252 277.897 126.109C280.355 124.433 282.091 121.891 282.759 118.992C283.441 115.782 283.022 112.436 281.568 109.494C279.818 106.436 276.761 105.182 273.387 103.054Z" fill="#263238"/>
<path d="M278.718 118.64C278.283 120.048 277.311 121.228 276.012 121.923C274.289 122.825 273.017 121.4 273.153 119.56C273.261 117.91 274.298 115.438 276.192 115.276C276.611 115.242 277.031 115.315 277.414 115.488C277.796 115.66 278.129 115.927 278.381 116.263C278.633 116.599 278.796 116.993 278.855 117.408C278.914 117.824 278.867 118.248 278.718 118.64Z" fill="#DD8C6A"/>
<path d="M261.354 146.882C261.079 146.88 260.807 146.815 260.561 146.692C260.279 146.552 260.035 146.347 259.847 146.095C259.659 145.843 259.533 145.55 259.478 145.24C259.425 144.715 259.527 144.186 259.77 143.718C260.014 143.25 260.389 142.864 260.849 142.606C261.66 142.138 262.555 141.831 263.483 141.704H263.591H264.322C264.439 141.711 264.549 141.763 264.63 141.848C264.71 141.934 264.755 142.047 264.755 142.164C264.753 142.281 264.705 142.392 264.623 142.474C264.541 142.557 264.43 142.604 264.313 142.606C263.871 142.606 263.339 143.508 263.231 144.239V144.347C263.231 144.793 263.128 145.233 262.929 145.632C262.73 146.031 262.441 146.379 262.085 146.647C261.865 146.786 261.614 146.867 261.354 146.882ZM262.861 142.787C262.322 142.886 261.806 143.082 261.336 143.364C261.031 143.538 260.779 143.792 260.607 144.099C260.435 144.406 260.351 144.754 260.362 145.105C260.397 145.272 260.469 145.429 260.574 145.563C260.679 145.698 260.813 145.806 260.967 145.881C261.069 145.936 261.184 145.965 261.3 145.965C261.417 145.965 261.532 145.936 261.634 145.881C262.103 145.637 262.211 144.924 262.32 144.239V144.131C262.411 143.652 262.595 143.195 262.861 142.787Z" fill="white"/>
<path d="M266.866 147.18C266.56 147.18 266.262 147.089 266.009 146.918C265.679 146.617 265.424 146.241 265.268 145.822C265.111 145.404 265.056 144.954 265.107 144.51V144.401C265.107 143.689 264.638 142.724 264.205 142.661C264.089 142.647 263.983 142.588 263.911 142.497C263.838 142.406 263.804 142.289 263.817 142.173C263.826 142.058 263.881 141.95 263.968 141.874C264.056 141.798 264.17 141.76 264.286 141.768H265.017H265.125C266.035 141.988 266.896 142.379 267.659 142.922C268.087 143.228 268.417 143.652 268.607 144.142C268.798 144.632 268.842 145.168 268.733 145.682C268.648 145.986 268.492 146.265 268.277 146.496C268.062 146.727 267.794 146.902 267.497 147.008C267.299 147.105 267.085 147.163 266.866 147.18ZM265.639 142.931C265.853 143.378 265.979 143.862 266.009 144.356V144.474C266.009 145.159 266.081 145.872 266.514 146.178C266.614 146.238 266.726 146.273 266.842 146.281C266.958 146.288 267.074 146.269 267.181 146.223C267.343 146.165 267.488 146.071 267.607 145.947C267.726 145.823 267.815 145.674 267.867 145.511C267.914 145.168 267.866 144.819 267.73 144.501C267.593 144.183 267.372 143.909 267.091 143.707C266.654 143.369 266.163 143.106 265.639 142.931Z" fill="white"/>
<path d="M261.58 151.753C261.532 151.762 261.483 151.762 261.436 151.753C261.322 151.716 261.228 151.635 261.174 151.528C261.12 151.422 261.11 151.298 261.147 151.184C262.045 148.396 262.649 145.521 262.951 142.606C262.963 142.487 263.022 142.377 263.115 142.301C263.208 142.225 263.328 142.189 263.447 142.2C263.567 142.212 263.677 142.271 263.753 142.364C263.829 142.458 263.865 142.577 263.853 142.697C263.554 145.673 262.95 148.611 262.049 151.464C262.014 151.557 261.949 151.636 261.864 151.688C261.779 151.74 261.679 151.763 261.58 151.753Z" fill="white"/>
<path d="M265.188 153.999C265.099 153.998 265.012 153.971 264.938 153.922C264.864 153.872 264.807 153.801 264.773 153.719C264.422 152.814 264.224 151.857 264.187 150.887C264.185 149.901 264.267 148.918 264.43 147.946C264.503 147.459 264.575 146.972 264.62 146.485C264.848 145.136 264.603 143.75 263.925 142.561C263.892 142.512 263.869 142.457 263.857 142.399C263.845 142.341 263.845 142.281 263.856 142.223C263.868 142.164 263.89 142.109 263.923 142.06C263.956 142.01 263.998 141.968 264.047 141.934C264.096 141.901 264.151 141.878 264.21 141.866C264.268 141.854 264.327 141.854 264.386 141.865C264.444 141.877 264.499 141.899 264.549 141.932C264.598 141.965 264.641 142.007 264.674 142.056C265.472 143.415 265.768 145.011 265.513 146.566C265.468 147.071 265.396 147.576 265.323 148.073C265.167 148.99 265.088 149.92 265.089 150.851C265.122 151.719 265.299 152.575 265.612 153.385C265.654 153.497 265.651 153.62 265.604 153.729C265.557 153.839 265.469 153.926 265.359 153.972C265.304 153.99 265.246 153.999 265.188 153.999Z" fill="white"/>
<path d="M272.954 113.4C272.467 112.958 271.782 112.407 271.295 111.956C271.525 110.976 271.604 109.966 271.529 108.962C271.304 109.755 271.231 110.567 271.006 111.361L269.346 110.261C268.951 109.937 268.466 109.741 267.957 109.701C268.047 108.881 268.083 108.042 268.183 107.221C267.993 107.951 267.777 108.763 267.596 109.494C266.947 109.404 266.198 109.25 265.558 109.16C265.63 108.258 265.738 107.428 265.819 106.553C265.54 107.239 265.341 108.411 265.062 109.097L264.872 108.835C263.026 108.383 261.111 108.276 259.226 108.52C258.594 106.039 259.352 102.53 261.787 101.728C270.041 98.9766 276.797 105.417 276.986 105.949C278.222 109.35 275.94 111.605 272.954 113.4Z" fill="#263238"/>
<path d="M276.012 120.327C276.012 120.482 275.966 120.634 275.88 120.763C275.794 120.892 275.671 120.993 275.528 121.052C275.384 121.111 275.226 121.127 275.074 121.097C274.922 121.066 274.782 120.992 274.672 120.882C274.563 120.772 274.488 120.632 274.458 120.48C274.427 120.328 274.443 120.17 274.502 120.027C274.562 119.883 274.662 119.761 274.791 119.674C274.92 119.588 275.072 119.542 275.227 119.542C275.435 119.542 275.635 119.625 275.782 119.772C275.929 119.919 276.012 120.119 276.012 120.327Z" fill="#407BFF"/>
<path d="M243.107 310.09C238.75 312.48 238.263 312.525 233.456 313.436C232.4 313.635 232.77 316.142 235.26 316.196C239.328 316.323 238.985 316.196 242.476 316.268C245.434 316.341 248.997 316.593 251.351 316.692H251.433C251.689 316.674 251.929 316.554 252.098 316.36C252.267 316.166 252.352 315.912 252.335 315.655L251.82 310.297C251.806 310.184 251.752 310.079 251.667 310.002C251.583 309.924 251.475 309.879 251.36 309.873L244.649 309.684C244.108 309.677 243.575 309.817 243.107 310.09Z" fill="#263238"/>
<path d="M243.134 310.496C243.147 310.474 243.153 310.449 243.153 310.423C243.153 310.398 243.147 310.373 243.134 310.351C243.111 310.336 243.085 310.327 243.057 310.327C243.03 310.327 243.003 310.336 242.981 310.351C242.692 310.45 240.185 311.443 239.995 312.245C239.978 312.322 239.979 312.401 240 312.477C240.02 312.552 240.059 312.621 240.112 312.678C240.2 312.773 240.308 312.846 240.429 312.891C240.549 312.937 240.679 312.953 240.807 312.94C241.709 312.841 242.656 311.407 243.152 310.559L243.134 310.496ZM240.257 312.218C240.437 311.776 241.691 311.145 242.656 310.73C241.943 311.867 241.231 312.534 240.744 312.615C240.659 312.627 240.573 312.617 240.494 312.585C240.415 312.554 240.346 312.502 240.293 312.435C240.269 312.416 240.251 312.391 240.241 312.362C240.231 312.333 240.23 312.302 240.239 312.272L240.257 312.218Z" fill="#407BFF"/>
<path d="M243.134 310.496C243.14 310.47 243.138 310.444 243.129 310.419C243.119 310.395 243.102 310.374 243.08 310.36C242.411 309.836 241.593 309.536 240.744 309.503C240.602 309.521 240.466 309.568 240.343 309.641C240.221 309.714 240.114 309.811 240.031 309.927C239.806 310.243 239.869 310.46 239.977 310.586C240.419 311.136 242.331 310.92 243.053 310.586C243.073 310.579 243.091 310.567 243.105 310.551C243.119 310.535 243.129 310.516 243.134 310.496ZM240.194 310.198L240.293 310.09C240.352 310.004 240.428 309.932 240.517 309.878C240.605 309.823 240.704 309.788 240.807 309.774C241.496 309.791 242.163 310.017 242.719 310.423C241.889 310.676 240.482 310.721 240.221 310.423C240.221 310.423 240.158 310.351 240.221 310.243L240.194 310.198Z" fill="#407BFF"/>
<path d="M285.131 310.514C282.67 312.529 279.783 313.957 276.689 314.69C275.408 315.051 276.21 317.396 279.277 317.396C284.356 317.315 282.335 317.234 286.674 317.134C290.381 317.062 291.364 317.035 294.305 317.017H294.404C294.553 317.014 294.699 316.981 294.835 316.919C294.971 316.858 295.093 316.77 295.194 316.661C295.295 316.551 295.373 316.423 295.423 316.282C295.473 316.142 295.495 315.993 295.486 315.845L294.503 310.09C294.471 309.959 294.394 309.843 294.285 309.764C294.176 309.685 294.042 309.647 293.908 309.657L286.16 309.864C285.483 309.783 285.654 310.144 285.131 310.514Z" fill="#263238"/>
<path d="M285.095 310.965C285.113 310.941 285.122 310.913 285.122 310.884C285.122 310.854 285.113 310.826 285.095 310.802C285.083 310.773 285.064 310.747 285.038 310.728C285.013 310.709 284.983 310.697 284.951 310.694C284.563 310.694 281.198 310.802 280.666 311.596C280.62 311.667 280.596 311.75 280.596 311.835C280.596 311.92 280.62 312.003 280.666 312.074C280.739 312.208 280.841 312.323 280.964 312.412C281.088 312.501 281.229 312.561 281.379 312.588C282.443 312.805 284.175 311.686 285.131 310.992L285.095 310.965ZM280.982 311.686C281.37 311.289 283.111 311.091 284.419 311.028C283.102 311.93 281.974 312.372 281.388 312.273C281.29 312.256 281.197 312.216 281.117 312.156C281.037 312.097 280.972 312.019 280.928 311.93C280.908 311.902 280.897 311.869 280.897 311.835C280.897 311.801 280.908 311.768 280.928 311.74L280.982 311.686Z" fill="#407BFF"/>
<path d="M285.095 310.965C285.111 310.942 285.119 310.915 285.119 310.888C285.119 310.861 285.111 310.834 285.095 310.811C285.032 310.766 283.905 309.296 282.696 309.107C282.348 309.041 281.989 309.105 281.686 309.287C281.28 309.531 281.271 309.774 281.343 309.936C281.631 310.64 283.977 311.118 284.951 311.055C284.98 311.052 285.009 311.043 285.034 311.027C285.059 311.011 285.08 310.99 285.095 310.965ZM281.749 309.603L281.866 309.485C282.089 309.354 282.352 309.309 282.606 309.359C283.385 309.597 284.076 310.062 284.59 310.694C283.499 310.649 281.83 310.207 281.659 309.792C281.659 309.792 281.659 309.693 281.776 309.594L281.749 309.603Z" fill="#407BFF"/>
<path d="M205.728 168.033C204.456 170.541 208.687 173.617 208.687 173.617L210.689 175.664C211.017 176.022 211.466 176.245 211.949 176.292C212.432 176.338 212.915 176.205 213.305 175.917L215.28 174.51L215.344 174.465C215.749 174.155 216.019 173.699 216.094 173.194C216.17 172.689 216.046 172.174 215.749 171.759L214.423 169.955C213.887 169.216 213.198 168.601 212.403 168.151L208.606 165.968L205.728 168.033Z" fill="#FFC3BD"/>
<path d="M189.231 113.093C189.71 112.035 190.489 111.142 191.472 110.525C192.454 109.907 193.597 109.592 194.758 109.619C195.918 109.646 197.045 110.013 197.998 110.676C198.951 111.339 199.688 112.267 200.118 113.345L200.244 113.661C201.024 115.866 201.331 118.211 201.146 120.543C201.092 122.843 201.02 125.179 201.056 127.407C201.092 129.635 201.056 137.681 201.128 139.864C201.2 141.884 205.286 151.022 209.246 164.218C209.326 164.472 209.426 164.719 209.544 164.958L210.274 166.41C210.274 166.41 209.183 167.104 208.064 167.772C207.159 168.453 206.167 169.011 205.115 169.432C204.527 168.899 204.041 168.263 203.681 167.555C200.524 162.576 190.214 144.103 189.673 141.397C189.14 138.89 188.771 130.573 188.536 128.048C188.301 125.522 188.121 123.06 188.049 120.57C187.993 119.321 188.042 118.069 188.193 116.827C188.353 115.535 188.702 114.273 189.231 113.084V113.093Z" fill="#263238"/>
<path opacity="0.3" d="M189.231 113.093C189.71 112.035 190.489 111.142 191.472 110.525C192.454 109.907 193.597 109.592 194.758 109.619C195.918 109.646 197.045 110.013 197.998 110.676C198.951 111.339 199.688 112.267 200.118 113.345L200.244 113.661C201.024 115.866 201.331 118.211 201.146 120.543C201.092 122.843 201.02 125.179 201.056 127.407C201.092 129.635 201.056 137.681 201.128 139.864C201.2 141.884 205.286 151.022 209.246 164.218C209.326 164.472 209.426 164.719 209.544 164.958L210.274 166.41C210.274 166.41 209.183 167.104 208.064 167.772C207.159 168.453 206.167 169.011 205.115 169.432C204.527 168.899 204.041 168.263 203.681 167.555C200.524 162.576 190.214 144.103 189.673 141.397C189.14 138.89 188.771 130.573 188.536 128.048C188.301 125.522 188.121 123.06 188.049 120.57C187.993 119.321 188.042 118.069 188.193 116.827C188.353 115.535 188.702 114.273 189.231 113.084V113.093Z" fill="black"/>
<path d="M156.84 116.204C158.382 133.974 164.281 143.986 163.487 158.184C163.487 158.184 195.508 158.815 196.609 158.815C197.078 132.657 200.812 134.65 199.667 118.09C199.865 112.678 196.771 109.295 193.641 108.754L180.003 105.931L162.423 108.952C160.751 109.238 159.248 110.143 158.214 111.487C157.179 112.831 156.689 114.515 156.84 116.204Z" fill="#407BFF"/>
<path d="M181.987 278.898L186.137 311.686L194.219 311.109L192.036 278.898H181.987Z" fill="#FFC3BD"/>
<path d="M196.185 244.18C196.916 275.101 195.13 301.602 195.13 301.602L184.224 302.341C184.224 302.341 178.082 262.22 180.562 245.831C180.445 242.385 176.458 199.297 175.087 191.152C172.607 176.53 169.955 166.5 169.955 166.5L195.617 165.066C195.617 165.066 195.734 224.715 196.185 244.18Z" fill="#407BFF"/>
<g opacity="0.2">
<path d="M181.546 177.739C181.546 177.739 180.716 211.609 179.236 230.182C178.47 220.142 176.458 199.297 175.087 191.152L181.546 177.739Z" fill="black"/>
</g>
<path d="M147.847 279.503L144.518 310.577L152.573 309.702L158.418 279.115L147.847 279.503Z" fill="#FFC3BD"/>
<path d="M143.508 301.493L155.875 301.042C155.875 301.042 166.41 263.077 170.857 243.017C175.168 220.656 183.214 164.849 183.214 164.849L162.658 163.262C151.707 183.043 155.649 230.398 153.71 243.657C144.419 260.227 143.508 301.493 143.508 301.493Z" fill="#407BFF"/>
<path d="M195.409 155.144H165.31C165.31 155.144 160.367 172.562 160.412 172.39C160.457 172.219 195.734 174.086 195.734 174.086L195.409 155.144Z" fill="#407BFF"/>
<path d="M195.734 308.484C201.074 311.19 201.66 311.244 207.46 312.164C208.741 312.372 208.362 315.402 205.412 315.565C200.515 315.862 200.902 315.664 196.744 315.898C193.181 316.097 188.022 316.521 185.181 316.728H185.09C184.935 316.724 184.782 316.688 184.641 316.625C184.499 316.561 184.372 316.47 184.265 316.357C184.159 316.244 184.076 316.111 184.021 315.966C183.966 315.82 183.94 315.666 183.945 315.51L184.378 309.025C184.39 308.888 184.452 308.759 184.551 308.663C184.651 308.567 184.781 308.51 184.919 308.502L193.876 308.042C194.525 308.007 195.17 308.161 195.734 308.484Z" fill="#263238"/>
<path d="M195.734 308.953C196.365 309.963 197.592 311.659 198.647 311.74C198.803 311.754 198.96 311.73 199.104 311.67C199.249 311.611 199.377 311.517 199.477 311.398C199.541 311.328 199.587 311.244 199.609 311.152C199.631 311.061 199.629 310.965 199.603 310.874C199.342 309.909 196.284 308.809 195.941 308.701C195.908 308.687 195.871 308.684 195.835 308.692C195.8 308.701 195.768 308.719 195.743 308.746C195.728 308.773 195.72 308.804 195.72 308.836C195.72 308.867 195.728 308.898 195.743 308.926L195.734 308.953ZM199.279 310.965C199.288 311 199.288 311.036 199.278 311.071C199.269 311.106 199.25 311.138 199.225 311.163C199.163 311.246 199.08 311.31 198.985 311.35C198.89 311.389 198.786 311.403 198.683 311.389C198.088 311.343 197.213 310.487 196.302 309.188C197.493 309.648 199.008 310.369 199.261 310.892L199.279 310.965Z" fill="#407BFF"/>
<path d="M195.734 309.025C196.636 309.386 198.936 309.575 199.45 308.899C199.567 308.745 199.649 308.475 199.36 308.105C199.25 307.967 199.114 307.853 198.959 307.769C198.804 307.686 198.633 307.634 198.458 307.618C197.276 307.474 195.752 308.682 195.671 308.727C195.649 308.748 195.631 308.773 195.62 308.801C195.609 308.829 195.605 308.86 195.608 308.89C195.608 308.924 195.621 308.957 195.644 308.982C195.667 309.007 195.7 309.023 195.734 309.025ZM199.18 308.475C199.202 308.508 199.215 308.547 199.215 308.588C199.215 308.628 199.202 308.667 199.18 308.7C198.873 309.097 197.177 309.097 196.167 308.818C196.825 308.311 197.62 308.016 198.449 307.97C198.573 307.983 198.694 308.022 198.803 308.084C198.911 308.146 199.006 308.23 199.08 308.33L199.207 308.457L199.18 308.475Z" fill="#407BFF"/>
<path d="M154.558 308.15C156.74 310.062 159.87 311.812 164.759 313.183C166.302 313.616 165.328 316.485 161.629 316.403C155.505 316.313 157.94 316.205 152.709 316.097C148.199 316.007 147.053 315.971 143.499 315.943H143.418C143.238 315.941 143.061 315.903 142.897 315.83C142.732 315.757 142.585 315.652 142.462 315.52C142.34 315.389 142.246 315.234 142.185 315.064C142.125 314.895 142.099 314.716 142.11 314.536L143.292 307.591C143.332 307.431 143.427 307.291 143.561 307.195C143.695 307.099 143.858 307.054 144.022 307.068L153.367 307.32C154.143 307.266 153.944 307.699 154.558 308.15Z" fill="#263238"/>
<path d="M154.585 308.718C155.73 309.557 157.814 310.892 159.095 310.64C159.284 310.615 159.464 310.546 159.621 310.437C159.778 310.329 159.907 310.185 159.997 310.017C160.055 309.932 160.086 309.831 160.086 309.729C160.086 309.626 160.055 309.525 159.997 309.44C159.356 308.493 155.288 308.367 154.828 308.367C154.787 308.365 154.747 308.378 154.714 308.403C154.682 308.427 154.658 308.462 154.648 308.502C154.627 308.529 154.615 308.562 154.615 308.597C154.615 308.631 154.627 308.664 154.648 308.691L154.585 308.718ZM159.636 309.62C159.66 309.653 159.673 309.692 159.673 309.733C159.673 309.774 159.66 309.813 159.636 309.846C159.58 309.953 159.501 310.046 159.404 310.118C159.307 310.19 159.195 310.239 159.077 310.261C158.373 310.378 157.002 309.837 155.415 308.754C156.993 308.836 159.095 309.079 159.564 309.557L159.636 309.62Z" fill="#407BFF"/>
<path d="M154.747 308.764C155.938 308.845 158.77 308.268 159.113 307.42C159.212 307.221 159.194 306.924 158.707 306.635C158.34 306.418 157.909 306.339 157.489 306.409C156.028 306.644 154.666 308.412 154.594 308.475C154.575 308.501 154.564 308.533 154.564 308.565C154.564 308.598 154.575 308.629 154.594 308.655C154.629 308.71 154.684 308.749 154.747 308.764ZM158.617 307.023C158.743 307.149 158.707 307.23 158.761 307.266C158.553 307.771 156.542 308.304 155.225 308.367C155.843 307.602 156.675 307.04 157.615 306.752C157.925 306.687 158.247 306.742 158.517 306.906L158.662 307.05L158.617 307.023Z" fill="#407BFF"/>
<path opacity="0.8" d="M156.84 116.204C158.382 133.974 164.281 143.986 163.488 158.184C163.488 158.184 195.509 158.815 196.609 158.815C197.078 132.657 200.812 134.65 199.667 118.09C199.865 112.678 196.627 109.259 193.497 108.718L179.967 105.931L162.387 108.952C160.722 109.246 159.228 110.154 158.2 111.498C157.173 112.841 156.688 114.52 156.84 116.204Z" fill="white"/>
<path d="M190.096 142.642L186.488 149.064L179.958 142.11C179.958 141.939 182.754 112.75 182.754 112.75L184.441 112.624C184.279 116.168 190.096 142.642 190.096 142.642Z" fill="#407BFF"/>
<path d="M189.014 111.514C190.56 123.99 189.283 136.653 185.28 148.569L187.986 177.739C188.518 181.97 191.233 182.799 193.659 183.025L198.638 182.628L196.834 154.792C196.834 154.792 200.902 124.124 199.964 117.179C199.342 112.597 197.827 110.811 196.744 109.882C196.28 109.492 195.724 109.225 195.13 109.106C193.235 108.709 187.661 107.203 187.914 107.302C188.166 107.401 189.014 111.514 189.014 111.514Z" fill="#263238"/>
<path d="M186.371 98.7328C185.686 101.989 184.63 106.427 188.175 107.942C189.718 108.61 190.448 110.775 188.969 111.469C187.49 112.164 177.911 111.469 177.072 111.072C174.997 110.008 173.536 109.268 174.654 107.194C176.603 103.649 175.367 96.2343 175.105 92.6714L186.371 98.7328Z" fill="#FFC3BD"/>
<path d="M185.397 111.126L184.955 112.524C184.924 112.685 184.846 112.833 184.73 112.949C184.614 113.064 184.466 113.143 184.306 113.174L182.619 113.3C182.483 113.301 182.35 113.259 182.24 113.179C182.13 113.1 182.048 112.987 182.006 112.858L181.185 111.613L183.286 110.378L185.397 111.126Z" fill="#407BFF"/>
<path opacity="0.2" d="M177.342 97.8218C177.854 99.073 178.588 100.222 179.507 101.213C180.815 102.711 183.277 103.369 185.659 103.369C185.739 101.792 185.975 100.227 186.362 98.6967L185.866 98.4351L177.342 97.8218Z" fill="black"/>
<path d="M173.184 182.917C181.302 183.467 183.557 182.628 184.684 176.296C184.684 176.296 186.831 153.592 186.407 148.568C186.407 148.568 180.995 138.015 179.931 130.682C178.776 122.483 173.743 106.066 172.291 106.174C169.504 106.364 159.104 110.008 157.417 112.236C155.18 115.203 156.632 118.631 157.164 122.311C158.86 134.1 160.132 138.159 160.772 150.048C160.772 150.048 155.36 180.716 156.19 180.824C156.822 180.887 166.708 182.475 173.184 182.917Z" fill="#263238"/>
<path opacity="0.2" d="M163.487 158.184H177.342V158.806C177.342 159.687 176.992 160.531 176.37 161.153C175.747 161.776 174.903 162.126 174.023 162.126H166.807C165.926 162.126 165.082 161.776 164.46 161.153C163.837 160.531 163.487 159.687 163.487 158.806V158.184Z" fill="white"/>
<path opacity="0.2" d="M197.15 162.279H195.202C194.321 162.313 193.462 161.997 192.814 161.401C192.165 160.804 191.778 159.975 191.738 159.095V158.481L197.096 158.256L197.15 162.279Z" fill="white"/>
<path d="M191.828 94.1686C190.926 100.618 183.449 104.334 178.199 99.9865C175.159 97.479 174.591 94.3581 173.797 89.4782C173.68 88.7386 173.563 87.9629 173.427 87.133C173.21 85.8462 173.284 84.5269 173.644 83.2725C173.787 82.7485 173.983 82.2407 174.23 81.7571C175.133 79.9318 176.648 78.4808 178.51 77.6568C180.372 76.8327 182.465 76.6878 184.423 77.2471C190.854 79.1233 192.631 88.3958 191.828 94.1686Z" fill="#FFC3BD"/>
<path d="M176.386 82.2803C177.262 83.7116 178.001 85.2214 178.596 86.7903C178.02 86.9214 177.467 87.1372 176.954 87.4307C176.485 87.7284 176.954 89.1355 177.198 89.6586C177.637 90.7139 178.146 91.7384 178.722 92.7254C177.887 93.0805 177.011 93.3349 176.116 93.4831C175.87 92.7988 175.469 92.181 174.943 91.6791C174.638 91.3063 174.228 91.0338 173.767 90.8971C173.305 90.7604 172.813 90.7657 172.354 90.9124C172.192 90.1096 167.474 86.4836 171.407 84.0572C171.983 83.6 172.617 83.2209 173.292 82.9297L174.194 82.596C174.902 82.3678 175.643 82.261 176.386 82.2803Z" fill="#263238"/>
<path d="M172.571 89.298C174.582 88.838 176.449 91.0479 177.081 92.7256C177.82 94.5837 176.936 96.4869 174.862 96.1171C174.089 95.9697 173.353 95.6706 172.697 95.2371C172.04 94.8036 171.476 94.2443 171.037 93.5915C170.759 93.2324 170.576 92.809 170.505 92.3605C170.433 91.912 170.476 91.4527 170.629 91.025C170.781 90.5973 171.039 90.215 171.379 89.9131C171.718 89.6113 172.128 89.3998 172.571 89.298Z" fill="#FFC3BD"/>
<path d="M184.639 86.5918C184.973 86.5918 185.289 86.9436 185.343 87.4938C185.397 88.044 185.208 88.4499 184.829 88.486C184.45 88.5221 184.143 88.1342 184.089 87.584C184.035 87.0338 184.306 86.664 184.639 86.5918Z" fill="#263238"/>
<path d="M190.421 86.2131C190.755 86.2131 191.071 86.5649 191.125 87.1151C191.179 87.6654 190.953 88.0712 190.611 88.1073C190.268 88.1434 189.961 87.7555 189.907 87.2504C189.853 86.7453 190.087 86.2582 190.421 86.2131Z" fill="#263238"/>
<path d="M188.96 92.6444C189.395 92.6617 189.828 92.5826 190.229 92.4126C190.63 92.2426 190.988 91.986 191.278 91.6612C190.009 90.5547 188.901 89.2766 187.986 87.8638L188.96 92.6444Z" fill="#F98C8C"/>
<path d="M183.259 85.744C183.444 85.4146 183.704 85.133 184.017 84.9216C184.33 84.7101 184.689 84.5748 185.063 84.5263H185.163C185.243 84.5131 185.314 84.4686 185.362 84.4026C185.409 84.3367 185.428 84.2547 185.415 84.1746C185.4 84.0955 185.355 84.0254 185.289 83.9784C185.224 83.9315 185.143 83.9113 185.063 83.922C184.585 83.9672 184.124 84.1258 183.72 84.3846C183.315 84.6435 182.978 84.9951 182.736 85.4103C182.698 85.4793 182.687 85.5602 182.705 85.637C182.723 85.7139 182.77 85.781 182.835 85.8252C182.886 85.8382 182.938 85.8382 182.989 85.8252C183.086 85.834 183.183 85.805 183.259 85.744Z" fill="#263238"/>
<path d="M191.567 85.2209C191.629 85.1711 191.67 85.099 191.68 85.0199C191.69 84.9407 191.669 84.8608 191.621 84.7969C191.331 84.4145 190.953 84.1069 190.52 83.8998C190.087 83.6927 189.611 83.5921 189.131 83.6063C189.092 83.6096 189.055 83.6208 189.02 83.6391C188.986 83.6574 188.956 83.6825 188.931 83.7128C188.907 83.7432 188.889 83.7781 188.878 83.8156C188.868 83.8531 188.865 83.8924 188.87 83.931C188.881 84.0068 188.921 84.0754 188.981 84.1224C189.042 84.1695 189.118 84.1914 189.194 84.1836C189.574 84.1775 189.949 84.2619 190.29 84.4297C190.63 84.5976 190.926 84.844 191.152 85.1487C191.182 85.1887 191.222 85.2204 191.268 85.2409C191.313 85.2614 191.363 85.27 191.413 85.266C191.467 85.2606 191.519 85.2453 191.567 85.2209Z" fill="#263238"/>
<path d="M181.5 143.562C180.373 139.593 179.074 135.588 176.72 132.206C175.872 130.979 174.916 129.852 174.014 128.598C172.804 127.001 171.693 125.332 170.685 123.601C171.678 122.699 172.986 121.797 174.05 120.967L170.027 117.639C171.038 113.815 171.503 109.867 171.407 105.913C171.848 105.598 172.396 105.468 172.931 105.552C174.855 108.537 176.255 111.829 177.072 115.284C179.382 124.561 180.864 134.024 181.5 143.562Z" fill="#263238"/>
<path opacity="0.2" d="M185.929 147.576C185.866 147.495 185.812 147.396 185.749 147.296C183.187 143.31 171.533 125.107 170.721 123.592C171.723 122.69 173.031 121.788 174.095 120.958L170.072 117.63C171.079 113.805 171.544 109.858 171.452 105.904C171.891 105.59 172.435 105.461 172.967 105.543C174.181 107.427 175.191 109.434 175.98 111.532C176.436 112.754 176.813 114.005 177.108 115.275C179.39 124.241 181.771 138.854 185.785 147.179L185.929 147.576Z" fill="white"/>
<path d="M191.738 145.484C191.675 141.352 191.738 137.149 193.028 133.225C193.488 131.809 194.101 130.447 194.579 129.031C195.193 127.227 197.06 124.99 197.439 123.096C196.23 122.546 194.733 121.986 193.452 121.544L196.347 117.197C194.273 113.832 191.107 111.09 190.033 107.275C189.521 107.101 188.962 107.134 188.473 107.365C187.832 109.485 188.843 115.654 188.897 116.953C189.348 126.542 189.627 136.13 191.738 145.484Z" fill="#263238"/>
<path opacity="0.2" d="M197.439 123.096C195.193 129.248 190.511 142.038 185.929 147.576C185.785 147.748 185.65 147.91 185.505 148.063L185.749 147.297C185.746 147.255 185.746 147.212 185.749 147.17C189.925 133.64 189.357 126.289 188.915 116.917C188.861 115.618 187.85 109.277 188.491 107.167C188.732 107.05 188.994 106.982 189.262 106.966C189.53 106.951 189.798 106.988 190.051 107.076C191.107 110.883 194.273 113.787 196.365 117.152C195.409 118.604 194.444 120.047 193.479 121.499C194.697 121.987 196.23 122.546 197.439 123.096Z" fill="white"/>
<path opacity="0.3" d="M156.461 118.812C156.461 118.812 159.23 125.035 165.914 134.227C172.706 143.562 176.521 143.562 176.521 143.562L181.5 145.06C181.5 145.06 180.22 121.518 165.752 118C161.458 116.926 155.541 118.839 156.461 118.812Z" fill="black"/>
<path d="M213.052 134.136L205.611 134.479V138.574L213.052 137.528V134.136Z" fill="#FFC3BD"/>
<path d="M210.915 136.833C210.761 140.441 215.163 141.262 215.163 141.262L217.454 143.138C217.821 143.453 218.288 143.627 218.771 143.627C219.254 143.627 219.722 143.453 220.088 143.138L221.982 141.524L222.036 141.479C222.43 141.117 222.665 140.614 222.689 140.08C222.712 139.545 222.523 139.024 222.163 138.628L220.62 136.924C219.997 136.228 219.231 135.674 218.374 135.3L213.052 134.136L210.915 136.833Z" fill="#FFC3BD"/>
<path d="M157.192 113.85C155.658 116.845 156.344 120.309 158.184 123.123C162.369 129.491 176.17 137.952 178.93 139.819C185.172 144.076 210.5 139.115 210.5 139.115L210.87 132.865L183.81 131.512C183.81 131.512 174.726 116.385 168.476 111.767C165.328 109.458 159.338 109.656 157.192 113.85Z" fill="#263238"/>
<path d="M177.225 76.4264C176.805 76.378 176.379 76.4197 175.976 76.5488C175.573 76.6779 175.203 76.8914 174.889 77.175C173.096 78.5249 171.843 80.4691 171.353 82.6592C171.237 83.1058 171.237 83.5746 171.353 84.0212C171.402 84.2491 171.519 84.457 171.688 84.6179C171.857 84.7787 172.07 84.8851 172.3 84.9232C172.934 84.261 173.725 83.7707 174.6 83.498C176.363 82.9194 178.174 82.4998 180.012 82.2442C183.35 81.7368 186.645 80.9831 189.871 79.9892C190.511 79.7998 191.242 79.5112 191.413 78.8708C191.585 78.2304 190.205 77.184 190.43 76.9766C190.782 76.6338 191.269 76.3271 191.269 75.8401C191.264 75.6468 191.211 75.4578 191.116 75.2898C190.982 74.9746 190.787 74.6888 190.542 74.4489C190.298 74.2091 190.008 74.0197 189.691 73.8917C189.368 73.7811 189.014 73.8013 188.705 73.9479C188.397 74.0946 188.158 74.356 188.04 74.6765C187.941 74.0921 187.808 73.5139 187.643 72.9446C187.484 72.6827 187.233 72.4897 186.94 72.4034C186.49 72.2748 186.015 72.2585 185.557 72.356C185.1 72.4535 184.673 72.6618 184.315 72.9627C183.6 73.5708 182.99 74.2932 182.511 75.1004C181.573 76.4715 178.867 76.8052 177.225 76.4264Z" fill="#263238"/>
<path d="M185.65 93.6275C185.636 93.614 185.625 93.5979 185.617 93.5801C185.609 93.5623 185.606 93.5431 185.606 93.5238C185.606 93.5044 185.609 93.4852 185.617 93.4674C185.625 93.4496 185.636 93.4335 185.65 93.42C185.675 93.3952 185.709 93.3813 185.744 93.3813C185.78 93.3813 185.814 93.3952 185.839 93.42C186.251 93.8543 186.76 94.1852 187.324 94.3859C187.889 94.5865 188.492 94.6511 189.086 94.5746C189.125 94.572 189.164 94.5846 189.194 94.6098C189.225 94.635 189.244 94.6708 189.249 94.7099C189.251 94.7468 189.239 94.7832 189.216 94.8117C189.192 94.8403 189.159 94.8587 189.122 94.8632C188.487 94.9474 187.841 94.8792 187.237 94.6644C186.633 94.4495 186.089 94.0941 185.65 93.6275Z" fill="#263238"/>
<path d="M172.922 105.841L175.213 105.119C177.548 107.688 180.452 109.674 183.692 110.919C182.228 111.803 181.06 113.103 180.337 114.653C172.67 111.623 172.922 105.841 172.922 105.841Z" fill="white"/>
<path d="M188.193 106.237L186.11 105.687C186.11 105.687 185.045 110.026 182.854 110.54C186.561 112.191 187.093 114.085 187.093 114.085C192.613 112.597 188.193 106.237 188.193 106.237Z" fill="white"/>
<path opacity="0.3" d="M183.864 149.642C183.851 149.806 183.79 149.963 183.689 150.093C183.587 150.223 183.45 150.321 183.293 150.373C183.137 150.425 182.968 150.43 182.809 150.387C182.65 150.344 182.507 150.255 182.398 150.132C182.289 150.008 182.219 149.854 182.196 149.691C182.174 149.528 182.2 149.361 182.272 149.213C182.344 149.064 182.458 148.94 182.6 148.856C182.742 148.772 182.905 148.731 183.07 148.74C183.181 148.746 183.29 148.775 183.391 148.824C183.491 148.874 183.58 148.942 183.654 149.026C183.728 149.11 183.784 149.207 183.82 149.313C183.856 149.418 183.871 149.53 183.864 149.642Z" fill="white"/>
</svg>
