<svg width="556" height="416" viewBox="0 0 556 416" fill="none" xmlns="http://www.w3.org/2000/svg" xmlns:xlink="http://www.w3.org/1999/xlink">
<path d="M388.441,60.001C388.439,75.565 381.835,90.498 370.073,101.544C342.993,126.998 316.718,153.538 288.612,178.06C285.474,180.725 281.358,182.166 277.114,182.084C272.87,182.002 268.822,180.404 265.805,177.62L184.843,101.57C173.074,90.517 166.469,75.575 166.469,60.001C166.469,44.426 173.074,29.484 184.843,18.431C190.715,12.916 197.7,8.539 205.395,5.551C213.091,2.564 221.344,1.026 229.68,1.026C238.015,1.026 246.269,2.564 253.964,5.551C261.659,8.539 268.644,12.916 274.517,18.431L277.458,21.199L280.399,18.431C289.214,10.124 300.481,4.451 312.765,2.133C325.05,-0.185 337.796,0.958 349.382,5.415C360.968,9.873 370.869,17.444 377.825,27.164C384.779,36.885 388.475,48.315 388.441,60.001Z" fill="#145A98" stroke="#145A98" stroke-width="1.5" stroke-miterlimit="3.999327" stroke-linejoin="round"/>
<path d="M443.933,414.902L550.032,315.984C553.155,313.076 554.912,309.131 554.916,305.016L554.916,169.159C554.916,158.869 550.531,148.999 542.726,141.723C534.921,134.446 524.335,130.358 513.297,130.358C502.259,130.358 491.673,134.446 483.868,141.723C476.063,148.999 471.678,158.869 471.678,169.159L471.678,285.563Z" fill="#145A98" stroke="#145A98" stroke-width="1.5" stroke-miterlimit="3.999327" stroke-linecap="round" stroke-linejoin="round"/>
<path d="M443.932,311.431L467.738,289.237C468.99,288.072 469.982,286.689 470.658,285.167C471.334,283.644 471.68,282.012 471.678,280.364C471.674,278.038 470.978,275.759 469.664,273.781C468.35,271.803 466.474,270.204 464.242,269.163L451.952,263.447C441.538,258.592 429.75,256.915 418.258,258.651C406.766,260.387 396.15,265.449 387.914,273.121L363.082,296.273C352.674,305.973 346.826,319.129 346.822,332.85L346.822,414.902M110.983,414.902L4.883,315.984C1.76,313.076 0.004,309.131 0,305.016L0,169.159C0,158.869 4.385,148.999 12.19,141.723C19.995,134.446 30.581,130.358 41.619,130.358C52.657,130.358 63.243,134.446 71.048,141.723C78.853,148.999 83.237,158.869 83.237,169.159L83.237,285.563Z" fill="#145A98" stroke="#145A98" stroke-width="1.5" stroke-miterlimit="3.999327" stroke-linecap="round" stroke-linejoin="round"/>
<path d="M110.983,311.436L87.177,289.242C85.928,288.077 84.937,286.693 84.261,285.171C83.585,283.649 83.237,282.017 83.237,280.369C83.237,275.636 86.123,271.316 90.673,269.169L102.965,263.452C113.378,258.598 125.165,256.92 136.658,258.656C148.15,260.393 158.766,265.455 167.002,273.127L191.834,296.278C202.242,305.978 208.09,319.135 208.093,332.855L208.093,414.907Z" fill="#145A98" stroke="#145A98" stroke-width="1.5" stroke-miterlimit="3.999327" stroke-linecap="round" stroke-linejoin="round"/>
</svg>
