<svg width="494" height="364" viewBox="0 0 494 364" fill="none" xmlns="http://www.w3.org/2000/svg">
<path d="M49.8473 339.102H82.5442V339.349H49.8473V339.102Z" fill="#EBEBEB"/>
<path d="M167.011 341.787H175.59V342.034H167.011V341.787Z" fill="#EBEBEB"/>
<path d="M83.5313 329.941H102.476V330.187H83.5313V329.941Z" fill="#EBEBEB"/>
<path d="M399.572 331.599H442.21V331.846H399.572V331.599Z" fill="#EBEBEB"/>
<path d="M384.527 331.599H390.776V331.846H384.527V331.599Z" fill="#EBEBEB"/>
<path d="M271.726 335.765H364.209V336.012H271.726V335.765Z" fill="#EBEBEB"/>
<path d="M258.645 279.187H449.279C450.774 279.187 452.208 278.594 453.265 277.536C454.322 276.479 454.916 275.045 454.916 273.55V5.5877C454.903 4.10123 454.303 2.68007 453.247 1.63357C452.192 0.587066 450.765 -5.69885e-05 449.279 4.14886e-09H258.645C257.905 4.14887e-09 257.172 0.145806 256.488 0.429094C255.804 0.712383 255.183 1.12761 254.659 1.65106C254.136 2.17451 253.721 2.79593 253.437 3.47985C253.154 4.16377 253.008 4.89679 253.008 5.63706V273.55C253.008 274.291 253.154 275.024 253.437 275.708C253.721 276.392 254.136 277.013 254.659 277.536C255.183 278.06 255.804 278.475 256.488 278.758C257.172 279.042 257.905 279.187 258.645 279.187ZM449.279 0.197446C450.707 0.200056 452.077 0.768792 453.087 1.7791C454.098 2.7894 454.666 4.15892 454.669 5.5877V273.55C454.666 274.979 454.098 276.349 453.087 277.359C452.077 278.369 450.707 278.938 449.279 278.941H258.645C257.217 278.938 255.847 278.369 254.837 277.359C253.827 276.349 253.258 274.979 253.255 273.55V5.5877C253.258 4.15892 253.827 2.7894 254.837 1.7791C255.847 0.768792 257.217 0.200056 258.645 0.197446H449.279Z" fill="#EBEBEB"/>
<path d="M45.1086 279.187H235.742C237.237 279.187 238.671 278.594 239.728 277.536C240.785 276.479 241.379 275.045 241.379 273.55V5.5877C241.366 4.10123 240.766 2.68007 239.711 1.63357C238.655 0.587066 237.228 -5.69885e-05 235.742 4.14886e-09H45.1086C43.6135 4.14888e-09 42.1797 0.593903 41.1226 1.65106C40.0654 2.70821 39.4715 4.14202 39.4715 5.63706V273.55C39.4715 275.045 40.0654 276.479 41.1226 277.536C42.1797 278.594 43.6135 279.187 45.1086 279.187ZM235.742 0.197446C237.171 0.200056 238.54 0.768792 239.55 1.7791C240.561 2.7894 241.129 4.15892 241.132 5.5877V273.55C241.129 274.979 240.561 276.349 239.55 277.359C238.54 278.369 237.171 278.938 235.742 278.941H45.1086C43.6798 278.938 42.3103 278.369 41.3 277.359C40.2896 276.349 39.7209 274.979 39.7183 273.55V5.5877C39.7209 4.15892 40.2896 2.7894 41.3 1.7791C42.3103 0.768792 43.6798 0.200056 45.1086 0.197446H235.742Z" fill="#EBEBEB"/>
<path d="M0.387115 323.218H494V323.465H0.387115V323.218Z" fill="#EBEBEB"/>
<path d="M202.097 317.433H121.658L121.658 242.482H202.097V317.433Z" fill="#E6E6E6"/>
<path d="M134.452 323.385H124.185V319.802H134.452V323.385Z" fill="#E0E0E0"/>
<path d="M365.424 316.712H202.087V242.482H365.424V316.712Z" fill="#E6E6E6"/>
<path d="M392.711 323.385H367.635V236.964H392.711V323.385Z" fill="#E6E6E6"/>
<path d="M280.868 313.247H210.054V248.396H280.868V313.247Z" fill="#F5F5F5"/>
<path d="M200.123 313.247H129.309V248.396H200.123V313.247Z" fill="#F5F5F5"/>
<path d="M362.383 313.247H291.569V248.396H362.383V313.247Z" fill="#F5F5F5"/>
<path d="M367.754 236.934V323.356H362.284V321.302H124.205V323.356H118.726V236.934H367.754ZM124.205 276.068H199.442V245.059H124.205V276.068ZM199.442 313.247V280.718H124.205V313.247H199.442ZM280.868 245.059H204.921V313.247H280.868V245.059ZM362.284 280.718H286.337V313.247H362.284V280.718ZM362.284 245.059H286.337V276.097H362.284V245.059Z" fill="#F0F0F0"/>
<path d="M170.644 256.965H158.797C158.495 256.966 158.194 256.908 157.914 256.793C157.634 256.678 157.379 256.509 157.165 256.295C156.95 256.081 156.78 255.827 156.663 255.547C156.547 255.268 156.487 254.968 156.487 254.665C156.487 254.362 156.547 254.062 156.663 253.782C156.78 253.502 156.95 253.248 157.165 253.035C157.379 252.821 157.634 252.652 157.914 252.537C158.194 252.422 158.495 252.363 158.797 252.365H170.644C171.254 252.365 171.839 252.607 172.271 253.038C172.702 253.47 172.944 254.055 172.944 254.665C172.944 255.275 172.702 255.86 172.271 256.291C171.839 256.723 171.254 256.965 170.644 256.965Z" fill="#E6E6E6"/>
<path d="M270.68 285.525V273.679C270.68 273.069 270.922 272.484 271.353 272.052C271.785 271.621 272.37 271.378 272.98 271.378C273.283 271.377 273.583 271.436 273.863 271.551C274.143 271.666 274.398 271.835 274.613 272.049C274.827 272.262 274.998 272.516 275.114 272.796C275.23 273.076 275.29 273.376 275.29 273.679V285.525C275.29 285.828 275.23 286.128 275.114 286.408C274.998 286.688 274.827 286.942 274.613 287.155C274.398 287.369 274.143 287.538 273.863 287.653C273.583 287.768 273.283 287.827 272.98 287.826C272.37 287.826 271.785 287.583 271.353 287.152C270.922 286.72 270.68 286.135 270.68 285.525Z" fill="#E6E6E6"/>
<path d="M170.644 290.244H158.797C158.495 290.246 158.194 290.187 157.914 290.072C157.634 289.957 157.379 289.788 157.165 289.574C156.95 289.36 156.78 289.106 156.663 288.827C156.547 288.547 156.487 288.247 156.487 287.944C156.487 287.331 156.731 286.744 157.164 286.311C157.597 285.877 158.185 285.634 158.797 285.634H170.644C170.947 285.634 171.247 285.694 171.527 285.81C171.806 285.926 172.06 286.097 172.274 286.311C172.488 286.526 172.657 286.781 172.772 287.061C172.887 287.341 172.946 287.641 172.944 287.944C172.944 288.554 172.702 289.139 172.271 289.571C171.839 290.002 171.254 290.244 170.644 290.244Z" fill="#E6E6E6"/>
<path d="M332.895 256.965H321.048C320.438 256.965 319.853 256.723 319.421 256.291C318.99 255.86 318.748 255.275 318.748 254.665C318.748 254.055 318.99 253.47 319.421 253.038C319.853 252.607 320.438 252.365 321.048 252.365H332.895C333.505 252.365 334.09 252.607 334.521 253.038C334.952 253.47 335.195 254.055 335.195 254.665C335.195 255.275 334.952 255.86 334.521 256.291C334.09 256.723 333.505 256.965 332.895 256.965Z" fill="#E6E6E6"/>
<path d="M332.895 290.244H321.048C320.438 290.244 319.853 290.002 319.422 289.571C318.99 289.139 318.748 288.554 318.748 287.944C318.747 287.641 318.805 287.341 318.92 287.061C319.035 286.781 319.204 286.526 319.418 286.311C319.632 286.097 319.886 285.926 320.166 285.81C320.445 285.694 320.745 285.634 321.048 285.634H332.895C333.198 285.634 333.498 285.694 333.777 285.81C334.057 285.926 334.311 286.097 334.525 286.311C334.739 286.526 334.908 286.781 335.023 287.061C335.138 287.341 335.196 287.641 335.195 287.944C335.195 288.554 334.953 289.139 334.521 289.571C334.09 290.002 333.505 290.244 332.895 290.244Z" fill="#E6E6E6"/>
<path d="M423.966 321.678H400.549V102.77H423.966V321.678Z" fill="#E0E0E0"/>
<path d="M442.21 100.855V323.593H423.976V100.855H442.21Z" fill="#E6E6E6"/>
<path d="M401.428 100.855V323.593H383.184V100.855H401.428Z" fill="#E6E6E6"/>
<path d="M426.158 100.855V323.593H380.094V100.855H426.158ZM384.418 104.695V144.629H421.785V104.695H384.418ZM421.785 232.196V192.252H384.418V232.196H421.785ZM384.467 236.036V275.979H421.785V236.036H384.467ZM421.785 188.412V148.479H384.418V188.412H421.785ZM421.785 319.713V279.819H384.418V319.753L421.785 319.713Z" fill="#F5F5F5"/>
<path d="M403.383 114.005H408.822V144.994H403.383V114.005Z" fill="#EBEBEB"/>
<path d="M408.822 114.005H413.028V144.994H408.822V114.005Z" fill="#E6E6E6"/>
<path d="M394.971 114.745H403.383V145.004H394.971V114.745Z" fill="#E0E0E0"/>
<path d="M390.766 114.745H394.971V145.004H390.766V114.745Z" fill="#EBEBEB"/>
<path d="M415.842 114.745H421.449V145.004H415.842V114.745Z" fill="#EBEBEB"/>
<path d="M413.028 114.745H415.832V145.004H413.028V114.745Z" fill="#FAFAFA"/>
<path d="M408.822 188.402H403.383V157.413H408.822V188.402Z" fill="#E6E6E6"/>
<path d="M403.383 188.402H399.177V157.413H403.383V188.402Z" fill="#EBEBEB"/>
<path d="M417.233 188.392H408.822V158.134H417.233V188.392Z" fill="#EBEBEB"/>
<path d="M421.439 188.392H417.233V158.134H421.439V188.392Z" fill="#E0E0E0"/>
<path d="M396.364 188.392H390.756V158.134H396.364V188.392Z" fill="#EBEBEB"/>
<path d="M399.177 188.392H396.373V158.134H399.177V188.392Z" fill="#F0F0F0"/>
<path d="M408.822 232.561H403.383V201.572H408.822V232.561Z" fill="#E6E6E6"/>
<path d="M403.383 232.561H399.177V201.572H403.383V232.561Z" fill="#EBEBEB"/>
<path d="M417.233 232.561H408.822V202.302H417.233V232.561Z" fill="#EBEBEB"/>
<path d="M421.439 232.561H417.233V202.302H421.439V232.561Z" fill="#E0E0E0"/>
<path d="M396.364 232.561H390.756V202.302H396.364V232.561Z" fill="#EBEBEB"/>
<path d="M399.177 232.561H396.373V202.302H399.177V232.561Z" fill="#F0F0F0"/>
<path d="M403.383 245.74H408.822V276.729H403.383V245.74Z" fill="#EBEBEB"/>
<path d="M408.822 245.74H413.028V276.729H408.822V245.74Z" fill="#E6E6E6"/>
<path d="M394.971 245.74H403.383V275.999H394.971V245.74Z" fill="#E0E0E0"/>
<path d="M390.766 245.74H394.971V275.999H390.766V245.74Z" fill="#EBEBEB"/>
<path d="M415.842 245.74H421.449V275.999H415.842V245.74Z" fill="#EBEBEB"/>
<path d="M413.028 245.74H415.832V275.999H413.028V245.74Z" fill="#FAFAFA"/>
<path d="M408.822 320.888H403.383V289.899H408.822V320.888Z" fill="#E6E6E6"/>
<path d="M403.383 320.888H399.177V289.899H403.383V320.888Z" fill="#EBEBEB"/>
<path d="M417.233 320.157H408.822V289.899H417.233V320.157Z" fill="#EBEBEB"/>
<path d="M421.439 320.157H417.233V289.899H421.439V320.157Z" fill="#E0E0E0"/>
<path d="M396.364 320.157H390.756V289.899H396.364V320.157Z" fill="#FAFAFA"/>
<path d="M399.177 320.157H396.373V289.899H399.177V320.157Z" fill="#F0F0F0"/>
<path d="M90.3432 277.312C90.4419 277.42 89.9088 278.151 92.0609 277.835C97.3426 277.035 106.563 274.873 109.12 269.453C112.783 261.684 101.43 264.517 101.825 260.568C102.219 256.619 115.132 257.281 116.505 251.456C117.877 245.632 109.11 248.406 109.002 245.533C108.893 242.66 118.983 244.457 120.987 238.178C122.991 231.899 115.359 236.52 116.228 233.903C117.097 231.287 125.646 219.47 121.006 218.108C116.366 216.745 108.528 228.869 105.507 230.586C102.486 232.304 99.8008 222.402 96.1974 226.578C92.594 230.754 98.3101 245.385 93.7195 248.228C90.2938 250.341 91.2613 244.516 86.7497 245.602C80.6091 247.083 82.6724 268.733 90.3432 277.312Z" fill="#EBEBEB"/>
<path d="M106.672 245.582C105.113 245.691 103.576 246.006 102.101 246.52C103.072 245.045 104.158 243.648 105.349 242.344C105.422 242.269 105.463 242.168 105.463 242.063C105.463 241.958 105.422 241.857 105.349 241.782C105.275 241.709 105.176 241.669 105.073 241.669C104.969 241.669 104.87 241.709 104.796 241.782C102.238 244.646 100.049 247.82 98.2805 251.229C97.3669 244.82 98.2593 238.283 100.857 232.354C100.887 232.283 100.889 232.205 100.862 232.133C100.835 232.062 100.782 232.004 100.713 231.971C100.644 231.938 100.566 231.933 100.493 231.956C100.421 231.98 100.36 232.03 100.324 232.097C100.324 232.196 95.8026 241.545 97.8363 252.059C97.2933 253.095 96.7503 254.191 96.2073 255.376C94.315 259.612 92.8179 264.014 91.7352 268.526C89.7859 264.835 88.7181 260.743 88.6156 256.57C88.6156 256.532 88.6079 256.494 88.5929 256.458C88.5779 256.423 88.5559 256.391 88.5283 256.364C88.5006 256.338 88.4679 256.317 88.432 256.303C88.3961 256.289 88.3578 256.283 88.3194 256.284C88.281 256.284 88.2429 256.292 88.2075 256.307C88.1721 256.322 88.1401 256.344 88.1134 256.371C88.0867 256.399 88.0658 256.432 88.052 256.467C88.0382 256.503 88.0318 256.542 88.0331 256.58C88.1233 261.063 89.3277 265.453 91.5378 269.355C89.5393 278.21 88.8738 287.314 89.5633 296.365C89.5733 296.469 89.6231 296.565 89.7022 296.633C89.7813 296.701 89.8836 296.736 89.9878 296.731H90.0372C90.1304 296.711 90.2133 296.659 90.2698 296.582C90.3263 296.505 90.3525 296.411 90.3432 296.316C89.4177 284.832 90.7972 273.279 94.4007 262.336C96.0122 260.463 98.2186 259.201 100.65 258.762C100.727 258.75 100.796 258.708 100.842 258.645C100.888 258.582 100.908 258.503 100.897 258.426C100.891 258.388 100.877 258.352 100.857 258.32C100.837 258.287 100.81 258.259 100.779 258.237C100.748 258.215 100.712 258.199 100.675 258.191C100.637 258.183 100.599 258.182 100.561 258.189C98.422 258.553 96.4374 259.538 94.8549 261.023C96.551 256.252 98.7937 251.693 101.538 247.438C103.192 246.741 104.95 246.327 106.741 246.214C106.787 246.21 106.831 246.196 106.87 246.173C106.909 246.15 106.943 246.118 106.969 246.081C106.994 246.043 107.011 246 107.018 245.954C107.025 245.909 107.021 245.863 107.008 245.819C107.002 245.781 106.988 245.745 106.968 245.713C106.948 245.68 106.921 245.652 106.89 245.63C106.859 245.608 106.823 245.592 106.786 245.584C106.748 245.576 106.71 245.575 106.672 245.582Z" fill="#F5F5F5"/>
<path d="M83.561 280.313C79.1678 280.392 71.6649 276.315 68.7526 272.346C65.8403 268.377 74.1725 270.816 73.3136 267.647C72.4547 264.478 62.079 266.817 60.1637 262.286C58.2485 257.755 65.7317 258.801 65.4355 256.481C65.1394 254.161 57.3798 254.635 54.892 249.817C52.4041 245 59.2259 247.695 58.1498 245.701C57.0737 243.707 48.5342 235.295 52.108 233.548C55.6818 231.801 63.7079 240.547 66.3931 241.525C69.0784 242.502 69.7003 236.46 73.1951 239.353C76.6899 242.245 74.0738 254.882 78.1905 256.55C81.2509 257.794 79.9478 251.999 83.4722 253.46C89.6028 256.017 85.3479 280.273 83.561 280.313Z" fill="#E0E0E0"/>
<g opacity="0.3">
<path d="M83.561 280.313C79.1678 280.392 71.6649 276.315 68.7526 272.346C65.8403 268.377 74.1725 270.816 73.3136 267.647C72.4547 264.478 62.079 266.817 60.1637 262.286C58.2485 257.755 65.7317 258.801 65.4355 256.481C65.1394 254.161 57.3798 254.635 54.892 249.817C52.4041 245 59.2259 247.695 58.1498 245.701C57.0737 243.707 48.5342 235.295 52.108 233.548C55.6818 231.801 63.7079 240.547 66.3931 241.525C69.0784 242.502 69.7003 236.46 73.1951 239.353C76.6899 242.245 74.0738 254.882 78.1905 256.55C81.2509 257.794 79.9478 251.999 83.4722 253.46C89.6028 256.017 85.3479 280.273 83.561 280.313Z" fill="#EBEBEB"/>
</g>
<path d="M82.1098 275.031C82.1443 275.024 82.1765 275.008 82.2039 274.986C82.2313 274.964 82.2532 274.935 82.2677 274.903C83.9539 271.22 84.6352 267.157 84.2422 263.125C84.2397 263.086 84.2295 263.048 84.2122 263.013C84.195 262.978 84.171 262.947 84.1416 262.922C84.1123 262.896 84.0781 262.876 84.0412 262.864C84.0042 262.851 83.9652 262.846 83.9262 262.849C83.8486 262.856 83.7767 262.893 83.7254 262.952C83.674 263.011 83.6469 263.087 83.6498 263.165C83.9869 266.989 83.3766 270.838 81.8728 274.37C80.0583 269.462 77.8186 264.722 75.1794 260.203C75.522 254.18 74.0944 248.188 71.0726 242.966C71.026 242.913 70.9616 242.877 70.8912 242.867C70.8208 242.857 70.7492 242.873 70.6893 242.911C70.6294 242.949 70.5853 243.008 70.5651 243.076C70.5448 243.144 70.5497 243.217 70.579 243.282C73.3771 248.146 74.7841 253.685 74.6463 259.295C71.4871 253.874 67.7177 248.833 63.4117 244.269C63.3379 244.197 63.2386 244.156 63.1353 244.156C63.0319 244.156 62.9327 244.197 62.8589 244.269C62.8218 244.305 62.7924 244.348 62.7723 244.396C62.7522 244.443 62.7418 244.494 62.7418 244.546C62.7418 244.597 62.7522 244.648 62.7723 244.696C62.7924 244.743 62.8218 244.786 62.8589 244.822C66.0497 248.179 68.9309 251.817 71.4675 255.692C68.8106 254.695 65.9927 254.196 63.155 254.221C63.0773 254.226 63.0045 254.26 62.9513 254.317C62.8981 254.374 62.8686 254.449 62.8687 254.527C62.8713 254.603 62.9036 254.676 62.9589 254.73C63.0141 254.783 63.088 254.813 63.1649 254.813C66.213 254.781 69.2358 255.369 72.0499 256.541C73.7847 259.199 75.3828 261.943 76.838 264.764C75.6559 263.945 74.3103 263.393 72.8941 263.144C71.4779 262.895 70.0245 262.956 68.6341 263.323C68.5969 263.332 68.5618 263.349 68.5311 263.372C68.5003 263.394 68.4745 263.423 68.4551 263.457C68.4358 263.49 68.4233 263.526 68.4185 263.565C68.4136 263.603 68.4164 263.641 68.4268 263.678C68.4347 263.716 68.4504 263.752 68.473 263.784C68.4957 263.815 68.5247 263.842 68.5583 263.861C68.5918 263.881 68.629 263.893 68.6676 263.897C68.7062 263.901 68.7453 263.897 68.7822 263.886C70.2884 263.494 71.8679 263.482 73.3802 263.848C74.8925 264.215 76.2906 264.95 77.45 265.988C82.5388 276.005 85.4428 286.988 85.9698 298.211C85.9749 298.313 86.0187 298.408 86.0922 298.478C86.1657 298.548 86.2633 298.587 86.3647 298.587C86.4161 298.585 86.4668 298.574 86.5137 298.553C86.5606 298.531 86.6027 298.501 86.6377 298.463C86.6727 298.426 86.6997 298.381 86.7173 298.333C86.7348 298.285 86.7425 298.233 86.7398 298.182C86.388 290.274 84.8265 282.466 82.1098 275.031Z" fill="#F5F5F5"/>
<path d="M95.931 323.247C100.127 315.35 102.842 303.957 102.842 298.962C102.822 296.917 102.353 294.902 101.468 293.06C100.582 291.217 99.302 289.592 97.7178 288.3H76.226C74.6431 289.592 73.3644 291.218 72.4806 293.061C71.5968 294.903 71.1296 296.918 71.1121 298.962C71.1121 303.957 73.8665 315.359 78.0227 323.247H95.931Z" fill="#F0F0F0"/>
<path d="M132.675 169.941C132.675 169.684 132.675 169.428 132.675 169.181L131.185 168.352C131.303 167.648 131.488 166.957 131.738 166.288H133.446C133.658 165.825 133.912 165.382 134.206 164.965L133.327 163.514C133.778 162.955 134.288 162.445 134.847 161.994L136.299 162.872C136.715 162.579 137.158 162.325 137.621 162.112V160.404C138.29 160.154 138.981 159.969 139.685 159.852L140.514 161.342C140.761 161.342 141.018 161.342 141.274 161.342C141.531 161.342 141.788 161.342 142.034 161.342L142.864 159.852C143.568 159.969 144.258 160.154 144.927 160.404V162.112C145.39 162.325 145.833 162.579 146.25 162.872L147.711 161.994C148.265 162.448 148.771 162.957 149.221 163.514L148.343 164.965C148.64 165.38 148.894 165.823 149.103 166.288H150.811C151.065 166.955 151.25 167.647 151.364 168.352L149.873 169.181C149.873 169.428 149.873 169.684 149.873 169.941C149.873 170.198 149.873 170.454 149.873 170.701L151.364 171.53C151.25 172.235 151.065 172.927 150.811 173.594H149.103C148.894 174.059 148.64 174.502 148.343 174.917L149.221 176.378C148.768 176.929 148.263 177.435 147.711 177.888L146.25 177.01C145.835 177.306 145.392 177.561 144.927 177.77V179.478C144.26 179.732 143.569 179.917 142.864 180.03L142.034 178.54C141.788 178.54 141.531 178.54 141.274 178.54C141.018 178.54 140.761 178.54 140.514 178.54L139.685 180.03C138.98 179.917 138.289 179.732 137.621 179.478V177.77C137.156 177.561 136.713 177.306 136.299 177.01L134.847 177.888C134.29 177.438 133.781 176.932 133.327 176.378L134.206 174.917C133.912 174.5 133.658 174.057 133.446 173.594H131.738C131.488 172.925 131.303 172.234 131.185 171.53L132.675 170.701C132.675 170.454 132.675 170.198 132.675 169.941ZM141.274 175.785C142.43 175.785 143.56 175.443 144.521 174.8C145.482 174.158 146.231 173.245 146.674 172.178C147.116 171.11 147.232 169.935 147.006 168.801C146.781 167.667 146.224 166.626 145.407 165.808C144.589 164.991 143.548 164.434 142.414 164.209C141.281 163.983 140.106 164.099 139.038 164.542C137.97 164.984 137.057 165.733 136.415 166.694C135.773 167.655 135.43 168.785 135.43 169.941C135.43 170.712 135.582 171.475 135.878 172.187C136.175 172.898 136.609 173.544 137.156 174.088C137.702 174.631 138.351 175.061 139.065 175.352C139.779 175.643 140.543 175.791 141.314 175.785H141.274Z" fill="#F0F0F0"/>
<path d="M143.91 191.038C143.91 190.653 143.91 190.278 143.959 189.903L141.738 188.659C141.898 187.613 142.17 186.587 142.548 185.599L145.085 185.648C145.41 184.959 145.793 184.298 146.23 183.673L144.917 181.492C145.59 180.659 146.352 179.901 147.188 179.231L149.369 180.534C149.993 180.098 150.653 179.718 151.344 179.399V176.852C152.342 176.468 153.378 176.19 154.434 176.022L155.668 178.254C156.426 178.175 157.19 178.175 157.948 178.254L159.183 176.022C160.239 176.19 161.274 176.468 162.273 176.852V179.399C162.963 179.718 163.624 180.098 164.247 180.534L166.439 179.231C167.269 179.903 168.027 180.661 168.699 181.492L167.386 183.673C167.823 184.298 168.206 184.959 168.532 185.648L171.079 185.599C171.461 186.597 171.739 187.633 171.908 188.689L169.677 189.932C169.677 190.308 169.726 190.683 169.726 191.068C169.726 191.453 169.726 191.828 169.677 192.203L171.908 193.447C171.739 194.503 171.461 195.538 171.079 196.537L168.532 196.488C168.208 197.178 167.825 197.839 167.386 198.462L168.699 200.644C168.027 201.474 167.269 202.232 166.439 202.905L164.247 201.601C163.626 202.041 162.965 202.421 162.273 202.737V205.284C161.274 205.667 160.239 205.945 159.183 206.113L157.948 203.882C157.19 203.961 156.426 203.961 155.668 203.882L154.434 206.113C153.378 205.945 152.342 205.667 151.344 205.284V202.737C150.652 202.421 149.99 202.041 149.369 201.601L147.188 202.905C146.352 202.235 145.59 201.477 144.917 200.644L146.25 198.432C145.811 197.809 145.428 197.148 145.105 196.458L142.567 196.507C142.181 195.51 141.903 194.474 141.738 193.417L143.959 192.173C143.93 191.798 143.91 191.423 143.91 191.038ZM156.744 196.112C157.748 196.112 158.729 195.815 159.563 195.257C160.398 194.7 161.048 193.907 161.432 192.98C161.816 192.053 161.917 191.033 161.721 190.048C161.525 189.064 161.042 188.16 160.332 187.45C159.622 186.74 158.718 186.257 157.734 186.061C156.75 185.866 155.729 185.966 154.802 186.35C153.875 186.734 153.082 187.385 152.525 188.219C151.967 189.053 151.67 190.035 151.67 191.038C151.67 191.708 151.802 192.371 152.06 192.989C152.317 193.607 152.695 194.169 153.17 194.64C153.645 195.112 154.209 195.485 154.83 195.738C155.45 195.99 156.114 196.118 156.784 196.112H156.744Z" fill="#F0F0F0"/>
<path d="M343.784 151.904H355.413C356.407 151.904 357.391 152.1 358.31 152.481C359.228 152.862 360.062 153.419 360.764 154.123C361.467 154.826 362.023 155.661 362.403 156.579C362.782 157.498 362.977 158.482 362.976 159.476V171.096C362.976 173.102 362.179 175.027 360.761 176.447C359.343 177.866 357.42 178.665 355.413 178.668H343.784C341.777 178.665 339.854 177.866 338.436 176.447C337.018 175.027 336.222 173.102 336.222 171.096V159.476C336.22 158.482 336.415 157.498 336.795 156.579C337.174 155.661 337.731 154.826 338.433 154.123C339.136 153.419 339.97 152.862 340.888 152.481C341.806 152.1 342.79 151.904 343.784 151.904ZM349.599 173.623C349.599 173.623 355.887 166.772 355.887 163.297C355.887 161.629 355.225 160.03 354.045 158.85C352.866 157.671 351.267 157.008 349.599 157.008C347.931 157.008 346.331 157.671 345.152 158.85C343.973 160.03 343.31 161.629 343.31 163.297C343.31 166.742 349.599 173.594 349.599 173.594V173.623Z" fill="#F0F0F0"/>
<path d="M349.599 160.405C350.167 160.405 350.723 160.573 351.196 160.889C351.668 161.206 352.037 161.655 352.254 162.18C352.471 162.706 352.527 163.284 352.416 163.841C352.304 164.399 352.029 164.911 351.627 165.312C351.224 165.714 350.711 165.986 350.153 166.096C349.595 166.206 349.017 166.148 348.492 165.929C347.968 165.71 347.52 165.34 347.205 164.866C346.891 164.393 346.724 163.836 346.726 163.268C346.726 162.891 346.8 162.518 346.945 162.17C347.089 161.822 347.301 161.506 347.568 161.24C347.835 160.974 348.151 160.763 348.5 160.62C348.848 160.476 349.222 160.403 349.599 160.405Z" fill="#F0F0F0"/>
<path d="M108.982 65.157H121.253C122.171 65.1557 123.079 65.3353 123.927 65.6855C124.775 66.0356 125.546 66.5495 126.195 67.1978C126.844 67.8461 127.359 68.6159 127.711 69.4634C128.062 70.3108 128.243 71.2193 128.243 72.1367V84.4178C128.243 85.3352 128.062 86.2436 127.711 87.0911C127.359 87.9385 126.844 88.7084 126.195 89.3566C125.546 90.0049 124.775 90.5188 123.927 90.869C123.079 91.2192 122.171 91.3987 121.253 91.3975H108.982C108.065 91.3988 107.157 91.2191 106.309 90.8688C105.462 90.5185 104.692 90.0044 104.044 89.356C103.395 88.7077 102.881 87.9377 102.531 87.0903C102.181 86.2429 102.001 85.3347 102.002 84.4178V72.0676C102.018 70.2276 102.761 68.4685 104.068 67.1739C105.376 65.8793 107.142 65.1543 108.982 65.157ZM107.343 74.1309C107.665 74.5381 108.04 74.9001 108.459 75.2069C108.476 75.2136 108.491 75.2261 108.5 75.2424C108.509 75.2586 108.512 75.2776 108.508 75.2958C108.495 75.7546 108.521 76.2138 108.587 76.668C108.689 77.6203 108.942 78.5501 109.337 79.4224C109.744 80.3101 110.291 81.1267 110.956 81.8411C112.098 83.0441 113.579 83.8707 115.202 84.2104C115.773 84.3368 116.354 84.4095 116.939 84.4276C118.68 84.4673 120.394 84.0009 121.875 83.085H121.954C120.321 83.252 118.685 82.8051 117.364 81.8312C118.011 81.8158 118.639 81.6008 119.16 81.2156C119.681 80.8305 120.071 80.2939 120.276 79.6791C119.837 79.7727 119.382 79.7727 118.943 79.6791C119.362 79.591 119.758 79.4187 120.107 79.1726C120.457 78.9265 120.753 78.6118 120.977 78.2476C121.286 77.7568 121.45 77.1888 121.451 76.6088C121.033 76.8328 120.571 76.9609 120.098 76.9839C120.741 76.5341 121.194 75.8625 121.372 75.0984C121.564 74.3399 121.454 73.5365 121.066 72.8574C120.274 73.8112 119.293 74.5912 118.185 75.1484C117.078 75.7056 115.867 76.028 114.629 76.0955C114.633 75.9782 114.653 75.862 114.688 75.7499C114.79 75.0432 114.64 74.3233 114.264 73.7162C114.035 73.3504 113.729 73.039 113.368 72.8037C113.006 72.5684 112.598 72.4148 112.171 72.3539C111.686 72.2688 111.187 72.3025 110.718 72.452C110.248 72.6016 109.822 72.8626 109.476 73.2128C109.454 73.2374 109.426 73.2553 109.394 73.264C109.363 73.2728 109.329 73.2721 109.298 73.2621C108.671 73.1281 108.068 72.8983 107.511 72.5809C107.734 73.2384 108.168 73.8039 108.745 74.1901C108.152 74.1207 107.572 73.9609 107.027 73.7162L107.343 74.1309Z" fill="#F0F0F0"/>
<path d="M366.263 57.1011H379.403C383.53 57.1011 386.876 60.447 386.876 64.5744V77.7144C386.876 81.8417 383.53 85.1876 379.403 85.1876H366.263C362.136 85.1876 358.79 81.8417 358.79 77.7144V64.5744C358.79 60.447 362.136 57.1011 366.263 57.1011Z" fill="#F0F0F0"/>
<path d="M369.689 66.6773V70.6262C369.689 71.0151 369.765 71.4002 369.914 71.7595C370.063 72.1189 370.281 72.4454 370.556 72.7204C370.831 72.9954 371.158 73.2136 371.517 73.3624C371.876 73.5112 372.261 73.5878 372.65 73.5878H376.431L380.746 77.902V73.5878C381.531 73.5878 382.284 73.2758 382.84 72.7204C383.395 72.165 383.707 71.4116 383.707 70.6262V66.6773C383.707 65.8918 383.395 65.1385 382.84 64.583C382.284 64.0276 381.531 63.7156 380.746 63.7156H372.65C371.865 63.7156 371.112 64.0276 370.556 64.583C370.001 65.1385 369.689 65.8918 369.689 66.6773Z" fill="white"/>
<path d="M361.959 72.65V75.6907C361.959 76.2955 362.199 76.8755 362.627 77.3032C363.054 77.7309 363.634 77.9712 364.239 77.9712V81.2882L367.556 77.9909H370.459C371.064 77.9909 371.644 77.7506 372.071 77.323C372.499 76.8953 372.739 76.3152 372.739 75.7104V72.6698C372.741 72.3694 372.683 72.0718 372.568 71.794C372.454 71.5162 372.287 71.2636 372.075 71.0508C371.863 70.838 371.611 70.6691 371.334 70.5539C371.056 70.4387 370.759 70.3794 370.459 70.3794H364.239C363.636 70.3794 363.058 70.6183 362.63 71.0438C362.203 71.4694 361.961 72.0469 361.959 72.65Z" fill="white"/>
<path d="M372.818 66.924H380.143C380.232 66.924 380.318 66.8886 380.381 66.8257C380.444 66.7627 380.479 66.6774 380.479 66.5883C380.479 66.4993 380.444 66.4139 380.381 66.351C380.318 66.2881 380.232 66.2527 380.143 66.2527H372.818C372.729 66.2527 372.644 66.2881 372.581 66.351C372.518 66.4139 372.482 66.4993 372.482 66.5883C372.482 66.6774 372.518 66.7627 372.581 66.8257C372.644 66.8886 372.729 66.924 372.818 66.924Z" fill="#EBEBEB"/>
<path d="M372.818 68.632H380.143C380.232 68.632 380.318 68.5966 380.381 68.5337C380.444 68.4708 380.479 68.3854 380.479 68.2964C380.479 68.2073 380.444 68.122 380.381 68.059C380.318 67.9961 380.232 67.9607 380.143 67.9607H372.818C372.729 67.9607 372.644 67.9961 372.581 68.059C372.518 68.122 372.482 68.2073 372.482 68.2964C372.482 68.3854 372.518 68.4708 372.581 68.5337C372.644 68.5966 372.729 68.632 372.818 68.632Z" fill="#EBEBEB"/>
<path d="M374.862 70.3398H380.143C380.232 70.3398 380.318 70.3044 380.381 70.2415C380.444 70.1785 380.479 70.0931 380.479 70.0041C380.479 69.9151 380.444 69.8297 380.381 69.7668C380.318 69.7038 380.232 69.6685 380.143 69.6685H374.862C374.773 69.6685 374.687 69.7038 374.624 69.7668C374.561 69.8297 374.526 69.9151 374.526 70.0041C374.526 70.0931 374.561 70.1785 374.624 70.2415C374.687 70.3044 374.773 70.3398 374.862 70.3398Z" fill="#EBEBEB"/>
<path d="M247.193 364C141.479 364 55.7803 358.997 55.7803 352.825C55.7803 346.653 141.479 341.649 247.193 341.649C352.908 341.649 438.607 346.653 438.607 352.825C438.607 358.997 352.908 364 247.193 364Z" fill="#F5F5F5"/>
<path d="M201.88 119.05H202.867V108.457C202.87 106.417 203.681 104.461 205.122 103.018C206.563 101.575 208.518 100.762 210.558 100.756H230.055C232.359 100.754 234.567 99.8376 236.195 98.209C237.824 96.5803 238.74 94.3721 238.743 92.0688V83.9143H237.756V92.0885C237.753 94.13 236.941 96.0871 235.497 97.5306C234.054 98.9742 232.097 99.7863 230.055 99.7889H210.558C208.255 99.7915 206.048 100.708 204.421 102.337C202.794 103.966 201.88 106.174 201.88 108.476V119.05Z" fill="black"/>
<path d="M194.871 119.257H207.705C208.949 119.257 210.143 119.751 211.024 120.63C211.905 121.509 212.401 122.702 212.404 123.946V136.78C212.401 138.025 211.905 139.217 211.024 140.097C210.143 140.976 208.949 141.469 207.705 141.469H194.871C193.626 141.469 192.432 140.976 191.551 140.097C190.67 139.217 190.174 138.025 190.171 136.78V123.946C190.174 122.702 190.67 121.509 191.551 120.63C192.432 119.751 193.626 119.257 194.871 119.257Z" fill="#407BFF"/>
<g opacity="0.4">
<path d="M194.871 119.257H207.705C208.949 119.257 210.143 119.751 211.024 120.63C211.905 121.509 212.401 122.702 212.404 123.946V136.78C212.401 138.025 211.905 139.217 211.024 140.097C210.143 140.976 208.949 141.469 207.705 141.469H194.871C193.626 141.469 192.432 140.976 191.551 140.097C190.67 139.217 190.174 138.025 190.171 136.78V123.946C190.174 122.702 190.67 121.509 191.551 120.63C192.432 119.751 193.626 119.257 194.871 119.257Z" fill="white"/>
</g>
<path d="M201.386 121.35C203.133 121.348 204.841 121.864 206.293 122.833C207.746 123.802 208.879 125.181 209.548 126.794C210.218 128.407 210.393 130.182 210.053 131.895C209.713 133.608 208.872 135.182 207.637 136.416C206.402 137.651 204.829 138.492 203.116 138.832C201.403 139.173 199.627 138.997 198.014 138.328C196.401 137.659 195.023 136.526 194.054 135.073C193.085 133.62 192.569 131.912 192.57 130.166C192.576 127.829 193.506 125.59 195.158 123.938C196.811 122.286 199.05 121.355 201.386 121.35ZM202.788 122.337C203.646 123.192 204.342 124.195 204.842 125.299H207.636C206.436 123.744 204.701 122.692 202.769 122.347L202.788 122.337ZM208.238 126.128H205.217C205.653 127.26 205.916 128.452 205.997 129.662V129.87H209.304C209.259 128.557 208.893 127.276 208.238 126.138V126.128ZM208.06 134.47C208.784 133.351 209.215 132.068 209.314 130.738H205.977C205.849 132.027 205.516 133.287 204.99 134.47H208.06ZM207.408 135.339H204.575C204.034 136.36 203.312 137.273 202.443 138.034C204.372 137.781 206.141 136.825 207.408 135.349V135.339ZM201.821 137.422C202.511 136.826 203.102 136.123 203.568 135.339H201.781L201.821 137.422ZM201.821 134.46H204.042C204.606 133.286 204.964 132.024 205.098 130.729H201.781L201.821 134.46ZM201.821 129.86H205.128C205.071 128.572 204.783 127.305 204.279 126.118H201.781L201.821 129.86ZM201.821 125.249H203.874C203.366 124.252 202.669 123.364 201.821 122.633V125.249ZM193.439 129.86H196.756V129.652C196.832 128.441 197.095 127.249 197.536 126.118H194.515C193.847 127.262 193.477 128.555 193.439 129.879V129.86ZM195.137 125.249H197.921C198.428 124.148 199.126 123.145 199.985 122.288C198.054 122.645 196.326 123.708 195.137 125.269V125.249ZM200.952 122.643C200.102 123.367 199.404 124.253 198.899 125.249H200.952V122.643ZM200.952 126.118H198.494C197.988 127.304 197.697 128.571 197.635 129.86H200.952V126.118ZM200.952 130.729H197.674C197.805 132.025 198.162 133.288 198.731 134.46H200.952V130.729ZM200.952 137.412V135.349H199.205C199.665 136.137 200.256 136.841 200.952 137.432V137.412ZM200.33 138.024C199.461 137.263 198.738 136.35 198.198 135.329H195.364C196.627 136.816 198.396 137.783 200.33 138.044V138.024ZM194.713 134.46H197.773C197.247 133.277 196.914 132.017 196.786 130.729H193.449C193.545 132.066 193.98 133.357 194.713 134.48V134.46Z" fill="white"/>
<path d="M162.045 102.672H163.033V92.0786C163.033 90.039 163.843 88.0829 165.285 86.6406C166.727 85.1984 168.683 84.3881 170.723 84.3881H217.251V83.4009H170.723C168.422 83.4035 166.217 84.3186 164.59 85.9454C162.963 87.5722 162.048 89.7779 162.045 92.0786V102.672Z" fill="black"/>
<path d="M158.857 94.991H171.691C172.935 94.991 174.129 95.4847 175.01 96.3638C175.891 97.243 176.387 98.4357 176.39 99.6803V112.514C176.387 113.759 175.891 114.952 175.01 115.831C174.129 116.71 172.935 117.204 171.691 117.204H158.857C157.612 117.204 156.418 116.71 155.537 115.831C154.656 114.952 154.16 113.759 154.157 112.514V99.7099C154.155 99.0911 154.274 98.478 154.509 97.9055C154.744 97.3331 155.09 96.8128 155.527 96.3743C155.963 95.9358 156.482 95.5879 157.054 95.3506C157.625 95.1132 158.238 94.991 158.857 94.991Z" fill="#407BFF"/>
<g opacity="0.4">
<path d="M158.857 94.991H171.691C172.935 94.991 174.129 95.4847 175.01 96.3638C175.891 97.243 176.387 98.4357 176.39 99.6803V112.514C176.387 113.759 175.891 114.952 175.01 115.831C174.129 116.71 172.935 117.204 171.691 117.204H158.857C157.612 117.204 156.418 116.71 155.537 115.831C154.656 114.952 154.16 113.759 154.157 112.514V99.7099C154.155 99.0911 154.274 98.478 154.509 97.9055C154.744 97.3331 155.09 96.8128 155.527 96.3743C155.963 95.9358 156.482 95.5879 157.054 95.3506C157.625 95.1132 158.238 94.991 158.857 94.991Z" fill="white"/>
</g>
<path opacity="0.9" d="M163.773 99.9665C164.497 99.2422 165.412 98.7391 166.412 98.5161C167.411 98.2931 168.454 98.3594 169.417 98.7073C170.38 99.0553 171.224 99.6704 171.85 100.481C172.477 101.291 172.859 102.263 172.953 103.283C173.047 104.302 172.849 105.328 172.381 106.239C171.913 107.15 171.195 107.909 170.312 108.427C169.429 108.945 168.416 109.2 167.393 109.164C166.369 109.127 165.377 108.8 164.533 108.22C164.493 108.467 164.376 108.695 164.198 108.871L160.851 112.218C160.739 112.33 160.606 112.419 160.459 112.48C160.313 112.54 160.156 112.572 159.997 112.572C159.838 112.572 159.681 112.54 159.535 112.48C159.388 112.419 159.255 112.33 159.143 112.218C159.031 112.106 158.942 111.973 158.881 111.826C158.821 111.68 158.789 111.523 158.789 111.364C158.789 111.205 158.821 111.048 158.881 110.902C158.942 110.755 159.031 110.622 159.143 110.51L162.49 107.163C162.669 106.984 162.9 106.866 163.151 106.828C162.438 105.791 162.109 104.538 162.223 103.285C162.336 102.032 162.885 100.858 163.773 99.9665ZM164.918 106.443C165.447 106.972 166.12 107.333 166.854 107.48C167.588 107.627 168.349 107.552 169.04 107.266C169.731 106.98 170.322 106.496 170.738 105.874C171.154 105.252 171.376 104.52 171.376 103.772C171.376 103.024 171.154 102.293 170.738 101.671C170.322 101.049 169.731 100.564 169.04 100.278C168.349 99.9922 167.588 99.9179 166.854 100.064C166.12 100.211 165.447 100.572 164.918 101.102C164.567 101.452 164.288 101.868 164.098 102.327C163.908 102.785 163.81 103.276 163.81 103.772C163.81 104.268 163.908 104.76 164.098 105.218C164.288 105.676 164.567 106.092 164.918 106.443Z" fill="white"/>
<path d="M158.807 66.5786H218.357V67.5658H158.807V66.5786Z" fill="black"/>
<path d="M149.389 49.6377H162.174C162.79 49.6377 163.401 49.7593 163.971 49.9956C164.54 50.2319 165.057 50.5782 165.493 51.0147C165.929 51.4511 166.274 51.9693 166.509 52.5393C166.744 53.1094 166.864 53.7203 166.863 54.3369V67.1313C166.864 67.748 166.744 68.3588 166.509 68.9289C166.274 69.499 165.929 70.0171 165.493 70.4536C165.057 70.8901 164.54 71.2364 163.971 71.4726C163.401 71.7089 162.79 71.8305 162.174 71.8305H149.389C148.143 71.8305 146.948 71.3354 146.066 70.4542C145.185 69.5729 144.69 68.3776 144.69 67.1313V54.2974C144.7 53.058 145.2 51.8728 146.08 51.0001C146.96 50.1273 148.15 49.6377 149.389 49.6377Z" fill="#407BFF"/>
<g opacity="0.4">
<path d="M149.389 49.6377H162.174C162.79 49.6377 163.401 49.7593 163.971 49.9956C164.54 50.2319 165.057 50.5782 165.493 51.0147C165.929 51.4511 166.274 51.9693 166.509 52.5393C166.744 53.1094 166.864 53.7203 166.863 54.3369V67.1313C166.864 67.748 166.744 68.3588 166.509 68.9289C166.274 69.499 165.929 70.0171 165.493 70.4536C165.057 70.8901 164.54 71.2364 163.971 71.4726C163.401 71.7089 162.79 71.8305 162.174 71.8305H149.389C148.143 71.8305 146.948 71.3354 146.066 70.4542C145.185 69.5729 144.69 68.3776 144.69 67.1313V54.2974C144.7 53.058 145.2 51.8728 146.08 51.0001C146.96 50.1273 148.15 49.6377 149.389 49.6377Z" fill="white"/>
</g>
<g opacity="0.5">
<path d="M158.896 67.0723C158.896 67.4022 158.994 67.7248 159.177 67.9992C159.361 68.2735 159.621 68.4874 159.926 68.6137C160.231 68.7399 160.566 68.773 160.89 68.7086C161.214 68.6442 161.511 68.4853 161.744 68.252C161.978 68.0187 162.137 67.7214 162.201 67.3977C162.265 67.0741 162.232 66.7386 162.106 66.4338C161.98 66.1289 161.766 65.8683 161.492 65.685C161.217 65.5017 160.895 65.4038 160.565 65.4038C160.345 65.4025 160.128 65.4448 159.925 65.5282C159.722 65.6115 159.537 65.7344 159.382 65.8896C159.227 66.0448 159.104 66.2292 159.021 66.4322C158.937 66.6352 158.895 66.8528 158.896 67.0723Z" fill="white"/>
<path d="M152.42 67.0723C152.42 67.4022 152.518 67.7248 152.701 67.9992C152.885 68.2735 153.145 68.4874 153.45 68.6137C153.755 68.7399 154.09 68.773 154.414 68.7086C154.738 68.6442 155.035 68.4853 155.268 68.252C155.502 68.0187 155.661 67.7214 155.725 67.3977C155.789 67.0741 155.756 66.7386 155.63 66.4338C155.504 66.1289 155.29 65.8683 155.015 65.685C154.741 65.5017 154.419 65.4038 154.089 65.4038C153.869 65.4025 153.652 65.4448 153.449 65.5282C153.246 65.6115 153.061 65.7344 152.906 65.8896C152.751 66.0448 152.628 66.2292 152.544 66.4322C152.461 66.6352 152.419 66.8528 152.42 67.0723Z" fill="white"/>
</g>
<path d="M152.696 64.5546H162.391C162.486 64.5529 162.578 64.5215 162.654 64.4649C162.73 64.4082 162.787 64.3291 162.815 64.2387L164.849 57.4959C164.87 57.4294 164.875 57.3588 164.863 57.29C164.851 57.2213 164.822 57.1565 164.78 57.101C164.739 57.0459 164.685 57.0011 164.623 56.9702C164.562 56.9394 164.494 56.9233 164.425 56.9233H150.663C150.592 56.9233 150.523 56.9393 150.46 56.9701C150.396 57.0009 150.341 57.0457 150.297 57.101C150.257 57.1575 150.23 57.2223 150.218 57.2906C150.206 57.359 150.21 57.4291 150.228 57.4959L152.272 64.2387C152.299 64.3299 152.356 64.4098 152.432 64.4667C152.508 64.5236 152.601 64.5544 152.696 64.5546ZM162.055 63.6661H153.022L151.255 57.8118H163.832L162.055 63.6661Z" fill="white"/>
<path d="M150.663 57.812H150.781C150.838 57.7961 150.891 57.7692 150.937 57.7327C150.983 57.6962 151.021 57.651 151.05 57.5995C151.078 57.5481 151.096 57.4916 151.103 57.4331C151.109 57.3747 151.104 57.3156 151.087 57.2592L150.307 54.5443C150.205 54.1889 149.989 53.8764 149.694 53.6539C149.398 53.4313 149.039 53.3107 148.669 53.3103H147.128C147.011 53.3103 146.898 53.3571 146.814 53.4404C146.731 53.5237 146.684 53.6367 146.684 53.7546C146.684 53.8724 146.731 53.9854 146.814 54.0687C146.898 54.152 147.011 54.1988 147.128 54.1988H148.669C148.845 54.2004 149.016 54.2589 149.157 54.3656C149.297 54.4724 149.4 54.6216 149.448 54.7911L150.228 57.506C150.259 57.5962 150.318 57.6743 150.396 57.7292C150.474 57.7841 150.567 57.8131 150.663 57.812Z" fill="white"/>
<path d="M200.794 53.3891H220.163V52.4018H200.794C198.754 52.4018 196.798 51.5916 195.356 50.1493C193.914 48.7071 193.104 46.751 193.104 44.7113V34.1184H192.116V44.7113C192.119 47.012 193.034 49.2177 194.661 50.8445C196.288 52.4714 198.493 53.3864 200.794 53.3891Z" fill="black"/>
<path d="M185.778 17.2073H199.363C201.762 17.2073 203.706 19.1521 203.706 21.5511V35.1353C203.706 37.5343 201.762 39.4791 199.363 39.4791H185.778C183.379 39.4791 181.435 37.5343 181.435 35.1353V21.5511C181.435 19.1521 183.379 17.2073 185.778 17.2073Z" fill="#407BFF"/>
<g opacity="0.4">
<path d="M185.778 17.2073H199.363C201.762 17.2073 203.706 19.1521 203.706 21.5511V35.1353C203.706 37.5343 201.762 39.4791 199.363 39.4791H185.778C183.379 39.4791 181.435 37.5343 181.435 35.1353V21.5511C181.435 19.1521 183.379 17.2073 185.778 17.2073Z" fill="white"/>
</g>
<path d="M184.13 30.673C184.13 30.91 184.13 31.7491 184.179 31.986H191.791V28.353H190.754L192.896 26.2009L195.048 28.353H194.012V31.986H201.159C201.159 31.8676 201.159 31.137 201.159 30.9988C201.159 30.0492 200.805 29.1337 200.166 28.4311C199.527 27.7284 198.649 27.2888 197.704 27.198V27.0499C197.712 25.9763 197.335 24.9353 196.641 24.1164C195.947 23.2974 194.981 22.7549 193.921 22.5875C192.86 22.4201 191.775 22.639 190.862 23.2043C189.95 23.7696 189.27 24.6438 188.947 25.6678C188.679 25.6735 188.412 25.6999 188.148 25.7468C187.005 25.963 185.975 26.5757 185.24 27.477C184.505 28.3782 184.112 29.5101 184.13 30.673Z" fill="white"/>
<path d="M245.565 28.0964H246.552V48.3839H245.565V28.0964Z" fill="black"/>
<path d="M239.661 8.74683H252.446C253.692 8.74683 254.887 9.24192 255.768 10.1232C256.65 11.0045 257.145 12.1997 257.145 13.446V26.2306C257.145 27.4769 256.65 28.6722 255.768 29.5534C254.887 30.4347 253.692 30.9298 252.446 30.9298H239.661C239.044 30.9298 238.434 30.8082 237.864 30.5719C237.295 30.3356 236.777 29.9893 236.342 29.5528C235.906 29.1163 235.561 28.5982 235.326 28.0282C235.091 27.4581 234.97 26.8472 234.972 26.2306V13.446C234.97 12.8294 235.091 12.2185 235.326 11.6485C235.561 11.0784 235.906 10.5603 236.342 10.1238C236.777 9.68729 237.295 9.341 237.864 9.10472C238.434 8.86844 239.044 8.74682 239.661 8.74683Z" fill="#407BFF"/>
<g opacity="0.4">
<path d="M239.661 8.74683H252.446C253.692 8.74683 254.887 9.24192 255.768 10.1232C256.65 11.0045 257.145 12.1997 257.145 13.446V26.2306C257.145 27.4769 256.65 28.6722 255.768 29.5534C254.887 30.4347 253.692 30.9298 252.446 30.9298H239.661C239.044 30.9298 238.434 30.8082 237.864 30.5719C237.295 30.3356 236.777 29.9893 236.342 29.5528C235.906 29.1163 235.561 28.5982 235.326 28.0282C235.091 27.4581 234.97 26.8472 234.972 26.2306V13.446C234.97 12.8294 235.091 12.2185 235.326 11.6485C235.561 11.0784 235.906 10.5603 236.342 10.1238C236.777 9.68729 237.295 9.341 237.864 9.10472C238.434 8.86844 239.044 8.74682 239.661 8.74683Z" fill="white"/>
</g>
<path d="M244.005 21.2945C244.005 21.1465 244.005 20.9984 244.005 20.8602L243.107 20.5048C243.114 20.0954 243.167 19.6881 243.264 19.2905L244.252 19.1819C244.335 18.9059 244.445 18.6382 244.578 18.3822L243.975 17.6221C244.19 17.27 244.438 16.9394 244.716 16.6348L245.604 17.0199C245.819 16.8229 246.05 16.6446 246.295 16.4868L246.157 15.4995C246.512 15.2979 246.89 15.1389 247.282 15.0257L247.855 15.8056L248.181 15.7957H248.605L248.971 14.8875C249.376 14.9005 249.78 14.9534 250.175 15.0454L250.284 16.0326C250.564 16.1179 250.835 16.2303 251.093 16.3683L251.853 15.7562C252.208 15.9711 252.539 16.2226 252.841 16.5065L252.456 17.395C252.649 17.6106 252.824 17.8418 252.979 18.0861L253.966 17.938C254.157 18.2972 254.312 18.6741 254.43 19.0634L253.65 19.6459C253.65 19.7841 253.709 19.9223 253.729 20.0704C253.739 20.215 253.739 20.3601 253.729 20.5048L254.637 20.8602C254.63 21.2695 254.577 21.6768 254.479 22.0745L253.492 22.183C253.404 22.4575 253.295 22.7248 253.166 22.9827L253.769 23.7429C253.554 24.0949 253.306 24.4255 253.028 24.7301L252.13 24.3451C251.92 24.5442 251.692 24.7227 251.449 24.8782L251.587 25.8654C251.23 26.062 250.853 26.2176 250.461 26.3294L249.889 25.5495L249.454 25.6285H249.02L248.665 26.5268C248.259 26.5193 247.855 26.4663 247.46 26.3689L247.352 25.3817C247.071 25.2964 246.8 25.184 246.542 25.046L245.782 25.6482C245.425 25.4403 245.094 25.1918 244.795 24.9078L245.18 24.0193C244.986 23.8043 244.811 23.5731 244.656 23.3282L243.669 23.4763C243.478 23.1171 243.323 22.7402 243.205 22.3509L243.985 21.7684C244.054 21.5808 244.025 21.4328 244.005 21.2945ZM249.168 22.5681C249.559 22.5243 249.929 22.3646 250.228 22.1094C250.528 21.8542 250.745 21.5152 250.851 21.136C250.956 20.7567 250.946 20.3545 250.822 19.9811C250.697 19.6076 250.464 19.2799 250.151 19.0401C249.839 18.8002 249.462 18.6592 249.07 18.6351C248.677 18.611 248.285 18.7049 247.946 18.9048C247.607 19.1047 247.335 19.4015 247.166 19.7569C246.997 20.1124 246.938 20.5103 246.996 20.8997C247.072 21.4046 247.341 21.8605 247.746 22.1716C248.151 22.4827 248.661 22.6248 249.168 22.5681Z" fill="#407BFF"/>
<path d="M244.005 21.2945C244.005 21.1465 244.005 20.9984 244.005 20.8602L243.107 20.5048C243.114 20.0954 243.167 19.6881 243.264 19.2905L244.252 19.1819C244.335 18.9059 244.445 18.6382 244.578 18.3822L243.975 17.6221C244.19 17.27 244.438 16.9394 244.716 16.6348L245.604 17.0199C245.819 16.8229 246.05 16.6446 246.295 16.4868L246.157 15.4995C246.512 15.2979 246.89 15.1389 247.282 15.0257L247.855 15.8056L248.181 15.7957H248.605L248.971 14.8875C249.376 14.9005 249.78 14.9534 250.175 15.0454L250.284 16.0326C250.564 16.1179 250.835 16.2303 251.093 16.3683L251.853 15.7562C252.208 15.9711 252.539 16.2226 252.841 16.5065L252.456 17.395C252.649 17.6106 252.824 17.8418 252.979 18.0861L253.966 17.938C254.157 18.2972 254.312 18.6741 254.43 19.0634L253.65 19.6459C253.65 19.7841 253.709 19.9223 253.729 20.0704C253.739 20.215 253.739 20.3601 253.729 20.5048L254.637 20.8602C254.63 21.2695 254.577 21.6768 254.479 22.0745L253.492 22.183C253.404 22.4575 253.295 22.7248 253.166 22.9827L253.769 23.7429C253.554 24.0949 253.306 24.4255 253.028 24.7301L252.13 24.3451C251.92 24.5442 251.692 24.7227 251.449 24.8782L251.587 25.8654C251.23 26.062 250.853 26.2176 250.461 26.3294L249.889 25.5495L249.454 25.6285H249.02L248.665 26.5268C248.259 26.5193 247.855 26.4663 247.46 26.3689L247.352 25.3817C247.071 25.2964 246.8 25.184 246.542 25.046L245.782 25.6482C245.425 25.4403 245.094 25.1918 244.795 24.9078L245.18 24.0193C244.986 23.8043 244.811 23.5731 244.656 23.3282L243.669 23.4763C243.478 23.1171 243.323 22.7402 243.205 22.3509L243.985 21.7684C244.054 21.5808 244.025 21.4328 244.005 21.2945ZM249.168 22.5681C249.559 22.5243 249.929 22.3646 250.228 22.1094C250.528 21.8542 250.745 21.5152 250.851 21.136C250.956 20.7567 250.946 20.3545 250.822 19.9811C250.697 19.6076 250.464 19.2799 250.151 19.0401C249.839 18.8002 249.462 18.6592 249.07 18.6351C248.677 18.611 248.285 18.7049 247.946 18.9048C247.607 19.1047 247.335 19.4015 247.166 19.7569C246.997 20.1124 246.938 20.5103 246.996 20.8997C247.072 21.4046 247.341 21.8605 247.746 22.1716C248.151 22.4827 248.661 22.6248 249.168 22.5681Z" fill="white"/>
<g opacity="0.5">
<path d="M239.957 18.2833C240.523 18.2852 241.073 18.0964 241.518 17.7474C241.964 17.3984 242.278 16.9096 242.412 16.3597C242.545 15.8099 242.49 15.2312 242.254 14.7169C242.018 14.2026 241.616 13.7827 241.112 13.5249V15.1143C241.109 15.4222 240.985 15.7164 240.767 15.9337C240.552 16.1485 240.261 16.2693 239.957 16.2694C239.651 16.2694 239.357 16.1477 239.141 15.9311C238.924 15.7145 238.802 15.4207 238.802 15.1143V13.5249C238.299 13.7827 237.896 14.2026 237.661 14.7169C237.425 15.2312 237.369 15.8099 237.503 16.3597C237.636 16.9096 237.951 17.3984 238.396 17.7474C238.842 18.0964 239.392 18.2852 239.957 18.2833Z" fill="white"/>
<path d="M241.102 24.5721V17.5825C241.104 17.4313 241.075 17.2814 241.018 17.1413C240.961 17.0012 240.877 16.8738 240.77 16.7664C240.664 16.659 240.537 16.5738 240.398 16.5156C240.258 16.4574 240.108 16.4275 239.957 16.4275C239.806 16.4275 239.656 16.4574 239.517 16.5156C239.377 16.5738 239.25 16.659 239.144 16.7664C239.037 16.8738 238.953 17.0012 238.896 17.1413C238.839 17.2814 238.811 17.4313 238.812 17.5825V24.5721C238.812 24.7225 238.842 24.8714 238.899 25.0103C238.957 25.1493 239.041 25.2755 239.147 25.3819C239.254 25.4882 239.38 25.5726 239.519 25.6301C239.658 25.6877 239.807 25.7173 239.957 25.7173C240.108 25.7173 240.257 25.6877 240.395 25.6301C240.534 25.5726 240.661 25.4882 240.767 25.3819C240.873 25.2755 240.958 25.1493 241.015 25.0103C241.073 24.8714 241.102 24.7225 241.102 24.5721Z" fill="white"/>
</g>
<path d="M288.864 119.05H289.852V108.457C289.849 106.153 288.933 103.945 287.304 102.317C285.676 100.688 283.467 99.7718 281.164 99.7691H261.676C259.635 99.7665 257.678 98.9544 256.234 97.5109C254.791 96.0673 253.979 94.1102 253.976 92.0688V83.9143H252.989V92.0885C252.991 94.3918 253.907 96.6 255.536 98.2287C257.165 99.8574 259.373 100.774 261.676 100.776H281.164C283.206 100.779 285.163 101.591 286.606 103.034C288.05 104.478 288.862 106.435 288.864 108.476V119.05Z" fill="black"/>
<path d="M283.454 117.806H296.288C297.535 117.806 298.73 118.301 299.611 119.182C300.492 120.063 300.988 121.259 300.988 122.505V135.25C300.988 135.867 300.866 136.477 300.63 137.047C300.393 137.616 300.047 138.134 299.611 138.569C299.174 139.005 298.656 139.35 298.086 139.585C297.516 139.82 296.905 139.941 296.288 139.939H283.454C282.214 139.934 281.026 139.438 280.151 138.559C279.276 137.68 278.785 136.49 278.785 135.25V122.505C278.785 121.264 279.276 120.073 280.151 119.192C281.026 118.312 282.213 117.813 283.454 117.806Z" fill="#407BFF"/>
<g opacity="0.4">
<path d="M283.454 117.806H296.288C297.535 117.806 298.73 118.301 299.611 119.182C300.492 120.063 300.988 121.259 300.988 122.505V135.25C300.988 135.867 300.866 136.477 300.63 137.047C300.393 137.616 300.047 138.134 299.611 138.569C299.174 139.005 298.656 139.35 298.086 139.585C297.516 139.82 296.905 139.941 296.288 139.939H283.454C282.214 139.934 281.026 139.438 280.151 138.559C279.276 137.68 278.785 136.49 278.785 135.25V122.505C278.785 121.264 279.276 120.073 280.151 119.192C281.026 118.312 282.213 117.813 283.454 117.806Z" fill="white"/>
</g>
<path d="M281.895 134.203C281.895 134.487 281.979 134.763 282.136 134.999C282.293 135.234 282.517 135.418 282.778 135.526C283.04 135.634 283.328 135.663 283.605 135.607C283.883 135.552 284.138 135.416 284.338 135.216C284.538 135.015 284.675 134.76 284.73 134.483C284.785 134.205 284.757 133.917 284.649 133.656C284.54 133.394 284.357 133.171 284.121 133.013C283.886 132.856 283.609 132.772 283.326 132.772C282.946 132.772 282.582 132.923 282.314 133.191C282.045 133.46 281.895 133.824 281.895 134.203Z" fill="white"/>
<path d="M288.233 134.203C288.233 134.487 288.317 134.763 288.474 134.999C288.631 135.234 288.855 135.418 289.116 135.526C289.378 135.634 289.666 135.663 289.943 135.607C290.221 135.552 290.476 135.416 290.676 135.216C290.877 135.015 291.013 134.76 291.068 134.483C291.123 134.205 291.095 133.917 290.987 133.656C290.878 133.394 290.695 133.171 290.459 133.013C290.224 132.856 289.947 132.772 289.664 132.772C289.284 132.772 288.92 132.923 288.652 133.191C288.383 133.46 288.233 133.824 288.233 134.203Z" fill="white"/>
<path d="M294.58 134.203C294.579 134.489 294.661 134.769 294.819 135.007C294.976 135.245 295.2 135.432 295.463 135.542C295.727 135.653 296.017 135.683 296.297 135.628C296.577 135.574 296.835 135.437 297.037 135.236C297.24 135.035 297.378 134.778 297.435 134.498C297.491 134.218 297.463 133.928 297.354 133.664C297.246 133.4 297.061 133.174 296.824 133.016C296.586 132.857 296.307 132.772 296.022 132.772C295.833 132.771 295.646 132.807 295.471 132.878C295.296 132.949 295.137 133.055 295.003 133.188C294.869 133.321 294.763 133.479 294.69 133.653C294.618 133.828 294.58 134.015 294.58 134.203Z" fill="white"/>
<path d="M283 137.066H296.397C297.135 137.066 297.843 136.773 298.366 136.251C298.888 135.729 299.181 135.021 299.181 134.283V134.125C299.181 133.386 298.888 132.678 298.366 132.156C297.843 131.634 297.135 131.341 296.397 131.341H283C282.262 131.341 281.554 131.634 281.032 132.156C280.51 132.678 280.216 133.386 280.216 134.125V134.263C280.214 134.63 280.284 134.994 280.423 135.334C280.561 135.674 280.766 135.984 281.025 136.244C281.283 136.505 281.591 136.712 281.93 136.853C282.269 136.994 282.633 137.066 283 137.066ZM296.397 132.229C296.9 132.229 297.382 132.429 297.737 132.784C298.093 133.14 298.292 133.622 298.292 134.125V134.263C298.292 134.765 298.093 135.248 297.737 135.603C297.382 135.959 296.9 136.158 296.397 136.158H283C282.498 136.158 282.015 135.959 281.66 135.603C281.305 135.248 281.105 134.765 281.105 134.263V134.105C281.105 133.602 281.305 133.12 281.66 132.765C282.015 132.409 282.498 132.209 283 132.209L296.397 132.229Z" fill="white"/>
<path d="M283.129 132.199C283.364 132.199 283.59 132.106 283.757 131.939C283.924 131.772 284.017 131.547 284.017 131.311V128.497L289.644 122.623L292.873 123.68C293.094 123.746 293.333 123.723 293.539 123.615C293.744 123.508 293.899 123.325 293.971 123.105C294.043 122.885 294.026 122.645 293.924 122.437C293.822 122.229 293.643 122.069 293.425 121.991L289.674 120.757C289.515 120.704 289.344 120.697 289.182 120.737C289.019 120.777 288.871 120.863 288.756 120.984L282.447 127.52C282.29 127.685 282.201 127.904 282.201 128.132V131.301C282.199 131.422 282.222 131.542 282.269 131.653C282.315 131.765 282.384 131.866 282.471 131.95C282.558 132.034 282.661 132.1 282.774 132.143C282.887 132.185 283.008 132.205 283.129 132.199Z" fill="white"/>
<path d="M293.435 125.496C293.553 125.496 293.666 125.449 293.749 125.366C293.833 125.283 293.88 125.17 293.88 125.052V122.84C293.88 122.723 293.833 122.61 293.749 122.526C293.666 122.443 293.553 122.396 293.435 122.396C293.317 122.396 293.204 122.443 293.121 122.526C293.038 122.61 292.991 122.723 292.991 122.84V125.052C292.991 125.17 293.038 125.283 293.121 125.366C293.204 125.449 293.317 125.496 293.435 125.496Z" fill="white"/>
<path d="M294.126 127.165C294.185 127.166 294.243 127.155 294.297 127.133C294.352 127.111 294.401 127.078 294.442 127.036C294.705 126.774 294.854 126.42 294.857 126.049C294.827 125.691 294.664 125.358 294.4 125.114C294.135 124.871 293.789 124.736 293.43 124.736C293.071 124.736 292.725 124.871 292.461 125.114C292.197 125.358 292.034 125.691 292.004 126.049C292.001 126.413 292.135 126.765 292.379 127.036C292.419 127.08 292.466 127.115 292.519 127.14C292.573 127.165 292.63 127.179 292.689 127.182C292.807 127.187 292.923 127.146 293.011 127.066C293.099 126.986 293.151 126.875 293.156 126.756C293.162 126.638 293.12 126.522 293.04 126.434C292.992 126.386 292.955 126.329 292.929 126.267C292.904 126.204 292.891 126.136 292.892 126.069C292.895 125.926 292.953 125.791 293.055 125.691C293.156 125.591 293.293 125.536 293.435 125.536C293.577 125.536 293.712 125.592 293.812 125.692C293.912 125.792 293.968 125.927 293.968 126.069C293.967 126.213 293.91 126.35 293.81 126.454C293.729 126.537 293.683 126.648 293.683 126.765C293.683 126.881 293.729 126.993 293.81 127.076C293.9 127.146 294.014 127.177 294.126 127.165Z" fill="white"/>
<path d="M289.101 121.646C289.099 121.717 289.119 121.786 289.156 121.846C289.194 121.906 289.249 121.953 289.314 121.981C289.379 122.01 289.45 122.018 289.52 122.006C289.589 121.993 289.654 121.96 289.704 121.911C289.755 121.861 289.79 121.798 289.804 121.729C289.819 121.66 289.813 121.588 289.786 121.522C289.759 121.457 289.714 121.401 289.655 121.361C289.597 121.322 289.527 121.301 289.457 121.301C289.364 121.301 289.275 121.337 289.209 121.401C289.142 121.466 289.104 121.554 289.101 121.646Z" fill="#407BFF"/>
<path d="M282.842 128.181C282.842 128.252 282.863 128.32 282.902 128.379C282.941 128.437 282.997 128.483 283.062 128.51C283.127 128.537 283.198 128.544 283.267 128.53C283.336 128.516 283.399 128.482 283.449 128.433C283.499 128.383 283.533 128.32 283.546 128.251C283.56 128.182 283.553 128.11 283.526 128.045C283.499 127.98 283.454 127.925 283.395 127.886C283.337 127.847 283.268 127.826 283.198 127.826C283.151 127.826 283.105 127.835 283.062 127.853C283.019 127.871 282.98 127.897 282.947 127.93C282.914 127.963 282.887 128.002 282.869 128.045C282.852 128.088 282.842 128.135 282.842 128.181Z" fill="#407BFF"/>
<path opacity="0.4" d="M292.083 128.152H294.778V130.847H292.083V128.152Z" fill="white"/>
<path d="M280.759 53.3891H300.158C302.461 53.3891 304.669 52.4751 306.298 50.848C307.927 49.2209 308.843 47.0137 308.846 44.7113V34.1184H307.859V44.7113C307.856 46.7519 307.044 48.708 305.6 50.1499C304.156 51.5919 302.199 52.4018 300.158 52.4018H280.759V53.3891Z" fill="black"/>
<path d="M300.109 16.1904H312.884C315.479 16.1904 317.583 18.2943 317.583 20.8896V33.6643C317.583 36.2596 315.479 38.3635 312.884 38.3635H300.109C297.514 38.3635 295.41 36.2596 295.41 33.6643V20.8896C295.41 18.2943 297.514 16.1904 300.109 16.1904Z" fill="#407BFF"/>
<path opacity="0.4" d="M300.109 16.1904H312.884C315.479 16.1904 317.583 18.2943 317.583 20.8896V33.6643C317.583 36.2596 315.479 38.3635 312.884 38.3635H300.109C297.514 38.3635 295.41 36.2596 295.41 33.6643V20.8896C295.41 18.2943 297.514 16.1904 300.109 16.1904Z" fill="white"/>
<path d="M306.496 20.7317C304.522 20.7317 303.535 22.2915 303.535 24.2265C303.535 26.1614 304.571 27.7212 306.496 27.7212C308.421 27.7212 309.458 26.1516 309.458 24.2265C309.458 22.3014 308.402 20.7317 306.496 20.7317Z" fill="white"/>
<path d="M298.776 33.8322H314.216C314.339 33.83 314.456 33.7804 314.542 33.694L313.555 30.989C313.243 30.1402 312.679 29.4075 311.937 28.8901C311.196 28.3728 310.313 28.0957 309.409 28.0964H303.584C302.679 28.0943 301.796 28.3708 301.054 28.8883C300.312 29.4059 299.748 30.1394 299.438 30.989L298.45 33.694C298.537 33.7804 298.654 33.83 298.776 33.8322Z" fill="white"/>
<path d="M325.599 102.672H326.586V92.0786C326.584 89.7762 325.667 87.569 324.038 85.9419C322.409 84.3148 320.201 83.4009 317.899 83.4009H271.381V84.3881H317.899C319.939 84.3881 321.897 85.198 323.34 86.64C324.784 88.082 325.597 90.0381 325.599 92.0786V102.672Z" fill="black"/>
<path d="M319.32 94.8428H332.095C334.69 94.8428 336.794 96.9467 336.794 99.542V112.317C336.794 114.912 334.69 117.016 332.095 117.016H319.32C316.725 117.016 314.621 114.912 314.621 112.317V99.542C314.621 96.9467 316.725 94.8428 319.32 94.8428Z" fill="#407BFF"/>
<path opacity="0.4" d="M319.32 94.8428H332.095C334.69 94.8428 336.794 96.9467 336.794 99.542V112.317C336.794 114.912 334.69 117.016 332.095 117.016H319.32C316.725 117.016 314.621 114.912 314.621 112.317V99.542C314.621 96.9467 316.725 94.8428 319.32 94.8428Z" fill="white"/>
<path opacity="0.6" d="M330.269 107.953H333.023V113.255H330.269V107.953Z" fill="white"/>
<path opacity="0.6" d="M322.46 106.166H325.214V113.255H322.46V106.166Z" fill="white"/>
<path d="M326.507 104.379H329.262V113.255H326.507V104.379Z" fill="white"/>
<path d="M318.541 102.593H321.295V113.255H318.541V102.593Z" fill="white"/>
<path d="M267.659 66.5786H327.208V67.5658H267.659V66.5786Z" fill="black"/>
<path d="M325.303 49.3613H338.087C339.334 49.3613 340.529 49.8564 341.41 50.7377C342.292 51.619 342.787 52.8142 342.787 54.0605V66.8451C342.787 68.0914 342.292 69.2867 341.41 70.1679C340.529 71.0492 339.334 71.5443 338.087 71.5443H325.303C324.686 71.5443 324.076 71.4227 323.506 71.1864C322.936 70.9501 322.419 70.6038 321.984 70.1673C321.548 69.7308 321.203 69.2127 320.968 68.6427C320.733 68.0726 320.612 67.4617 320.614 66.8451V54.0901C320.608 53.471 320.726 52.857 320.959 52.2835C321.192 51.71 321.537 51.1884 321.973 50.7487C322.409 50.3091 322.928 49.9601 323.499 49.722C324.071 49.4839 324.684 49.3613 325.303 49.3613Z" fill="#407BFF"/>
<g opacity="0.4">
<path d="M325.303 49.3613H338.087C339.334 49.3613 340.529 49.8564 341.41 50.7377C342.292 51.619 342.787 52.8142 342.787 54.0605V66.8451C342.787 68.0914 342.292 69.2867 341.41 70.1679C340.529 71.0492 339.334 71.5443 338.087 71.5443H325.303C324.686 71.5443 324.076 71.4227 323.506 71.1864C322.936 70.9501 322.419 70.6038 321.984 70.1673C321.548 69.7308 321.203 69.2127 320.968 68.6427C320.733 68.0726 320.612 67.4617 320.614 66.8451V54.0901C320.608 53.471 320.726 52.857 320.959 52.2835C321.192 51.71 321.537 51.1884 321.973 50.7487C322.409 50.3091 322.928 49.9601 323.499 49.722C324.071 49.4839 324.684 49.3613 325.303 49.3613Z" fill="white"/>
</g>
<path d="M331.207 52.323V54.3764C329.923 54.4814 328.704 54.9854 327.722 55.8178L326.27 54.3666C327.64 53.1517 329.379 52.4321 331.207 52.323Z" fill="#407BFF"/>
<path opacity="0.6" d="M331.207 52.323V54.3764C329.923 54.4814 328.704 54.9854 327.722 55.8178L326.27 54.3666C327.64 53.1517 329.379 52.4321 331.207 52.323Z" fill="white"/>
<path d="M332.204 66.6081C333.658 66.4929 335.023 65.8631 336.054 64.8317C337.086 63.8003 337.716 62.435 337.831 60.981H339.884C339.763 62.9782 338.914 64.8619 337.499 66.2768C336.085 67.6917 334.201 68.5399 332.204 68.6616V66.6081Z" fill="#407BFF"/>
<path opacity="0.8" d="M332.204 66.6081C333.658 66.4929 335.023 65.8631 336.054 64.8317C337.086 63.8003 337.716 62.435 337.831 60.981H339.884C339.763 62.9782 338.914 64.8619 337.499 66.2768C336.085 67.6917 334.201 68.5399 332.204 68.6616V66.6081Z" fill="white"/>
<path d="M337.831 59.9839C337.714 58.5305 337.083 57.1663 336.052 56.1353C335.021 55.1044 333.657 54.4739 332.204 54.3567V52.323C334.201 52.4447 336.085 53.2929 337.499 54.7078C338.914 56.1227 339.763 58.0064 339.884 60.0036L337.831 59.9839Z" fill="#407BFF"/>
<path opacity="0.7" d="M337.831 59.9839C337.714 58.5305 337.083 57.1663 336.052 56.1353C335.021 55.1044 333.657 54.4739 332.204 54.3567V52.323C334.201 52.4447 336.085 53.2929 337.499 54.7078C338.914 56.1227 339.763 58.0064 339.884 60.0036L337.831 59.9839Z" fill="white"/>
<path d="M325.569 55.0476L327.021 56.4988C326.289 57.361 325.809 58.4083 325.634 59.5254C325.459 60.6426 325.595 61.7864 326.028 62.8312C326.46 63.876 327.173 64.7813 328.086 65.4476C329 66.1139 330.08 66.5154 331.207 66.608V68.6615C329.673 68.5686 328.196 68.0464 326.945 67.1545C325.694 66.2625 324.719 65.0368 324.131 63.6172C323.543 62.1976 323.366 60.6413 323.621 59.126C323.875 57.6107 324.55 56.1975 325.569 55.0476Z" fill="white"/>
<path d="M279.308 48.5025L276.534 48.384L272.634 91.4369H275.596C277.067 91.2987 277.413 89.6402 277.817 86.5008L280.542 56.4398C281.174 49.3614 279.96 48.5025 279.308 48.5025Z" fill="#407BFF"/>
<path opacity="0.3" d="M279.308 48.5025L276.534 48.384L272.634 91.4369H275.596C277.067 91.2987 277.413 89.6402 277.817 86.5008L280.542 56.4398C281.174 49.3614 279.96 48.5025 279.308 48.5025Z" fill="black"/>
<path d="M274.836 91.4369H216.481C216.32 91.426 216.164 91.3809 216.022 91.3047C215.879 91.2284 215.755 91.1228 215.657 90.9949C215.559 90.8669 215.489 90.7196 215.453 90.5626C215.416 90.4056 215.413 90.2426 215.444 90.0844L219.087 49.7267C219.105 49.3846 219.246 49.0605 219.483 48.8138C219.721 48.5671 220.039 48.4145 220.381 48.384H278.785C278.946 48.3939 279.102 48.4378 279.245 48.5128C279.387 48.5878 279.512 48.6923 279.611 48.8193C279.71 48.9463 279.781 49.0928 279.819 49.2493C279.857 49.4057 279.861 49.5684 279.831 49.7267L276.179 90.0844C276.164 90.4369 276.018 90.7711 275.77 91.0214C275.521 91.2717 275.188 91.42 274.836 91.4369Z" fill="#407BFF"/>
<path d="M272.644 86.3328H219.65L222.592 52.7375H275.586L272.644 86.3328Z" fill="#407BFF"/>
<path d="M271.874 88.9687H219.66C219.316 88.975 218.975 88.9079 218.659 88.7719C218.343 88.6359 218.06 88.4341 217.828 88.18C217.597 87.9259 217.422 87.6253 217.315 87.2982C217.209 86.9712 217.174 86.6252 217.212 86.2834L220.124 52.8955C220.195 52.1606 220.539 51.4789 221.086 50.984C221.634 50.4891 222.347 50.2166 223.086 50.2201H275.3C275.643 50.2123 275.984 50.2781 276.3 50.413C276.616 50.5479 276.9 50.7487 277.131 51.0021C277.363 51.2555 277.538 51.5555 277.645 51.882C277.751 52.2086 277.786 52.5541 277.748 52.8955L274.836 86.2834C274.767 87.0201 274.425 87.7042 273.877 88.2012C273.328 88.6981 272.614 88.9719 271.874 88.9687Z" fill="#263238"/>
<path d="M272.644 86.3328H219.65L222.592 52.7375H275.586L272.644 86.3328Z" fill="#407BFF"/>
<path opacity="0.4" d="M272.644 86.3328H219.65L222.592 52.7375H275.586L272.644 86.3328Z" fill="white"/>
<path d="M268.32 68.1977L267.945 67.3684C267.488 67.6894 266.944 67.8618 266.385 67.862C265.734 67.862 265.467 67.6448 265.467 67.3585C265.467 66.47 268.222 67.0821 268.222 65.3248C268.222 64.5153 267.58 63.844 266.247 63.844C265.672 63.8338 265.106 63.9806 264.608 64.2685L264.944 65.0978C265.343 64.866 265.795 64.7402 266.257 64.7325C266.909 64.7325 267.155 64.9694 267.155 65.2656C267.155 66.1442 264.401 65.542 264.401 67.2401C264.401 68.0298 265.062 68.7012 266.375 68.7012C267.06 68.7352 267.738 68.5595 268.32 68.1977Z" fill="white"/>
<path d="M263.927 66.2923C263.957 65.7731 263.83 65.2569 263.563 64.8107C263.296 64.3645 262.901 64.0087 262.429 63.7896C261.957 63.5705 261.431 63.498 260.917 63.5816C260.404 63.6653 259.928 63.9011 259.55 64.2586C259.172 64.6161 258.911 65.0789 258.799 65.5868C258.687 66.0947 258.731 66.6245 258.924 67.1075C259.117 67.5904 259.45 68.0043 259.881 68.2955C260.312 68.5867 260.821 68.7418 261.341 68.7407C261.674 68.7595 262.007 68.7101 262.32 68.5955C262.633 68.4809 262.92 68.3036 263.162 68.0743C263.404 67.8451 263.597 67.5688 263.729 67.2623C263.86 66.9559 263.928 66.6258 263.927 66.2923ZM259.85 66.2923C259.856 65.9988 259.948 65.7136 260.115 65.4724C260.283 65.2311 260.518 65.0447 260.79 64.9364C261.063 64.8281 261.362 64.8028 261.649 64.8636C261.936 64.9244 262.199 65.0687 262.405 65.2783C262.61 65.4879 262.749 65.7535 262.805 66.0418C262.86 66.3302 262.828 66.6284 262.715 66.8991C262.601 67.1697 262.41 67.4008 262.166 67.5633C261.921 67.7259 261.634 67.8126 261.341 67.8127C261.141 67.8183 260.942 67.7827 260.757 67.7079C260.571 67.6331 260.403 67.5208 260.263 67.3781C260.123 67.2353 260.014 67.0652 259.943 66.8784C259.872 66.6915 259.84 66.492 259.85 66.2923Z" fill="white"/>
<path d="M256.819 64.8115V66.0554H254.627V66.9439H256.819V68.6617H257.915V63.9329H254.341V64.8115H256.819Z" fill="white"/>
<path d="M252.574 64.8214H254.104V63.9329H249.978V64.8214H251.488V68.6617H252.584L252.574 64.8214Z" fill="white"/>
<path d="M242.258 63.9329L243.808 68.6617H244.982L246.029 65.4631L247.095 68.6617H248.27L249.83 63.9329H248.684L247.618 67.2598L246.503 63.9329H245.515L244.439 67.2894L243.334 63.9329H242.258Z" fill="white"/>
<path d="M238.733 67.6447H240.925L241.349 68.6319H242.465L240.362 63.9031H239.296L237.183 68.6319H238.309L238.733 67.6447ZM239.079 66.8154L239.829 65.0088L240.579 66.8154H239.079Z" fill="white"/>
<path d="M233.649 68.6617L234.557 67.3487H235.544V68.6617H236.64V63.9329H234.597C233.323 63.9329 232.533 64.5844 232.533 65.6506C232.522 65.9709 232.612 66.2867 232.789 66.5539C232.966 66.8211 233.221 67.0265 233.521 67.1413L232.454 68.6617H233.649ZM234.636 64.8214H235.525V66.47H234.636C233.965 66.47 233.649 66.164 233.649 65.6506C233.649 65.1373 234.004 64.8214 234.676 64.8214H234.636Z" fill="white"/>
<path d="M228.022 67.783V68.6617H231.684V63.9329H228.111V64.8115H230.598V65.7987H228.436V66.6477H230.638V67.7436L228.022 67.783Z" fill="white"/>
<path d="M271.154 72.0674H270.058V76.8061H271.154V72.0674Z" fill="white"/>
<path d="M264.589 72.0674V76.8061H265.487L267.846 73.9332V76.8061H268.913V72.0674H268.004L265.655 74.9501V72.0674H264.589Z" fill="white"/>
<path d="M262.486 72.946H263.976V72.0674H259.85V72.9658H261.37V76.8061H262.466L262.486 72.946Z" fill="white"/>
<path d="M255.615 75.9077V76.7863H259.277V72.0674H255.704V72.9559H258.191V73.9431H255.99V74.7921H258.191V75.8879L255.615 75.9077Z" fill="white"/>
<path d="M251.557 74.348H250.57V76.2632C251.129 76.6599 251.799 76.8706 252.485 76.8654C253.14 76.8654 253.768 76.6053 254.23 76.1425C254.693 75.6796 254.953 75.0519 254.953 74.3973C254.953 73.7427 254.693 73.115 254.23 72.6521C253.768 72.1893 253.14 71.9293 252.485 71.9293C252.116 71.9146 251.749 71.9803 251.408 72.1218C251.067 72.2633 250.761 72.4772 250.511 72.7487L251.222 73.4002C251.373 73.2287 251.56 73.0921 251.77 73.0001C251.98 72.908 252.207 72.8626 252.436 72.8671C252.645 72.8502 252.856 72.8768 253.054 72.9453C253.253 73.0138 253.435 73.1227 253.589 73.265C253.743 73.4074 253.867 73.5802 253.951 73.7725C254.035 73.9648 254.079 74.1725 254.079 74.3825C254.079 74.5925 254.035 74.8002 253.951 74.9925C253.867 75.1848 253.743 75.3576 253.589 75.5C253.435 75.6423 253.253 75.7512 253.054 75.8197C252.856 75.8882 252.645 75.9148 252.436 75.8979C252.14 75.9023 251.848 75.8309 251.587 75.6906L251.557 74.348Z" fill="white"/>
<path d="M246.512 76.7863L247.431 75.4634H248.418V76.7863H249.514V72.0674H247.46C246.197 72.0674 245.407 72.7288 245.407 73.7852C245.394 74.1071 245.482 74.4251 245.659 74.6943C245.836 74.9635 246.093 75.1703 246.394 75.2857L245.328 76.8061L246.512 76.7863ZM247.549 72.946H248.438V74.5947H247.549C246.878 74.5947 246.562 74.2886 246.562 73.7654C246.562 73.2422 246.878 72.946 247.549 72.946Z" fill="white"/>
<path d="M241.438 75.7695H243.64L244.054 76.7568H245.219L243.107 72.0181H242.031L239.908 76.7568H241.063L241.438 75.7695ZM241.784 74.9403L242.534 73.1238L243.284 74.9403H241.784Z" fill="white"/>
<path d="M238.624 72.946H240.145V72.0674H236.018V72.9658H237.539V76.8061H238.624V72.946Z" fill="white"/>
<path d="M235.426 72.0674H234.36V76.8061H235.456L235.426 72.0674Z" fill="white"/>
<path d="M233.501 74.4171C233.528 73.9006 233.401 73.3876 233.134 72.9444C232.867 72.5013 232.473 72.1484 232.004 71.9313C231.534 71.7141 231.01 71.6428 230.5 71.7264C229.989 71.8101 229.516 72.0449 229.14 72.4005C228.764 72.7561 228.504 73.2162 228.392 73.7213C228.281 74.2264 228.323 74.7534 228.514 75.2341C228.705 75.7149 229.036 76.1273 229.464 76.4181C229.892 76.7089 230.397 76.8647 230.914 76.8654C231.247 76.8843 231.581 76.8349 231.894 76.7203C232.207 76.6057 232.493 76.4284 232.736 76.1991C232.978 75.9699 233.171 75.6935 233.302 75.3871C233.434 75.0807 233.501 74.7506 233.501 74.4171ZM229.433 74.4171C229.441 74.1261 229.535 73.8437 229.702 73.6055C229.869 73.3672 230.103 73.1835 230.374 73.0775C230.646 72.9714 230.942 72.9477 231.227 73.0092C231.511 73.0707 231.771 73.2148 231.975 73.4234C232.178 73.6319 232.315 73.8958 232.369 74.1819C232.423 74.4681 232.391 74.7638 232.278 75.032C232.165 75.3003 231.975 75.5293 231.733 75.6904C231.49 75.8514 231.205 75.9373 230.914 75.9374C230.714 75.9446 230.515 75.91 230.328 75.8357C230.142 75.7614 229.974 75.6492 229.834 75.5061C229.693 75.3631 229.584 75.1924 229.514 75.0048C229.443 74.8173 229.412 74.6172 229.424 74.4171H229.433Z" fill="white"/>
<path d="M223.155 72.0674V76.8061H224.053L226.413 73.9332V76.8061H227.449V72.0674H226.541L224.181 74.9501V72.0674H223.155Z" fill="white"/>
<path opacity="0.1" d="M257.402 50.23L267.748 88.949H264.263L254.025 50.23H257.402Z" fill="white"/>
<path opacity="0.1" d="M252.021 50.23L262.377 88.949H255.467L245.229 50.23H252.021Z" fill="white"/>
<path d="M275.586 52.7375L275.32 55.7486H222.325L222.592 52.7375H275.586Z" fill="#407BFF"/>
<path d="M273.148 54.0803C273.139 54.1573 273.147 54.2352 273.171 54.3088C273.196 54.3823 273.235 54.4499 273.287 54.5069C273.34 54.564 273.404 54.6091 273.475 54.6394C273.546 54.6697 273.623 54.6844 273.701 54.6826C273.866 54.681 274.024 54.6187 274.146 54.5077C274.268 54.3966 274.345 54.2445 274.362 54.0803C274.37 54.0029 274.362 53.9246 274.338 53.8506C274.314 53.7765 274.275 53.7083 274.223 53.6505C274.17 53.5928 274.107 53.5466 274.035 53.5152C273.964 53.4838 273.887 53.4678 273.809 53.4683C273.643 53.4722 273.485 53.5366 273.363 53.6493C273.241 53.762 273.165 53.9153 273.148 54.0803Z" fill="white"/>
<path d="M271.549 54.0803C271.54 54.1573 271.548 54.2352 271.572 54.3088C271.596 54.3823 271.636 54.4499 271.688 54.5069C271.741 54.564 271.805 54.6091 271.876 54.6394C271.947 54.6697 272.024 54.6844 272.101 54.6826C272.266 54.681 272.425 54.6187 272.547 54.5077C272.669 54.3966 272.746 54.2445 272.763 54.0803C272.771 54.0029 272.763 53.9246 272.739 53.8506C272.715 53.7765 272.676 53.7083 272.623 53.6505C272.571 53.5928 272.507 53.5466 272.436 53.5152C272.365 53.4838 272.288 53.4678 272.21 53.4683C272.044 53.4722 271.885 53.5366 271.764 53.6493C271.642 53.762 271.565 53.9153 271.549 54.0803Z" fill="white"/>
<path d="M269.9 54.0803C269.891 54.1573 269.899 54.2352 269.924 54.3088C269.948 54.3823 269.987 54.4499 270.04 54.5069C270.092 54.564 270.156 54.6091 270.227 54.6394C270.298 54.6697 270.375 54.6844 270.453 54.6826C270.618 54.681 270.776 54.6187 270.898 54.5077C271.02 54.3966 271.097 54.2445 271.114 54.0803C271.122 54.0029 271.114 53.9246 271.09 53.8506C271.066 53.7765 271.027 53.7083 270.975 53.6505C270.923 53.5928 270.859 53.5466 270.787 53.5152C270.716 53.4838 270.639 53.4678 270.561 53.4683C270.395 53.4722 270.237 53.5366 270.115 53.6493C269.993 53.762 269.917 53.9153 269.9 54.0803Z" fill="white"/>
<path d="M214.694 91.5554H274.175C274.872 91.5554 275.438 92.1212 275.438 92.8191V93.5792C275.438 94.2771 274.872 94.8429 274.175 94.8429H214.694C213.996 94.8429 213.431 94.2771 213.431 93.5792V92.8191C213.431 92.1212 213.996 91.5554 214.694 91.5554Z" fill="#407BFF"/>
<path d="M251.844 91.5554H190.349V92.3057C190.349 92.9786 190.617 93.6239 191.092 94.0998C191.568 94.5756 192.213 94.8429 192.886 94.8429H249.306C249.979 94.8429 250.625 94.5756 251.1 94.0998C251.576 93.6239 251.844 92.9786 251.844 92.3057V91.5554Z" fill="#407BFF"/>
<path opacity="0.3" d="M251.844 91.5554H190.349V92.3057C190.349 92.9786 190.617 93.6239 191.092 94.0998C191.568 94.5756 192.213 94.8429 192.886 94.8429H249.306C249.979 94.8429 250.625 94.5756 251.1 94.0998C251.576 93.6239 251.844 92.9786 251.844 92.3057V91.5554Z" fill="white"/>
<path opacity="0.3" d="M226.107 91.6443C226.104 92.0798 225.929 92.4966 225.62 92.8037C225.311 93.1107 224.893 93.2831 224.458 93.2831H216.935C216.501 93.2831 216.084 93.1104 215.776 92.8031C215.469 92.4958 215.296 92.0789 215.296 91.6443H226.107Z" fill="black"/>
<path d="M303.189 158.371L309.547 156.525C310.164 156.316 310.803 156.181 311.452 156.12L315.717 155.942L319.202 154.481C319.391 154.372 319.605 154.311 319.823 154.305C320.042 154.298 320.259 154.346 320.454 154.444C320.65 154.542 320.818 154.686 320.944 154.865C321.07 155.044 321.15 155.251 321.176 155.468L321.403 157.818C321.424 158.052 321.383 158.287 321.284 158.5C321.185 158.713 321.032 158.897 320.841 159.032L315.707 162.626L308.53 161.421L302.093 164.531L301.333 158.943L303.189 158.371Z" fill="#B55B52"/>
<path d="M191.198 160.108L184.761 158.539C184.137 158.361 183.494 158.252 182.846 158.213H178.581L175.037 156.91C174.842 156.796 174.62 156.734 174.394 156.73C174.168 156.727 173.945 156.782 173.746 156.89C173.547 156.999 173.38 157.156 173.26 157.348C173.141 157.54 173.073 157.76 173.063 157.986L172.934 160.345C172.921 160.578 172.97 160.811 173.076 161.019C173.182 161.227 173.341 161.403 173.537 161.53L178.828 164.906L185.985 163.396L192.55 166.229L193.064 160.622L191.198 160.108Z" fill="#B55B52"/>
<path d="M263.147 339.053L264.667 353.022L272.299 352.213L271.519 336.98L263.147 339.053Z" fill="#B55B52"/>
<path d="M275.892 352.351C276.705 352.386 277.501 352.114 278.123 351.591C278.196 351.468 278.228 351.326 278.215 351.185C278.203 351.043 278.147 350.909 278.054 350.801C277.983 350.699 277.892 350.612 277.787 350.546C277.682 350.48 277.565 350.436 277.442 350.416C276.129 350.159 273.543 351.897 273.434 351.976C273.401 351.996 273.376 352.026 273.362 352.061C273.347 352.097 273.345 352.136 273.355 352.173C273.364 352.209 273.385 352.242 273.413 352.266C273.441 352.291 273.476 352.307 273.513 352.311C274.303 352.398 275.1 352.412 275.892 352.351ZM277.018 350.761C277.132 350.741 277.249 350.741 277.363 350.761C277.44 350.768 277.515 350.791 277.582 350.831C277.648 350.87 277.705 350.924 277.748 350.988C277.896 351.206 277.857 351.314 277.807 351.383C277.491 351.916 275.547 352.074 274.085 352.005C274.975 351.408 275.97 350.986 277.018 350.761Z" fill="#407BFF"/>
<path d="M273.542 352.311C273.568 352.321 273.596 352.321 273.621 352.311C274.51 351.837 276.247 350.021 276.01 349.162C276.01 348.955 275.803 348.708 275.3 348.698C275.117 348.693 274.935 348.726 274.765 348.794C274.596 348.861 274.441 348.963 274.312 349.093C273.384 349.972 273.325 352.055 273.325 352.173C273.325 352.205 273.332 352.236 273.348 352.264C273.364 352.292 273.386 352.315 273.414 352.331L273.542 352.311ZM275.201 349.034H275.3C275.635 349.034 275.665 349.172 275.685 349.221C275.774 349.735 274.648 351.136 273.71 351.778C273.732 350.895 274.025 350.041 274.549 349.33C274.717 349.167 274.938 349.069 275.171 349.053L275.201 349.034Z" fill="#407BFF"/>
<path d="M272.644 351.284L264.213 351.926C264.058 351.934 263.91 351.995 263.795 352.099C263.679 352.204 263.604 352.345 263.581 352.499L262.594 359.478C262.573 359.628 262.582 359.781 262.621 359.927C262.659 360.073 262.726 360.211 262.818 360.331C262.91 360.451 263.025 360.552 263.156 360.628C263.287 360.703 263.431 360.752 263.581 360.772H263.828C266.859 360.485 269.554 360.12 273.335 359.844C277.807 359.508 276.711 360.13 281.973 359.844C285.142 359.656 285.448 356.013 284.096 355.895C277.896 355.579 277.116 353.772 274.579 351.758C274.016 351.364 273.326 351.195 272.644 351.284Z" fill="#263238"/>
<path opacity="0.2" d="M271.953 345.43L266.257 345.223L263.927 346.19L264.243 349.142L272.131 348.678L271.953 345.43Z" fill="black"/>
<path d="M243.797 198.324L258.438 285.881L262.002 347.277L273.464 347.079C275.867 325.097 276.484 302.957 275.31 280.876C273.523 248.366 265.961 210.348 265.121 199.509L260.886 192.025L252.455 193.082L243.797 198.324Z" fill="#407BFF"/>
<path d="M221.713 354.631L215.197 353.891C215.197 353.891 215.385 351.206 215.711 346.872C215.78 345.884 215.859 344.897 215.938 343.742L223.421 345.075H223.5C223.5 345.243 223.431 345.411 223.401 345.569C223.243 346.447 223.075 347.257 222.937 348.037C222.197 352.114 221.713 354.631 221.713 354.631Z" fill="#B55B52"/>
<path d="M213.963 351.571C214.002 351.568 214.039 351.555 214.071 351.532C214.102 351.509 214.126 351.478 214.141 351.442C214.152 351.407 214.152 351.37 214.141 351.335C214.13 351.3 214.11 351.268 214.082 351.245C213.973 351.156 211.555 349.182 210.212 349.33C209.965 349.354 209.736 349.47 209.57 349.655C209.468 349.756 209.4 349.887 209.375 350.028C209.35 350.17 209.37 350.316 209.432 350.445C209.679 350.909 210.636 351.245 211.584 351.433C212.372 351.542 213.168 351.589 213.963 351.571ZM213.42 351.225C211.959 351.166 210.034 350.84 209.758 350.238C209.758 350.169 209.689 350.05 209.857 349.853C209.904 349.791 209.965 349.741 210.036 349.706C210.106 349.672 210.183 349.655 210.261 349.655C210.379 349.641 210.499 349.641 210.617 349.655C211.641 350 212.591 350.532 213.42 351.225Z" fill="#407BFF"/>
<path d="M214.062 351.571C214.093 351.561 214.121 351.541 214.14 351.514C214.16 351.488 214.17 351.456 214.171 351.423C214.171 351.324 214.319 349.221 213.47 348.264C213.349 348.119 213.198 348.002 213.028 347.92C212.857 347.838 212.671 347.794 212.483 347.79C211.969 347.79 211.772 347.977 211.722 348.185C211.416 349.024 212.986 350.988 213.835 351.541C213.857 351.55 213.882 351.55 213.904 351.541C213.925 351.561 213.951 351.574 213.979 351.579C214.007 351.585 214.036 351.582 214.062 351.571ZM212.581 348.145C212.809 348.185 213.015 348.304 213.164 348.481C213.626 349.236 213.847 350.114 213.796 350.998C212.937 350.278 211.95 348.777 212.078 348.274C212.078 348.274 212.147 348.096 212.473 348.125H212.581V348.145Z" fill="#407BFF"/>
<path d="M215.415 350.791L222.069 351.778C222.222 351.805 222.363 351.883 222.467 351.999C222.571 352.116 222.632 352.264 222.641 352.42L223.026 359.469C223.037 359.617 223.018 359.767 222.97 359.908C222.923 360.049 222.848 360.18 222.75 360.292C222.651 360.404 222.532 360.495 222.398 360.561C222.264 360.626 222.119 360.664 221.97 360.673C221.888 360.683 221.805 360.683 221.723 360.673C218.761 360.12 217.774 359.863 214.023 359.251C209.59 358.521 210.627 359.251 205.404 358.452C202.265 357.968 202.275 354.315 203.637 354.355C209.847 354.621 214.763 350.653 215.415 350.791Z" fill="#263238"/>
<path opacity="0.2" d="M222.967 348.046L215.711 346.872C215.78 345.884 215.859 344.897 215.938 343.742L223.421 345.075V345.578C223.273 346.457 223.105 347.267 222.967 348.046Z" fill="black"/>
<path opacity="0.2" d="M247.302 218.661L251.251 242.068C252.426 225.285 250.856 205.313 250.856 205.313L247.302 218.661Z" fill="black"/>
<path d="M231.24 196.142C231.24 196.142 221.94 263.708 218.475 281.093C215.395 296.533 214.832 345.371 214.832 345.371L225.03 346.516C225.03 346.516 230.855 319.644 232.78 300.749C233.451 294.154 233.264 288.625 233.866 285.229C234.666 280.747 260.669 208.384 255.832 196.961L231.24 196.142Z" fill="#407BFF"/>
<path d="M265.516 187.079C265.176 184.157 265.093 181.21 265.269 178.273C267.609 150.335 268.448 148.656 268.231 143.72C268.217 143.283 268.071 142.86 267.812 142.508C267.553 142.155 267.193 141.889 266.78 141.746C247.45 135.171 232.415 138.291 228.051 140.759C222.236 144.036 224.556 147.541 224.625 148.538C225.188 156.821 229.749 172.172 229.848 185.608C229.848 187.583 229.65 192.321 229.522 194.947C229.497 195.463 229.658 195.97 229.975 196.378C230.292 196.785 230.744 197.066 231.25 197.169C235.584 198.067 254.598 198.304 258.161 198.156C261.567 198.037 263.808 197.83 265.24 197.643C265.535 197.602 265.819 197.501 266.073 197.345C266.327 197.189 266.546 196.982 266.716 196.736C266.886 196.491 267.003 196.214 267.06 195.921C267.117 195.628 267.112 195.327 267.046 195.036C266.494 192.677 265.684 188.827 265.516 187.079Z" fill="#263238"/>
<path d="M242.257 124.775C242.988 129.099 242.692 135.447 239.602 138.261C239.602 138.261 239.661 142.664 251.745 147.719C256.306 141.519 253.067 138.587 253.067 138.587C248.26 137.323 249.425 135.358 250.343 132.022L242.257 124.775Z" fill="#B55B52"/>
<path opacity="0.2" d="M245.545 127.688L250.303 132.022C250.076 132.793 249.918 133.582 249.829 134.381C247.983 134.075 245.13 132.407 244.785 130.432C244.806 129.469 245.068 128.525 245.545 127.688Z" fill="black"/>
<path d="M236.808 117.233C238.565 124.351 239.167 127.392 243.481 130.413C249.977 134.974 258.29 131.242 258.734 123.739C259.089 116.986 256.128 106.443 248.556 104.912C246.887 104.561 245.156 104.642 243.528 105.148C241.899 105.653 240.427 106.566 239.25 107.8C238.073 109.034 237.231 110.549 236.804 112.2C236.376 113.85 236.378 115.583 236.808 117.233Z" fill="#B55B52"/>
<path d="M249.168 116.315C249.286 116.897 249.681 117.302 250.056 117.302C250.431 117.302 250.668 116.69 250.56 116.108C250.451 115.525 250.046 115.12 249.671 115.17C249.296 115.219 249.079 115.752 249.168 116.315Z" fill="#263238"/>
<path d="M255.723 115.17C255.832 115.762 256.236 116.157 256.612 116.157C256.987 116.157 257.224 115.545 257.115 114.963C257.006 114.38 256.602 113.975 256.227 114.035C255.851 114.094 255.614 114.578 255.723 115.17Z" fill="#263238"/>
<path d="M253.403 117.233C254.173 118.474 255.11 119.604 256.187 120.59C255.927 120.859 255.611 121.068 255.261 121.203C254.912 121.338 254.537 121.395 254.163 121.37L253.403 117.233Z" fill="#A02724"/>
<path d="M251.399 124.252C251.694 124.244 251.988 124.211 252.278 124.153C252.3 124.15 252.321 124.142 252.34 124.13C252.359 124.118 252.376 124.102 252.388 124.084C252.401 124.066 252.41 124.045 252.415 124.023C252.42 124.001 252.42 123.978 252.416 123.956C252.412 123.933 252.404 123.91 252.392 123.891C252.379 123.871 252.362 123.854 252.343 123.841C252.323 123.828 252.301 123.819 252.278 123.815C252.255 123.811 252.231 123.812 252.208 123.818C251.482 123.964 250.731 123.939 250.017 123.744C249.302 123.548 248.643 123.188 248.092 122.692C248.059 122.658 248.014 122.639 247.967 122.638C247.92 122.637 247.874 122.655 247.84 122.687C247.806 122.72 247.786 122.765 247.785 122.812C247.784 122.859 247.802 122.905 247.835 122.939C248.313 123.382 248.874 123.727 249.486 123.952C250.097 124.178 250.748 124.279 251.399 124.252Z" fill="#263238"/>
<path d="M246.038 115.417C246.111 115.43 246.187 115.419 246.253 115.385C246.319 115.351 246.372 115.296 246.404 115.229C246.715 114.751 247.123 114.343 247.6 114.03C248.078 113.717 248.615 113.507 249.178 113.413C249.271 113.398 249.354 113.347 249.409 113.271C249.465 113.195 249.488 113.101 249.474 113.008C249.459 112.918 249.41 112.837 249.336 112.783C249.262 112.729 249.169 112.707 249.079 112.721C248.403 112.829 247.758 113.081 247.189 113.461C246.62 113.841 246.14 114.34 245.782 114.923C245.743 115.006 245.739 115.1 245.768 115.187C245.797 115.273 245.859 115.345 245.94 115.387C245.97 115.404 246.004 115.414 246.038 115.417Z" fill="#263238"/>
<path d="M256.878 112.889C256.94 112.904 257.005 112.901 257.066 112.882C257.126 112.863 257.181 112.828 257.224 112.781C257.256 112.748 257.282 112.71 257.3 112.668C257.318 112.625 257.327 112.58 257.327 112.534C257.327 112.488 257.318 112.442 257.3 112.4C257.282 112.358 257.256 112.319 257.224 112.287C256.823 111.893 256.332 111.603 255.793 111.443C255.254 111.283 254.684 111.258 254.134 111.369C254.09 111.377 254.049 111.394 254.013 111.418C253.976 111.443 253.945 111.475 253.921 111.512C253.897 111.548 253.881 111.59 253.873 111.633C253.865 111.677 253.867 111.721 253.877 111.764C253.898 111.853 253.953 111.93 254.031 111.978C254.109 112.026 254.203 112.041 254.292 112.02C254.726 111.946 255.172 111.976 255.593 112.108C256.013 112.24 256.396 112.471 256.71 112.781C256.754 112.833 256.812 112.871 256.878 112.889Z" fill="#263238"/>
<path d="M238.308 137.827L239.582 137.609L246.66 141.469L248.852 141.548L253.058 137.975L254.469 138.31C255.78 142.362 256.031 146.682 255.2 150.858L252.821 162.803L250.333 175.884L249.8 174.68L247.825 170.178L245.12 165.044L240.184 152.487L238.782 147.314C237.952 144.223 237.807 140.989 238.358 137.836L238.308 137.827Z" fill="#263238"/>
<path opacity="0.2" d="M245.94 141.558C253.531 141.627 254.37 138.834 254.37 138.834V138.212C254.37 138.212 256.661 142.526 250.076 143.286C243.491 144.046 239.098 140.927 238.16 139.051C238.891 139.999 240.855 141.519 245.94 141.558Z" fill="black"/>
<path d="M237.084 107.45C237.327 106.299 237.876 105.235 238.674 104.37C239.086 103.954 239.644 103.714 240.229 103.701C240.815 103.688 241.383 103.903 241.813 104.3C242.457 103.571 243.261 103.001 244.161 102.635C245.062 102.268 246.036 102.115 247.006 102.188C247.927 102.269 248.814 102.574 249.59 103.076C250.366 103.579 251.008 104.263 251.458 105.07C252.337 106.699 255.111 107.272 256.947 107.46C255.743 108.674 252.761 109.434 251.271 108.615C251.636 109.187 253.304 109.493 253.986 109.602C252.889 110.263 251.67 110.696 250.402 110.875C249.766 110.954 249.121 110.84 248.551 110.548C247.98 110.255 247.511 109.799 247.203 109.237C247.478 109.699 247.594 110.238 247.535 110.772C247.477 111.306 247.246 111.807 246.878 112.198C246.501 112.586 246.009 112.841 245.475 112.927C244.942 113.012 244.395 112.923 243.916 112.672C244.22 112.577 244.483 112.382 244.662 112.119C244.842 111.855 244.926 111.539 244.903 111.221C244.893 110.88 244.777 110.551 244.572 110.279C244.367 110.007 244.083 109.805 243.758 109.701C243.662 110.614 243.212 111.454 242.504 112.04C241.853 112.544 241.28 112.751 240.875 113.472C240.47 114.192 240.954 115.94 242.247 115.821C241.665 116.443 239.286 116.216 239.019 115.407C239.229 116.428 239.657 117.391 240.273 118.231C240.89 119.072 241.682 119.768 242.593 120.274C242.12 120.3 241.653 120.4 241.211 120.57C240.952 120.628 240.708 120.737 240.493 120.892C240.277 121.046 240.095 121.242 239.957 121.468C239.83 121.815 239.772 122.184 239.787 122.553C239.803 122.922 239.891 123.285 240.046 123.62C240.641 125.454 241.353 127.248 242.178 128.991C240.998 128.673 239.906 128.091 238.984 127.289C238.062 126.487 237.335 125.486 236.857 124.361C235.73 123.973 234.762 123.224 234.103 122.229C233.444 121.235 233.132 120.052 233.214 118.862C232.046 117.832 231.254 116.443 230.963 114.913C230.866 114.175 231.044 113.427 231.463 112.812C231.881 112.196 232.512 111.757 233.234 111.576C232.994 110.991 232.917 110.352 233.01 109.726C233.104 109.1 233.366 108.511 233.767 108.022C233.947 107.767 234.176 107.549 234.44 107.382C234.704 107.215 234.999 107.102 235.307 107.049C235.615 106.995 235.931 107.003 236.236 107.072C236.541 107.141 236.829 107.269 237.084 107.45Z" fill="#263238"/>
<path d="M237.104 122.416C237.748 123.546 238.813 124.376 240.066 124.726C241.734 125.17 242.553 123.66 242.04 122.08C241.596 120.669 240.194 118.734 238.516 118.961C238.228 119.01 237.952 119.115 237.705 119.271C237.458 119.426 237.244 119.629 237.075 119.867C236.906 120.106 236.786 120.375 236.722 120.66C236.657 120.945 236.65 121.24 236.699 121.527C236.763 121.851 236.902 122.155 237.104 122.416Z" fill="#B55B52"/>
<path d="M240.283 117.292L245.14 116.463C245.545 115.219 247.302 114.923 248.042 114.795C248.783 114.666 250.668 114.35 251.419 115.545L253.107 115.249C253.423 113.887 255.279 113.561 256.069 113.432C256.858 113.304 259.376 112.87 259.731 114.923C259.78 115.752 259.522 116.571 259.005 117.221C258.489 117.872 257.751 118.31 256.932 118.45C256.113 118.591 255.271 118.424 254.567 117.983C253.864 117.542 253.347 116.857 253.117 116.058C253.107 115.947 253.107 115.834 253.117 115.723L251.666 115.97C251.699 116.076 251.725 116.185 251.745 116.295C251.79 117.124 251.53 117.94 251.013 118.588C250.495 119.236 249.757 119.672 248.94 119.811C248.122 119.95 247.282 119.783 246.579 119.342C245.876 118.902 245.361 118.218 245.13 117.421C245.116 117.26 245.116 117.098 245.13 116.937L240.431 117.747C239.79 117.854 239.207 118.182 238.782 118.675L238.437 118.378C238.912 117.818 239.562 117.435 240.283 117.292ZM256.829 118.003C257.54 117.923 258.191 117.569 258.645 117.016C259.099 116.463 259.318 115.754 259.257 115.042C259.06 113.916 258.132 113.58 256.128 113.916C254.124 114.252 253.354 114.903 253.551 116.019C253.731 116.716 254.177 117.315 254.794 117.686C255.411 118.057 256.148 118.171 256.848 118.003H256.829ZM248.822 119.366C249.533 119.286 250.183 118.931 250.635 118.378C251.087 117.824 251.305 117.116 251.241 116.404C251.053 115.278 250.116 114.943 248.112 115.288C246.107 115.634 245.347 116.276 245.535 117.381C245.714 118.081 246.162 118.681 246.781 119.052C247.4 119.424 248.141 119.536 248.842 119.366H248.822Z" fill="#263238"/>
<path d="M304.453 157.423C297.173 159.305 289.608 159.82 282.141 158.943C278.269 152.173 273.023 146.288 266.741 141.667L263.976 152.033C263.976 152.033 272.21 165.114 278.874 168.125C284.155 170.514 300 166.259 306.358 164.383C306.263 161.948 305.611 159.567 304.453 157.423Z" fill="#263238"/>
<path d="M189.51 158.588C196.819 160.288 204.38 160.623 211.811 159.575C215.528 152.718 220.644 146.718 226.827 141.963L229.789 152.26C229.789 152.26 221.841 165.528 215.237 168.677C210.014 171.175 194.081 167.266 187.683 165.538C187.758 163.113 188.383 160.737 189.51 158.588Z" fill="#263238"/>
<path d="M254.341 136.03V138.834C254.341 138.834 253.749 141.874 246.157 141.795C238.565 141.716 237.677 138.133 237.677 138.133V136.099C237.672 135.756 237.744 135.417 237.886 135.105C238.029 134.793 238.24 134.517 238.503 134.297C238.765 134.077 239.074 133.918 239.406 133.832C239.737 133.746 240.084 133.734 240.421 133.799C244.169 134.388 247.986 134.388 251.735 133.799C252.055 133.757 252.381 133.783 252.691 133.876C253.001 133.968 253.288 134.125 253.534 134.335C253.78 134.545 253.978 134.805 254.117 135.097C254.256 135.389 254.333 135.707 254.341 136.03Z" fill="#263238"/>
</svg>
