<svg width="396" height="416" viewBox="0 0 396 416" fill="none" xmlns="http://www.w3.org/2000/svg" xmlns:xlink="http://www.w3.org/1999/xlink">
<path d="M197.111,0.963C251.624,0.963 295.778,42.127 295.778,92.95C295.778,143.773 251.624,184.938 197.111,184.938C142.598,184.938 98.444,143.773 98.444,92.95C98.444,42.127 142.598,0.963 197.111,0.963ZM295.778,243.351C295.778,267.727 288.872,324.529 241.758,388.001L221.778,276.925L244.964,233.691C229.672,232.081 213.638,230.931 197.111,230.931C180.584,230.931 164.551,232.081 149.258,233.691L172.444,276.925L152.464,388.001C105.351,324.529 98.444,267.727 98.444,243.351C39.491,259.447 -0.222,288.425 -0.222,322.919L-0.222,414.907L394.444,414.907L394.444,322.919C394.444,288.425 354.978,259.447 295.778,243.351Z" fill="#145A98"/>
</svg>
