<svg width="434" height="508" viewBox="0 0 434 508" fill="none" xmlns="http://www.w3.org/2000/svg" xmlns:xlink="http://www.w3.org/1999/xlink">
<path d="M42.771,95.639L59.754,163.076L42.771,230.22L105.984,266.576L144.667,325.51L217,309.678L289.334,325.51L328.016,266.576L391.23,230.22L374.246,163.076L391.23,95.639L328.33,59.282L289.334,0.348L217,16.474L144.981,0.641L105.67,59.282L42.771,95.639ZM217.314,281.53C183.951,281.53 151.954,269.174 128.363,247.18C104.771,225.184 91.517,195.353 91.517,164.248C91.517,133.143 104.771,103.312 128.363,81.318C151.954,59.323 183.951,46.967 217.314,46.967C286.502,46.967 342.798,99.45 342.798,163.955C342.798,229.046 286.502,281.53 217.314,281.53ZM216.686,252.21C164.48,252.21 122.652,212.92 122.652,164.248C122.652,115.87 164.48,76.287 216.686,76.287C268.892,76.287 311.348,115.87 311.348,164.248C311.348,212.92 268.892,252.21 216.686,252.21ZM337.45,284.462L297.196,350.14L231.782,336.36L311.348,507.298L355.376,442.792L434,442.792L337.45,284.462ZM95.291,286.514L134.603,352.486L201.59,337.532L122.652,507.298L78.623,442.792L0,442.792L95.291,286.514Z" fill="#145A98"/>
</svg>
